<mxfile host="app.diagrams.net" modified="2021-03-15T08:02:46.202Z" agent="5.0 (Windows NT 10.0; Win64; x64) AppleWebKit/537.36 (KHTML, like Gecko) Chrome/89.0.4389.82 Safari/537.36" etag="o4NrIEPDrflIQTh_oS-E" version="14.4.8" type="github">
  <diagram id="P_otqnoJcAKWisV0Lo6w" name="第 1 页">
    <mxGraphModel dx="981" dy="552" grid="1" gridSize="10" guides="1" tooltips="1" connect="1" arrows="1" fold="1" page="1" pageScale="1" pageWidth="827" pageHeight="1169" math="0" shadow="0">
      <root>
        <mxCell id="0" />
        <mxCell id="1" parent="0" />
        <mxCell id="vAmcDXehXL0Ibq34O_KT-74" value="" style="rounded=0;whiteSpace=wrap;html=1;strokeColor=#4D4D4D;strokeWidth=2;fillColor=#ffffff;opacity=80;" vertex="1" parent="1">
          <mxGeometry x="330" y="239" width="215" height="240" as="geometry" />
        </mxCell>
        <mxCell id="vAmcDXehXL0Ibq34O_KT-73" value="" style="rounded=0;whiteSpace=wrap;html=1;strokeColor=#4D4D4D;strokeWidth=2;fillColor=#ffffff;opacity=80;" vertex="1" parent="1">
          <mxGeometry x="10" y="239" width="280" height="240" as="geometry" />
        </mxCell>
        <mxCell id="vAmcDXehXL0Ibq34O_KT-22" value="" style="shape=image;imageAspect=0;verticalLabelPosition=bottom;verticalAlign=top;strokeWidth=2;fillColor=none;opacity=80;image=data:image/png,iVBORw0KGgoAAAANSUhEUgAAAggAAAC7CAYAAAAAPWaRAAAgAElEQVR4Xuy9abBl6VUduM5w733zy6mUNUhVJVWpSmNJIAk0S6ABBBiDMBipkYfw1PaPtruDCHdEOzqi/av/uMEDBmSBDYTtsAljuzHdMoTUBmQkSkNJhSQQCCGphpwz33Tne87pWGvt79zzXmZNqCSVxHuQysrMe8899zvnfHvttddeO2uapsHxz/EKfBOvQN0AP3f/BfzERw4wx5O/3bMse8xVSf+W83B8WVbf4LXxj00GPmVZtkCW53pdBv7OXxkaVIDOq0HW5PobZAv9VaaDL4/Nf+3+8Dxynmeud6Hhf8bL+ec64+fykzJkOocj7+dZZA3yoojPOvw1+B5/ZA2+4ujnp1frHA79NMhQIy9yn5/+Pf3y8fSOLEOWFbEmQNHwV6bvkeVAXtTIsnht5/hcF3+XGjmP1fg7NrnXjJ+Z63v7O3e/d8YDo9G/lUWDnH/OGr8u1tffpkHT+Hs3eYM8z3VuvkJ+T85rlvO9fHWcS3wvnks/K9przntFx6r5fXycouD681xzfX6jBdeF0it4bYqiRp5Veg/PPdO5xnXme+MaFry3tNRce68jr7//ku+pkecliqIAV1yfoOvboOD31LG8HlqjzPel7rF4vS8U1yLOm1+y8Xk1vHg8zyZDP8tR8kNq3oNe/7S2fFbyrEDZcB1i3dt7xBfZ14wrVOv0uQ69hufmo/gpjnvfN7heo/+LR5zXX6/Ud/QV5RH1ndNP3Jr+vM5f63O8jrGCy8+9wb7gp/r6veW6PaS9J31c7k03+tFy6PlH+306pxzf6cjJ8fvzwWmf2fQObwi8f7s/VbV8abqnrtsfjgHCjS/Q8d9+86zAT33oUfyLT42wvyiQY5Ei3uN+wccGB4c3EganIzF7eVw9/DmapvKm7R0rflpksdzuuNHqeAx4CRQEoIi3Kn6kfaEDDiJCtRvideCgu8G3+wo3+gwKLPEllvlCbNwKiN58HaBuuJ11Qn8AHcYXnl/uwOeftEHFazqgga9QMOR+Hjii1DGuBwc8CQEe/RuDcgRYfUT8W2zuDkydNctzB7u8QWFc5ZXhhtyBSCk48Jo1OibPTSE7lkor7HPQexvkDGA6nAMiv3valNOxdd4KwgWKPEOWM/AvQQ3vE8MXfqcGBYFJCocpiGmdCn9GlqHI6riGtdeO4IDgQ0CIAdrnqGudlQIHipsNP6VRIDeI8xVK/51AnM4vrlUK9Fy/XOvB82DAj/ub56Mr7c/k2S+vvz+D51XouvkeM6hZXiVdMX1XAyGeY48AMD0DLeALqFDwPGqtWXo8tGYJKcQ9kK5B+wzF5x7BJu39kNbdQL196G74vLev7T4ecU8demJijX0BAsA9Ts5yaMs4dKAALwkA3uixFLjgGhrcpmeb61DVS9zEz3isw2THAOExVvb4r7/hV4APwb/4yDn8o48O9V0YdJvYNNsv59S+Bd0O24eDyqFnPm1kKVPTJpS2j3jSuQOlKKd/9mapfc//E9kpz8nhIHIFb7bKAvz3jd673EGWGQ2DS2TG6ZwaZ1D8fzMHS57Ccau7CUcwKJZZRfp3J7HLz+SGzgBw/Y+DXfpeCvIK6svPOgy0OusUgMPH5HdZBkIeoMwJ5hw803qldVaGq9Djf+efHYhTkGOW6ODS/UlgRUE1N7AImsZrpYDpEC5mQhSEwYODYVzW+OyUYZeEDU2OkufF9DSuMz+HMC8FQa5gX98rAEnODN0ASEEzz1GKCVJY1f2a6/oz/Bg4CHRkfbEuWVahF2mmL09k/OC5kJ1gUDCjkG478URZg5prRtATzELLWCQQqM/1SqTbuRDbory9ZW8ylCjSWiv4+x7QFeJ5CzQFYEpZfDAHWtsO+EhsRXsfBkMjVsmEDRpdjGCy+Lk6IYNpXz3+t+9VZtMEYgZ7ZOfS9YtnPAGNYFy4VmRRls8jQccS1qYbqr2nO6yhrrSe2bijj9x8bTqgNdVdcR17kJ4wsWd6Ba8nT0e8Tjxry5ta4CHAC19phtCAgPtPC5ZI8uh5NlCoqtjveL0OkwrXPeLHAOEbPgwef4HDK8Ct1BvPe3/3UfzMxw+wX/nh0UMpGq5A0cxw81qO59685Q04Uq9ahACDhzMX0qXxlF5H9UWYX24KfK/2L1Pk2kq5IfDBVfBOR4pNJB7uuq4xq+ZYiGnw+7ylme3Q4ywaV+EwbX/IyTK0VGyGRQ1Mqhnq6RRFXaNXNChZGsi92eu4fI/2CgdX/pnUeHxKUN+k0vmR/P4N6qZB1dkMGVoUPLhRi5omIkkYp4idyt834qW+cJ1VPibxD9dIaQwDHQO8SwKlAuAypYl4oPIM8+KAWD62vpMDOQNVAlmOhg5miVlRRk0+n7/7wum8nWF5d00lGGXDuoad3bMFag0KZb6xOdcL9OoceZUB1RxZM0WdzfXFBSmU5Zeql5iB8f0ZIcybNs+lLCLLc2kprx3sFSxqBnIyGVx3fZOAlFFaERNhuOPyApkCgy7+OKgn2LuI8oVXQuBK0Yt/SvS903WCDD84ATC6+E6g2gyU1pv3gc6v0po6yPFerfVs8TkqawI/Mz8K6lFG8bowHPJeXKBeLATIEkDR9eAxxRTwe5YCzrmYD3+3um5QLWbB6ghyxTqUEeFTxu2EoIySWlP7HmD81LOgskrczLxWdZRcIs1eliJygTq9h8fAIo6R2I9l8E5Mig4RyYFKOI0hXQK+eg4DWPj+aqD9KO+hJlgM1sdvMfjis6l7VWDPQFlXPfY7gy7/Bfe+qq6xsr6Js7feirzgOvoeeKyfY4BwHF+/+VagafBPP/Rl/LNP1qiyhehMBiJuYpWylzHe/dKb8edefAt62UJwoOBDHuW7bo2SGX7CCEeT6JSt6/Hjg5pAhoJuhIB4OLuVCD3oqLBY1JjP55hNh6imQ8wXU9TN3JlFxezI5Qmdu0oVkc/E+4uCm2qBpthG09/ElckI+5cvoN69hpV8jpMbAxTZFE091waq9wuosDA8R1HPsViMXXOumQdziSL7yLixV6jrCvOmNiGsDYvvd/GSG5PAgX7vZFpxRwk35NxAMyx0jIEyIQGb+VyBoCnmKEoGsxJFXqJXMrvPUCkQRokibaPSKqRySBmZOa+Po7XWKmOQYBjh5xgQKJtSAGVocZTjparzmWvt0hg4k8/qzBoOHZOB+DCsE0cT15SMA2Zz9McTFAf7KCe8hvuos5m0Fyj6+r51VQBlGSxHg0XFjdqwzJoDMz6tXqDO0E/JI4/Qixo/r1zNAFyjzosAtcxEfYySaxaVKZcVGvRKsg08uO/JumYgi6AYOhgyDaXYhsg+6xR0egY0fH3uwM8Ao7y6IVAiuCuR8b25wR3BroI5X1vxvnPQa0stSVtRZCjLvpgM3Y+LCovpGPVigrqeR6DmdyS4ylCUOXq9AYq8h7JkwFxgPufrK1QspodORwCpIcjsoSh4j+SoeEGbXIwKfwmGLHhv81pUWhu+X+A5lfhQeO0EeqBjUTCSYBaXfFHNsFjMUfF8BXYJQq3xyPNC65IV/A583Gqds1av4loKumnNDDpaMYRAoAsmGapK2YXYISUeUZZI13yZnWQG9WSg+Jxmtb5Wut7CFEUPs9kCt991L17/3e9APthGnacnIuk+lgyF3nNcYvjmi49/Nr/Rkqb/ufsv4Z99fBejRXrMGBEWuHWrxBtuP4G33Hsap0vL20TetixBS046Y3fYSeHuMZY1ZSCm9/WudgNOabWRB4NByqi5sc2nUyymE4GDajHUZkoQUyv9SjQhw4ipYp5TFfUDZ7gFqt4JLMptXJ1MsX/tAuq9y9jI5jixwc19hqaaOouTMI471QI1AykDDebI+Pc1A2nUbAUivN0STDEgSEbJ89ImmABE0LHa/M0aeKVCLOnNpa11+/t4E62rCvV8YVFf4cy+Vw4koPNmmYR4aXMMSjuSVTEJAQoSM+KLQ4FcaAS0qYaALlHc6UqS+udGmsocca0TDZ2obm/i8a103EThm8ep51MU4yH6w2vIJ0OgmiJrGNy4GRMc9FHx+zIoEexFpsdNm0HNQHRZzhJoaYsOPAgzwlI0uS5PgAMHs3S/qz5hbQRBR7AmDGwWnjrwO1Nm0PA1VOmBQV3BzEzHktVwTmvoVAaoBCqCC4UuU9UiahKroUDT6NpWZD8CjDrcxIXTa80Q5SUDP8+PAX6OajZFNZ8gE4BR2kyFqoJlXvTQK3so+ytaQwblxXyMZrFwAAw+xcJK349lbmDhkzQATefMtVdgX8wj+w9goGyb58dSETUifdVLtI68fjx/ZRHpvQQHBigWlBKAlBbm8v1lD4uqxoJAmElDACwyQmLMOiVCCzK9Pi7NcB+YR7DnY5M0Sek6pT3Fq0v2QCwgwYGAoHEPwXxiriShrTOcvfO5eMP3/HnkK5tmzgI0Hy4H+mE5Bgh/NqPpN9m3djbGDfcnf+th/NynDzCrJYFC1oyxhgw/+opn4023r2O9zw0vUHKi85X9d5cklNDBKDzRYgkaKO33pk06UFnRkR/+K1E+M+d6PMNsOsZiNkZVj9FU3OgO1/67DUY6Oj+j5ibAjbCPplzDrHcSO5MFdq5dRr13EevFDNtrpFC5ec4AHleMcWSODM4NaWyClRo5M8tWEBkghFmi6E+DHwIDZiwp83QMMo3NjTBR8d3zVSCKn/T3vCLcTMmacL0JDMqyQK9HMBOUcptNLWvJChLR6aBNq1PCuU5nEJtdd+m7G5+20dzisGWItb7g8X8YUSNL5IJWM2TDffQPdpHN9tBUMxQqEWXIygHqjFkus1cyFcsOE641s1dnrUmr4fuRrIkgLTtZVDZg0FWvQ4A6AhDfm6SL+VMwEBHwxPVRUFWZhsdW8VlBjYwFwZ4D1ULZbUFWI8pWR797m9WGyNYZcggPU8lCgZC/esYDBJ/8FQHK0oek43DQlQ6Emb0YHuLUsYDBfDK2ikDXJUpMDPTlCvJ8Bb3+qgAaWQM+M2IZUnlMwdH3yFIYGmIIrmXZQ04lZl2jqhYK2AuyG5LxOztPH8nPS4wHqX0yAFxHdmLo1iIAIugWu1aLweCjTtarKPg5ZC4ILkosWDqce034I4AdJUj9njQl0s8EIBL0rDCvZ1FyObQxXXeLCmypdMbgb1bELKH3kmXZokDNPbEBbnvBfXj1278HRa/3RDf9MUB4whU6fsE3xgo0wM9/7Bx+8qN7mFaFNtJbNnO8+tkD/MB9t2KdFDLLBYoMUfxnoFkCc33P67p+OwTCjR7VJThYvrdO4qIjK6fSwrxCNZ1hPhlhPh+h5majbH4JMo4ChWWg5SZMhUQPKDcxL7cFDnZ3r6Lev4j1bIrNVVL0MzQEB6E3kNJe2eMCtQADgQEBgmnjZSS3cEqagxA8uqzA9zoDTRkv680CB4my7xznRuDAOyQ350psBt/PAFWWLC04c0osa1v3VubfrZEuuyiYSR4GByH8O3qROl0M2vgZTA+xqCGUO3KtuqBCm2x8dwnyqDUY76M/2kc22UUzn2itVY4PcEAQxyC+IHuQgKjq5FrgDjjwByuHVdDPHJQY6JMYkGtf8Xourxe/PwORRHoiBWq9RxlvtHi6rGBxLplqBhD+nrODg5qHrGTlOr55R1yZdAVqyWTQsS5Cegll9gz2zKwdmHnOFbUvEXDjUw0OlL2bCVFQLPpiU6iRaRYTVLMRKpabKgdRtekqC+d366MsAhzkFaZk2uZTLOZxb0tb4++h33lcBXTfNxY0koEoVQJYVAuxBiwJMFjzPhQrpDVZsjUEE0VB9oDH5PNmTVFFYL8gOGDQJ9ggC+QOmpKgh7/EHLj8QyBMQGIyxQmEGYoou4ipINg3e2BeqsKCDEWUPHT94v45uj/xe/L5EWBWlcaMw/J1FriyROn7Mcf2s2/Ha976vdg4ceoGUPr6rf6YQfjGCH/HZ/lYK+AdED/xm4/iFz47xHhh9f/b7zmNH3zBJs6sFjg42MOgLtFn1sdfi7kyAWbkrplW1kyJ1nPJQb353LBFDVvoJIpY1Kw4ZFCXJtoxsiL+O4NBEm4Jv1tG7oyR1CaDxIz19ymqaoKK2XyqGwct26IW1WdDUxjMQVXnWGR9LOoC83mDiTKqEcrFGP1ihl7BTcuZkTsMFhJdMrvTBsdAImW5qeK29SnaxQUEtC7e1AwO/FppArzLH+qIWAIYb056/aGNysfi57O0wc1YlHFv2QaZArIyTB4k/qcNMjpyyvNvDA7E/nbbGtt2OJ9hiwuSEMy3Toj7Dtde/Q734Ys5EfvD81+gHI/QH+4jH+9iUY3d0sdzK3qoGHRVVrAg1s18zO7IxDBYmLpI3g/Gq8F2qdbN+ynOlufJQEaqWZm5/573H5kDtWAGIBKrkwIko4U0Dr6fQ+/mayJqu1BpQUyEWIFUu2EAC7EkqWdqJRh0eDMkql1BLQJ/UOJiJiIjT+UB1/9TXZ0ZtZkDlTIUaCeYz0ZoZmYCvNx+rpSJF33k5SrKQV9liNlkiMV85Hu4pjCVa8UMODETXBezJ2a4CmXzYm9Y/1+wrDNVqYzlBYFk3h+F7+pCXSFk3npiHCQGpaYiykJcg2Y2ke6AJTqWDrjGvI95HtRGpH2AZYf5fIGK1y1dtdQurHJcACztLamIZQBH8FHx+e3wW+neTeUiAcC4/lpP6T1Y2iHI6iLkdF0J/DOcuf0uvOqt34vVza3HFSZ2t9pjgHAcer9BVyBCVt3gvR+7hH98/1XMJWhq8KbbT+JvfdtJ9Hs5prt7KIcjlNMJsskQ2WSEbDFDPa8kFmLQBmuEKfvhhipFeSnhVcMNI2qYznIzND3+W6Hactbro8mZ0fcAUnZ8JrU5O6i01DxpesvE2k13QeVztMIZG3DTId3p+rMqIRTYSbBWUscl2lp1zVmFqYDODDkz2myGoljYUCcFDQn2CBbq2FhTDT3Bjg5jEoponwIBhQN9lw1wBu6M50Y/rfitU45IgIG0LoEJ6fBer0TZY+YXYCuo9q5nQjeD13+rhcwb3tFaqf45wFliFZIy/nCaFMAigYIACD7mYz8GqrlrQWYox1MMhjvIRjuo64nBJev0OcFBhoqZGrNOMQdF1P5ZN3ft3/eSK/yqNUv0acW/xG0l4YZLVPWC+hBu+nNrEAQOlllyyhRVjgDXtWcKXwI6BgyXctoAnGrx0dtGdsBdFgFy296dEN2ScVA3BWnsUMhLv+FaP8tlYi94n1TWtihjDUFoasOVjkJlhRAKz0aYzQ5QzWYGOOo4saBP4sJ8oOeq6A9cVphMUc9HEtQyiDrbt/iS72Gt3x0RKSDm1jhQPDljSYDMFbU4BAlm0vQs8/kNTw2WBCh+5HHd2mrYpwBMcDabYE4BpZ5fA5pe0VcpgVqFouQ+0GAW7IT0Ggr4YVqlNeS+wc6BZFqUbjqLR605OKIvWd717b1PcMg1ELhUOdBsBsseKR9ZwmE3BK+duQ1v/L53Ym3rpGHm49zvxwDhGzQkHp/29Svwz3/ny3jfp6Y4CCHzO154Bj923wmsFjVmuzsoruygGO6hGe8jFyU8QcO64HyBjPTpbI6MNXE+aHxqmBFwgyt7qLRhuDaoTgdu+mWBus/OgUK1ZlLK6A1Q98qWuibt2IrCon6v9kpuWCQRi0yOjq5NR31aG0lkUgEOmG02cwbqXLVO7tXVnOrtuQIAN5SsWcgoJytpqhNCRAmPuCDUNfB9BEDuPkgGTEc7MNyuZapSmgNtPC4rJOZAGVIEtxSc0hW5EThIf8fNi8frCRwUBgch0DJD4A0zBf5l/TuOnsBBqn0f3d1S2aCVliRV+KGtzpm0PA2WzIFf8dgAgd+BraIUHxbjEXoH+8jGu6gXw2hGZUYYjA6vW1lKGT7PMkxnC0xmU33ofMFS0C76/Z5+EWTt7u1LnLm2tqrSw/bJLayvryoIscsjrxhASadHpwip9846ueuACn8zAu7IIOYlC8Q1D8o5WC++BsziVUpjBu2atLJRoywHRVELBA/WopgG5++FGDP+QaaJrT6FWb0X1cybAQ/LBA5mZisIVlhWm82HpuoXIewV6ClR0N+hGKDoDZD3zBxQxDufDVF36HOXNgwC8h6Bh5kHg0H6SfAaFFpDggMyB+ogCMYkaR3U6ZJxTal1IIjhdfFaWDBKcL5ARZaOHUbRwcEVkG9FsYKS50umIjM4YAmN5RZ3H4WAMMABGSZ3vgbYlYbC10LdSwEoUgBP19P6XosauaapjZrPp0E89wIzot1yRPr007ffjW9765/DysZae4882VhyzCA82ZU6ft0zZwUkoKvxsx8+j5/8xFAbD9t6vuO5p/C3v/0M+qgxu3IZ+dUrKPZ2UO8RJBwgm01QT8Zo5jNk8wrZdKr2qoIMQlZhQUDQWwF6zD76lD213id1L0fNzbXXQ1OSOSAw8IZWS+zjYE+FMkgvKvPyDwHBoihRlTmqooe6V6AKoZyYgqR90CbNP4XyvMqRLxrVXJt5g2Y2QzVbqEzB79sUNXvblAnlvUqteu4fj3quggRLGS4rtF4MUkQva5UKNAI1BCOmKyW0FF456oaYhHX+bkeBgf5Ogjgeg3GGzMECpdrarDlIIjBvhJ0WuGjTsnsL2w1Z94kWzyAtUknAISjOQbXm5J3w+AFfwS3ed7Rt9fobPBwUqzl6kxHKg2vAaM9lhbB2rvMeZotM1/WgynFhZx+XD3bFZo2mI1y9ehmL2UzqcQa24XCM0WRM7T4GA9LSJbY2TuDWm29Br1/i1jMncXJ9DStUmoRuRCUFajWU8RqsJv8HsjFkHixrsB+BmgiQ6t+uQ5M6NyUft5h5eDFhiv+hMXEgTyJd3mdhyEVwEoFNLgyq6TMQWvgocWVYNCvoqqXQ3Sa8t3jLzedDAQTezxUZlayRL0KhDpaef++vKfCT0VNgnrHDx0BHXUBisEoJ7NiaafgarpLMqqNk4MA+dbdC61EQGg85C7pLwdbTfI6Tt0S6j6iR4DnMMJ9P3L0RnQQ0xdK5lgOxCHzu5hTfSvxoPYquBttsaSkthsNPnMuP3Z/UXcL25iRcPSxerefWrQwG7qqQf2iTOiMISMIoqqsn0joV2DhzC173PX8Bq5vbYaL0JKmD9hm5TpX1zIkDx2dyvALXr4AD289+5AJ+9oE97Fc09anxtntO4y+9/BTWejXmly4Dly+jt3cNzS439SGy6QT5bIpmOgNmM2TjMZrJGNmUbWk16t4AGTM7AYAlZSman9SgGIMSNf1/SeVyY4je6EieVK6ggE10q1TqGeqyRNXroer3UevXipgJ+taLIlTmE21skbFrg2ECN6+AycKahelUlKzkjNwYWeZY6aEZlMh63NRsspTc17RpcwOn+Ev1C64aN7kABtHW2O4pEtYncMAMlOdvWvm6jD4F5o7OoAsUUmlC7V/1QvMGSH9LyCVDpDQzYPnf3lEly/dGqtbDpO72pqb/7dbcjTDU+53ARnu/LAUHh6oMoXDQyx63c0FzExqVb+hvUB7sohkdKPuVIAwZposGj17bwfndfYxmwP5kiguXr+BgMsNkOsWEff15IbaH313UeK9Af2Vgz0OyE1Vk1xmwtbmC7dU1vPiuu3DHzWewOeijXsxlWCSGQEEszYVg/TvEfNQwhPeGygbkIBK9LQBmP4DwgnRJg/XvEPRJtRMsj7seoqIT7X1tySCVZnSfMOM1QxVpcTvDQUG3jBq+jk2Knq2JE7WGphp76jhQoC5WkQ9WTNXTNIxAQuDA3Tdt1l/ytfxlUaHcElXLj/ZWlgXVRjvFnMyBGLwEiH1T2F58EC2JBmmpzVO4ScwINTsEB2Yf0g1I1oFAq6Q+gj4OqLGIttWqnqn7QICI6YVKK6klt+szsCwt+LnxOt4wFNcunVhz4i4Xm09xj3HXwtH32XmzAJmDb33Td2Ft84RZnTAAeypR5ZhBeCqrdfzaZ8QK/OPf+jL++adYX6dHe4Y33n0Sf+9VW6L/hxcuoLe7i5LgQEKyIWqqnqcTYMJfM9TDPZT7I4BsAtuVBsxcSBWWqDK2bIVDAgM4M5Ky7yDeI8VKtsI5aCoPSBRYV9I2SH+g5KgR41D3VrDo91GtDlAPVrAY9DDn27nZqw+cx6ZK3Q6H6izgf08XqCdUyy9QT8fakBfcucsczcoq6vU1VGt9NAOeU3J+NGvB868W/G6NxZcUWMmIxxulRWuJQYiOO5n3RGAR4kkDhLpe+ocvf1eI2BU0Unip9q+m5ukGOOBGvBwY02UO2qNS/U2hnsxhLOay82K4/V139y2Zg1SqOPqSpV4hWSbHXt/VcnXeJAmJzgEomzlyCRIPUI92cDAbSwdyeTTFf3/g03h05wr2R0OQiBqOJ5jwHqO+QgGPgLLAYGNNTAEpYHsQ2PzG3jxhpad7aoE+DX6aCmtFjufecjNe/pIX4czWFk5vbvq6apPPUPaYwVLMZ3ChclHyNxA4iICmYGiHyVSflyhPE6KivCABrTtLeM2CwNL3cIdAAmdRhiHgVL3bgdERN1iIjCU5MxoEehLoUphLBoydO/NRmFnZR8F6A2oI1pD1BygJztnpMhthzo4FlsZ0Lzqo5wEO5GCo9lqae4XIUp/HzHqGmokARYk8VgdcGESSTSFj0VeLLfi8d5En11keCQQIE3UUJFRahPlSr7cmRqbKGswJlGh4hplExxScctKEPRGiBTj0EUfZA+kGxG4s2cZ0K6ZSQSlb7XCalE7IQkRrKZLB0/JmNhAssH72Nrz2HT+ElfU1u0qGPOOp8QfHPgjPiIB3fBJPtAKmBvnzc797Hj9FE6TKYqw33nMCf+NbT2OTJcedXTQsJ0xG2thrbthzbxj5eIxsfx8ZSw77Q2QHB8i42fULZfneNLlZkspkJGPmT+rRHQzKzrkhUg8gQaMHBblLwfSkgi+DsbI30s4sK5QCIAQHzPozahW4uZBGj0FAAgY8JGnXBUsfczQTbqpjl0TqBeZlgWqlZ/z+xDIAACAASURBVGCwvoFmbRX1yoqEUWlYjsRoKg2Eopk1yQ4QWKbf0R/NlkmVAShyCs+DYD7E2h8atHS4BbSbtaQMT+pt0uksacjimQaCJfp9b3IpY1SNt72ioV6X/1K0KjJ37wamJCZMqvg29V+aDF3fsxX/ptvGufPRzbE1iGlvvwiGtDaupiimI1T7u1iMDvC5P/5jfP6Ry/jCxSvYmwOjxQyT2YH0IBb5MzBSfGndio2ASKtT0T7DYjZ1770yPl56BniLA9fW1gSiGKQZkMtGFkvIF1O86J578OLn34Obz5zB2qBvDQedDwmmUjmH5aboHEmlpFSPl5gtBmdZ4X8Y8Dk2htVwaotMWpO2C4HWzwlIEEy45k20bJtsCxPZHsj7m7BXL6fWh9+bAFemRAYUpPelT2DZgz4HXDOydvUc1XiKmQSJs2AnvLY9BnOW/YoVdxSZZ7I/BucLqGOIzMFMrAuBgoV7BhDyJuDngd4GFBeacUgiYZcInc3zmrG0QA2IWkV1rciK9K2NCDtjZvO8ttR6WGQYnT7RKeKOkNR2ubz71NEShlBLv5TrZ4dozoWcKjO1aCYiUGLQ5NaaLKL1QFlceeLWO/GK73gH1jZP/qmZgxaoHDspPlFwOv73Z8YKNPiJ//Zl/PxnZhjTihbA2154E/76y9dQUOHPgE+GYDZBsZhKoERwQL0BRiNgZwf5tcvA1Sto+NqFbXbVkeAYYpoxK1UGYMkh77NGmSmbyBZT5OyEoAOgaPsKeTFA0+tj0R+I5lab5JSfSevVqVFFz8Bgwc8hA0HNgoBD9LvTj0CZ5ALNbCHmAGOWFCYScjHgL3p9VOtrWGysYba5iXptHVhl7dO0ITsXWopftq/cQMLFUJuewUtSTWlTkvApj9ZH6wZSx0IK5ke7BW7UupjuDdKdM9Kx0jtUMo5h0OtrQz3cztg9brv2ypCl5Ve2m7wK3PbYCe0dIaI+e8nWtv/dvj7AgbBGaAbS65OdtsBKW2eJYT/zKZrxEHvXLuNP/vAL+NDHP4b9RYZJPsDeaKZ+fFIzGhUdAjcGOn7udDbFfGHxoAVrFK5Rh8FwUmlNBqTSo6af6s5yl+Q8A9buNXGS3TUVBnmBO28+i/vuvRf3veRFWKPIkQGSrEOiw0U1h5FRqsFw9gENqKKVzi2H7oJxe+Ty/oh+xwjeASBaQSpFNHbRZCeHtCW0AY9glMZ5szzH827b9ugTQK3FfILFbNIaiQkcCJAzg2dJgQHbmorFiPqEiWh9t0u6tCLQJRbP7ovRJxp2xjJSF6AQAGM5rrZI0ODAYEoAjmUFdT/Yc8JtjHYXdFmG4MAtmGyF1nMp10cyQuysYGkxvmNDu2aCkAAHbJcODwoZQsmboaPfSVW+MAsTy9N257gduduimJGNCXBgIsallsQgpHs2zQ+J9ARbt9yOb3vr92vegkSSSiCeKm+w3PGPSwzPjOh3fBZPsALvu/8i/slHdzBjttZkeP3dJ/C3XnkSa2WOOXupZ3ygK+TzBXK2dzF74MZ0MERDcHDxArIrF4G9HWDCOnIj1iA5pLEO2TCLW99CM1iVCJGhiUInjIfIR3vSLai2yw2HIGJtS3Q//6w0cjJGPRqiGY8B0qnMSsq+WASCjQXrq+yOkAzatF/GlkIGEH4HiidZWmDfNjdYbiYrK5ivr6He2MBiYx3V+iqaVTMHyow18tgzE8RcRO2ZcwJa8WOq26svPyyVZctgUCAr+9bLPqyOY9KeE8zDgsZ0qZZ/X2Mm5sBtlBxR3O/ZHteOgOEMmFoUI3A7wKfNK3rrhXpCTJZ62oNeNx440ubY9T24wT10qF0yjsOxzS2uOFRqaDAdHeBP/ugP8bk//Bw++wd/hNFsjopCxKzEdDZDyaCjpNVmQzyS7Py5lmo3sz21/TXcxslklUGKa6KAGJ+eFOl29otrSPmiulTmyBYZVpBjvVfgJffcje9+21twanvDkzUV4NkGGfdKAAQFtMjQHX+WPv/CSWHJq6WyF699K6J8kYKa3hfMjQKTWoFptOVAqNclS+Je0kdEyybvKdqIB3vArFz3amTxnAlQUuTH9SgK9dosCCZUWpiGANMaA4szqf73wCt3U9inJAkLmcWLZePv6nZwacKqfwIDgheDErU2doygRNInh0UCXLYOCxxQBEy2hn4MPbVdpnkSyV55EY6K9k0JpkpdBiGyFXuwRLHJRTOVFLjCLm/I2HwJusQ89KKESTGoB0LJgC18TIz5A6gFuN48+2y88ju+D6tbJwLsGUD/6eHBcYnhODA/g1fAMjngJ3/zEfzSZ4Y4qGvOccN3v+Qs/vJLtjAoC0yZcTMo8cGhYp5aAGb40zlwMASuXgYuPIr6ymVk164iG4/sShfpJzdCBnusrqPa2EK2sYGmt+I8bDwEhrvIdq8hHx040eLGtrWNenML1dqGBU7c3EdD5Ps7ACnp8YGNY0gzl6to+hYpsuuBbWJp82WGwpZLMQfsfBANa41DVRSYD/qYr6+gYjlhbQNYW0c9cJ89H3pNI9ZmyE3R9WO1O0Xd1b3zyesw8hO9yMEhAYQ0UCdlhRKlRUeF5zhEQDoCFhJ40NAato1KIhGtjMwSdYJLY53w/w0Rl4uiSTtwVEOQhIzd27MFB9HueKOd77G0COk4SfHOPyu8B5BiaeQjH/4wPvbAA9gjqCz7GFMYyvuJWWbFkolVJ3OJUBMzE54BwUSQNehxNoJcJqk8H8j3wUCCBjvsLnB7m4vry03eeMniVrI7ZBDyRYXVvMGtZ07hr/yl92BzhcCVwE79rzYdSuJBmRG5bKHA07Gv9oTMCBVxX7id1T4HSTzqFsIOcFP2qv7aJeiJ49JciN0EGtakp9CgZTGdBUCYqOWPB1S9XwZZq8jZHtg3u8FBYAQSFQWJDNB8xsUuGAAoUEZ3hJ8bCvasQRAnU80NDCjoFdVPzQAlEC4/qDtC5kcUGttUKQFNnpfnMlgnAbYyEiBQgySnz1WVFNhKKSFkgCkPaOK5hkAzavzJyZHHT2Bi2VhAxsFlAk+IiXErSvNdWjJgDEdFleFYWkjsUAL84aex3MHEIp58zt34lje+HeXqhq4nu4bUkfoV/hwzCF/hAh6//au1AlTSA++7/wL+r48P1dNPQdIb7r4J/+MrTmIlt2EQgyH/XorzEEWxHbA52Ed99RJw6VHkly6juXpV3vn8t2Q/xwyhWVlBtnES2N5Cs7aFYnVFmXBDxmB3VwCD4KCiXenKKrB9Evn2SdTrG6qJsj8bBA+7V4E9dkwc2CWRZ8VWSHYu9AgO6JlAxiJoS/nuVGql4pxmZSU53RlLLJhVsXSx1ke9uoqajIGElGyP9NhX5ygsJbDeSno6ebAvW54OlQSizGCdogWJbDXrggPVkbX5+pp6voQpZtepDyum+Wd7Msx1PmpZKzKVFTTNMNHb7Zzb1JnQSuYiiHWYgSPpzlGRYXdz97tuIC54DF+DgFVRTfLUxr39ffzBH30OH/zAB7Gzf4D1rRMYTieYzVkOKHUvEHQya9fkTbI9Mjiyza/bQStlutJa0AwqBlClkk3KUOcSv9H2eLmOqXVO4ExzGKig92wF0uuDPFfL49bqCt7z7nfh7jvuQMVSF4GhaH9qZmLeQVpnKvyTqr9lXaLIFBEreV1wMexVEAxOMDIpQxWYUfmD62BxocApgz0Dr4R4MX+EJbbJVAGbpQWBA5Fl7gCyZwB/9ZGVfH5d6yc4EF0vC24bFqkEI1MhOyRKsBoGRqlEQnAg5orXhF0H9Izg9yFwYXuhxIg2TMo4g0X3hW9u3ct1un8J0FnSo56AmssMPWkjBupg4p/FtIghYsnIbooa6CbwYh8KAzKLag/l7U2DWZQIDu+WnRHj8exZn0PBJUWgYZrUZQPDkl0sksBFhrXTN6usMNggc0Bmy9NVn46fY4DwdKzi8TGexhUI+VoD/NSHz+Ff/t4QB8zKMuC7XnIz3v2iLazRaIhivvRA8tO5STNQzirk+weor15EduUC6ssXkV28pHG8zZQq48DvpPpXBsDmFrB1GtnmJvJ+afHQwRDZ7hXg6g7y0VAZfb22CZzYRra1rUyenQ0eujRUK2W2tyt2QoYqGn/bQ90v0VCfwNfKvIWbcBQj5ZJH515S03Te62FB5iAvMO+bPVCHwoCtjANkpVSSYfLjsgJ1EKphpxHOUSbo1pdb/UEABNHJpMM56TICVStGZFDX5hauNlpXmsWE+PFIqYEZUaVuhcqtjDTsUetd8pi3I2QopYIvSCICG7+0QT4CfdLbW5sQFGxiDFLW1LrmcSv18ZazJG/cdbFs1fQ8hr1rO/joRz+GT//B7+PcpUtaQxrlUIVOHYGyVLEnMeaYrAGVAWJTamW4niNBwZ17/cniqL4tdmYpHGQwIevAtUrMg1rUbEvkgToKXjFOWMI/169XihIrvRyrZYnXfOvL8b1veauMvRSz9HlxlORXENbfppZbwUb7fPKa+zxiHkA4JHq5O+WbMEEiq2U75gBx4eLnbJksUUwaZeBkK+N0gsViEuWL2mZGpPcV9JmNs45feGjXlA6J7NChy6FNllpHQ+oNCD4SmyXA4+DLNkkKIAm4+AxqQqnmRTA49gQOeC09WTExB77X4mZRgJ/TU4SsHbU+nbZQlRVYYhQLZnMzgglNkSRzoLkRNqZSy2RrUhUi2zCg4qK5FZGi4eXwsk5RzaUXlUJi7RtbuJttODx4KfkrJIEvO3zOPOd5eNnr34be2pa+GpmDDjb8ivflY4DwFS/h8QGezhUQwVrX+OnfvYif/sS+Qh7r7G98/mn8nVeckvhtMY/WplCaMYtSaYE0I+v/V6+iuXwBoObg8gVkO9cAOtrNZW6sTaNeWUPOcgLLBasb6LHTgP3MwyEyihl3d5DT4pVCJrIF2ycA9hMTHPR6Uks3kxGqvT2xFQXVzNVCDnosKUDlBYoYe6ipdeBGp3kKrvsrA63IKORY5D3MMwIEoCobVIMeqoHb5Jo+N7soE7A3X+OX3RqlAB9jlM0WHDZMSUAhBdA0oEa/h/4gDbdRlpUy0JZCsB8CgxqFh4mRSINqRD0TmKnG7vkKoqqVTUW9u82mlnXalIEeLRGYLYiAHxMQjzIEzrSX9fHrPBo6o7vTfdl9zXQ6xa//+q/jN//bb8oJs7c60HkP+j0csLTA+yjnoB0K0BIFz6CUYU6zml6JVbI5DJDKaG10k9wiGUSSnwQFbwvR3hb5Jd6EgU5uiQqKNseywM01eXomMKjIVjlno00Pm2Ufdz7rLH70nd+PzZW+h3FpdkPMDxC4i7bPx3kg3bFigZyufVtecIBKnRG87g5SBuI61+jrlyV0UPiizAkU2anB6aQKtnF8XntqAJjJq45vqp56DQoXNahJJQF+hoWEbB9UeUbDj5I7pFeODALXRZ0DzMgJDsKBUB0VlLiyi4IMhWYx2N9ATpDpJwYnzXi+/H7U/YTpEK97L6c2gmxfAF3aZ6tVk0wZywoxHZWzF9IaSteRcLDubn2ahp7FsKtlqWFpNCY+7Ui3kPaDTlnBz65Zv8R86uBZjbUzN+PVb/1z6K1t63v2KHx+mpiD9tk57mJ4OsPb8bG+4hVogPfe/zDe+8khJnIIa/CWF96Mv3zfSayTOaADoup1DibcwChKBJXjbA3c30V25ZKYA1w+j2x3B9mYfdGsF9I3H2h6Awn9FPgH667bMrAMR8gOdlEPd5BTNMgWxbUN1NtbwPo2sLLijJib7GQobwV2G2TMyFgPZbsVs9CSBklukWT9VMyB3M/Uy2dLW/1iHbUQqKBwkXOm6ARX9Qgy2DLmsb0a5cPvTA95BepwOtTGYbW22xKWmXT3OgiUSDzHcoazIZVm2mwzBZYwJlJ0jx7rRHOGMySDnZgDtZA16OVW3psWdg3cYw29UarBsE1kHYSSor57jt0M3/XzVqFgQ6kQZEWjXiv+8qG9Id9IrZ2OS2DwgQ98AB/96EcxGo2xur6h2Qk8Z/LKk8kksj0LLp3ZuV4tUyyJDPucuuA+f6ru5Qjo6YAzihm1Jj5XmUQpu7cykt0ZWla9IASJ8nyOVkFZ/LrEw04HrvN4PsGg7GFjsIr1vIeVrMGP/OCfxx23PgtlzhJEZ2RzW8Z5nCdQ4NT2xhYY+lq0DFKUnsgY6bvI0MOjjK0lSdbJUcuXeJFlgqnGNZMJkGIzbJnVFshAymCrkcu2DF9MyTZYC1RnLN+QjWALozUD9FWgW6muQbKzijIGARgdCzk/JWsmYYLk3n+1Iqpzg0DDPiNa8w44EHVP4CYzpYlKE1qPnE6fK7rWmUSX3hP4zIg50BRHPncM6h5TnloY1el8CMnauEpdFV1k0LI0/m7Cc+FAyfO0Q6JBuRiHVIoKc7PW+TPLcPo5d+Klr30L+utbum+iovcVb79HD3DMIDztS3p8wD/VCog3q/GTv/Vl/NynqWQWi4c3P/8m/N1XnlB71mzm9jnyq3o5/4eZGTc9diwMd5Ffu4bi6mVUV86jvLavrIYDWzwXPYbJMLPos/vAfgd68CczZJxJP5mgZHbdX5HXADY2UPN3Zj+USFL9z9ICa5YzC/Pm2kA9oIcQRK2Tyiqc0Wtoj+SVVkt4W8jlxjeTvzswz2oZIZFZtX0yMy8LMANeeE0ECPhOU8xJEd31JTgEDqh+lquih//I5yF5+IehjYdC2d45TjgmQDqQ6WNjs2rBgZiDHAM6JPYcaBw4U6COYTeiiBM9He2LR9KcFNjThMNWqZB29rC4dQ//0jSpO7Y5icJakBAdBDxvMgbvf/+vo1/20aMyfnWAeVMJKPR7RbgOJla8Qsksl2I5+Q6s6FqybCKGiLQ4hYbyAqjl+8BsVG2UfJ1mEPC+couZe1G1Kr6lFaBd7+f5q+6uVrpSgsatrS0F7NF4CBY1eNfxM7PZAut5hr/6rh/F829/tgY4MQjqe6dSjBc/KjqZy1G8X1Nk0fWN2RcKyn6v1Q8W0bUDujSCPLVcsrvQwZZaCwFAfq8FywRsYyTbwvr9VCPVs5xgIFwe1anQQ4+6mhATEqxV9YHBV06HTQb3FQV2BmbqM6OPxSAt8yRQimE5s4IuiUwKlmUls1Z0NlSQJ1DXmvCp9zhqPUfUArAdMrVAi71gvd7+DW5nXDIHEiMS0FQEj9E1RJAUDpTJt0N/5vMj0SM1Jg7ukfq3DIxYIVlPhwdKzHRQztCOV48haTJRCuYgnim7RWbYPH0zvv1t34fe6qo1BzF06k+17z7Bm44BwldjVY+P+RRXwPTZ+z56Ee99YAej2kHljXedwl9/xelgDlxWCFdit5DJP4BK7jkwGQEHBAhX0excAfZ25UlAASCzBIm5NLClVl2Tm4LGN9O1jxsGaVeqxgMc0Gsg26DfwCoqZhSC+LkUz+qzjg2UG5E2aDICuY/tTDHFWsIEBl9nNOl3Tv2bUeTHIEOKk5mUEguCBA9eSrkPQ633Cm48VmnLECmy/BTAjy66WqMCHLgc4ENaMe3peUl93oKD1MgeZZA0CTAJElNmyeyVVr8sLWj0rjZyO9VJ6x998mYLgr42eWIQEQEzsQlJQKig0YbT9KplL7cEYMoKl1yqXt8BHfzvg+EBPv7AA/jwhz+CCxcuYm11TT30tDmes0xT03F73Io1eY4MkO44aLC6thZAKldAEShYeFDWXEHGkwid4zLIcOO3et4jlcOB2P2DLZ8igR0Dr9r3rMTn9VhbX8fJm05hNB5jl2UrgkkaLU0nmI6nyOczbPf6+PG/87dw5sSmyk5pzdN191ouGRvfJ75XUhrdZQ3skmiwzbJD8mJQC7AYJpv8CPipXTXMxPieOZkAtjJajMg2QwZsDlxSOYEZNlml0GmoDDFlxwGZhnEwE2QNzB5kWR+1sLNr/mmksUaMqdPA14DPaCMTpTS3gOfnsgJbJ/lc85mscwMxWg7rxpeGIK6b2iINfDNNYuTQJ55rAK7wHaA5Eb8b18ZZeox0Ttbeh2zILSy0O+KRnwj+iTXw78n4eiketXAyDUnrjGIPlofH3Tp7G17+hrdilYymSkw3Zs6e4gb8mC8/BghP10oeH+crWoGf+M0v4Zd+f4J5zOd5+wvO4m+8bB1ZVmI2Y9sRndTcAsaNWPKDYA+q2QTZeIji4ADV/lUbI02mbiEkONCYVwZIto9VKKJ0oQaveW1xox7rXDa5s9VVZOvryMgiULhISaD2GNebF+o/b6xGD92hOplZr2XbmjIsjv7lR3poCrsaeO4V+phxHO+iwZziJbUpxpjmbKbSiRXKsQHGNmdq2qpw//fSWOVG7EEyPkoZIUXXctlLdVONI06VidjS9P2ksjO93OlckKhMroE1ekWunn5lsDIL6lD8YkvMqIjG7mS3KeNvWxuPBHUGRXVoiLI94nfQ0rOevZDWvWt4JHCR53jwwQfx73/5lzFiN8J0gbW1dfvns81U4IVjuBY4GO7pHMt+H8ODITY2NqQpoPiQWS7PYTa2un0xGXlIljAcNS8OP/w8agTY2shvTgDCboZSLBI3fLdSOhhxSihb2Qq1ziVgSaZisLmmY126fBWjCV0XPYJc9fbZAvlshttOncT//Lf/OjbXV0K7EG2saR3DKVH3CK+tAj0vo30IkmFV1yEzqfmlt0i1eJ6zzJrIbDDQx3iruLYE5GTcZrOJjI1cuuP1IsVvm2nOK6FgsGQ7otZvhjmHpdU0ELMg1KZQA/kT8N4wlozPlo00aXqCA5og0ayslmaA9sQJZNJEScCAQT6jVbrbAwkQwGFJagllxw41B+GqKt8H3p8GM2q5JNBVGcMiTpcW2K0w13EJQtprGOUctyT6vPm4yP9CTMXhrdDswPKe5iRMJSeJA0nPmc512S3UfQZ4buvPukWzFfqr3BfJHETnxFe08z7+m48BwldxcY8P/WRWoMHPf/Q8fvoTBwrCfGxee9dp/LVXnsAa+6SpLVA2ZspUD2TUeSlmZJ94zbbGMUc5cwAT3RRpMkN1PTdoOwsy69DfVdQs2As/0ZiJPqeYMKPOYGVD/c8sK9ASWRlJ1PFJ6S+Sst2zkdtsRK1QKX9QBDO4cBMmW+JyzCJTZYsmW6ZYt6WXQZbNFWy1F2tcs70KDAZouuPpba3FagsUku4gdTNYCGkxpLUHKimoHTSZFi1bGUUvtxlO1PrVtBAKajIczJrJskQAJi2vrE3DfA5rChz83SngsbQxTElfaCkWa0FC7LD657Z9M6JFAgJBi6e7SXlvGtkc2TnztkfOn8N/++D/h49/4hMWEVLct3lC7ngntk9ifzTGeDLUuRMckFWwViDDKttdqQWpK+yxKwUNphzoFaPAndGSNfE44ZV+KR+OtZUVCReLkjoMtzpSQ8DgZwzra5a6Q+QlxVJETAXty3Mjw2g6w2g6xe5ohP3hASZjuhA6EC7GE82FeOO3fSve9QM/gNU+uy1amsUOg7oOwRYEc2TmoDNXIwyGknmS7i0Fz5iWeESfYCGms2rOJBEkonW0fA7GWMzHHiEuiUK/DaQU8RIolATGFPfNJ2Jr6oqgK9lSswzhNkLX0EJtEN0bPEd1W+j9ZDfYsUDWJp7ajFqNPnp0WAz/B7foppHVvNeig0CCxJjRwOeCIDkrwbU305G8ERzoyRCR6bATo22hdX6hw1hqOFgLIUvH5+wxhi3FTZvu9+R3kJi9BPhF9KhlNsBEvC8Zoq2fuhnf+sa3YXXzhNkoCRKfZkXiDbbrY4DwZGLY8Wu+CivgAPRP/vsj+Le/P8OoBnp1hbe/+Gb86Es2sZJn6kW38Ys/XpmlnyjTpkQUpBw1vnkqwyGZJUkxbgUxOxdofqI5CgqWnrdg6nX5MEoIR2Gh/AZW5FlAY5WFhEoUDXleu0RZovdpo0tjJgu5eFyRmiFCNEVc2pNeYsRS7AjHwjKb0aY842jYGfLMDEKhbDz2dLXY2SmPHhAuLyyZhXTuXhkzG4EpQoToVjsp5FNAZYDoTJdbbk7LeqniSawRvx9/dcGBRjb3HDREpyvAx/UJxsAx3yxCMuzxy9Kg5bYU3vala9ML5sDv62x+R8sS8X2S+Q/HJ/+/738/HvjkA7hy+Qq2trbVrrixuSVb4729faysrWFvb09zD0ajEXb3dnDbrbdKkLhCnwl2KcxmONjfwf7OFfSY/S9q9Ej/D/rY2ljFyZMnsH3yBDY31tXJwG4DZcH8qgGadGOp+8FGSuqXZy2cYBaFWCVmxTRhKlcH6K+sY384wcOPnMOVvV15MFAwKT0Ay10EZosK26s9/Ng7fxCve+UrFcXSPABdwwTSuC66t+1b0Ao7k121tDIxXTB8ANz7H0A0rps6FAIc2AXTRS6VICZkA9itMBb7RcaroPF5mkVRcioqs/nMwV0sAxmRqRkXdWl4VDInXVrQGGxFlGdU7iFbxWdNrbSer5DAgWZe6D5kaSLMoXi/sH0yngd5fUgrxHvYk1AVgAkOqHsoORzKHgnpx74IZiukvelYhKulM7EIHU1JEqR6+umNf5Jzozs/DMjbtscOe+BtrXOcYN9O3Pxs3Pf6t2KFJkjRufK1AAd6Zo+7GL4Kse/4kE+4AnxAfv5jl/BTD+zbXAYNXnPXafzNV5xAny6CtEyOmmdL0UZgUOd3ZLgKoDIbcj++8gdlwEGTR4DN5FKafAVjeqJ0BA7qzI89NKavkc7qPtCGbqMYzaenMUsac6vjU6RoH4MWaohHZ/uixYiJQWCJQaZCM9LGU826z6opymwuh74it+pdKVbSFzCoaBRsmtZnS1zvgUmiJVgQmClRlFZBmzlw3p7W0qN70yE6hj2p5zoGzrBm7FkC7sfmhsTMWDX6aM1KtfUECFI7WVJ0awxz1wo5tYMFqljqD2K8c9IqdERq6UbSsgQWEXvAZs/FAucvnMc/+omfwHgyVlA7dfIU6jrH+saGOl64yZMl2N8/UJ2fIIAdF+sbq/p7HOh06QAAIABJREFUZqGj4RDD/QNMRzTSmqJPs6cyw4mtLZw9dQq3POsUztx0E7a2T3qOQj9XcFH/eqt/WDI3bEXVuItoaWX2TDtwzdwsCkzZClj2MJ7NsLt3gKvXDvDwuQvYHQ0xnrEsMpNJDuvu8jyoGrz4rufhr737XTh9YttWyjGLQURVOAwKUCrwW7zq4M6SBktdSQviGr9KZAy6MQ7ZSbwNlhTIwtVPokHqa8h2TSd2SKSOgPd+dDWojq8OAmsBZGo0c71/tmBZYaZ7jsyLRYB0FLUGSNqNACRJbEnPCIJ9g4NgDvRoeK4Cywm8hu6soFcBcY/BgcuAAeTnZujYgilwIR0BBz8N9H4yB9wB/Aw36o4gGLGgeTmmmeyQuiuSALTVDqbuoATej2x7ASQS+6RyW5QR2vKdSB/zjgZArTJXn7dy4gxe+Z3vwCpdXvksf42Yg/a5OwYITxjLjl/wtK2AAzSfm5/5nUfwS58dYVh5k+XgpXe9ZBOrZYY5h8EcEZ5ddwp8WMJ/XgFMNWH/iNI13y+K3QGVroNtrmD6naJESQ9I/2eqC1NkSKOSVLtkFulJfFRRsxeainWWFcyAKLNqW5ncbuXap2lJlifmFDdWGaYT9n5PMZ+NkFdT9LBAj+xBzr7xNM0tqRstSGwnNAZDkLQJgRGCPXD0TNPr2jpmrHYytWlT/XYx3fKoYzFjiuxFgkSWQNRnbnGoMjba30qDF2ZEEdBlrRSbp0CBK94hmHeWePjvonAbr2trrV3S4AYahHbTQoad3R38yn/4FTzwwAP63qurq1hheUh0TtnqRRhECBYefuRhnDjB7H9TwWw8oe//DOPhMEoJM/RQ4fSJTdz+nNtw2y1n8awzp3HyxDY21jdUOqAyX6wJQVJiDoTnAoil/6ZDpT2zRcFzbckYjGnuI5Es73GXbh45dwEPPXwR569cxZCjoxlYOT64sUMlLcNX8xzv/oF34rWveqVGR1vicaRdtFN+koOjMmUPDAr1qLsZLE6QNocaHZkghT6B5QSJ8cJ/gABADBjV/HwGJiMNMrLJEu8Fz0lQe6J8DmwVLBMj3udzGpORIWNgZssjM3YG9tRpkSZB+s+8EwlK6W/AtmS5LHK2Ah0co6Slz2IrMQ2e2P2gGQ1+L8OskgCB2ylmi6mnQso6uUCvWJUmQpMdBTDY9UvHQjMVNl2SitdPjspU0bVgFLwE1xHQk//FIY8C3+zhshhtpBH6k0YhlRNaB9RDRgmmSjmV8WWveTN6q5tf07JCd689ZhCetuB3fKAnswLMbN/7kYfxLx5kRsWOvhqvu+sm/M1XbXGKuhXm4aX+eMfztpeCv/biVhlsrwEzA8ooQqtvcaP/pGBa0Z7ZNXIKx9hmqCxVVB/NUbjJsbWNSm1vOuaNg8iMgGbkz7SX4ECd8gIdHPIzJYtQFxiPJ5gPD1CN99S/3c84qW+OjHOeI2tQlhzDWFh6cI1YOu7OUiwpSO8p/myb8dipL00IVLtgDKxZUg+HQVJbsgldBTdBulQSFHlPNHPAboXUM580Bmm39GbaNelJjnIqHBy6jPqbRC2nTfdo22NHc3CUSmW29akHH8Qv/sIvYndvF9vb21qCXp/T73JMxqSIydIssL6+qZLAF7/0JXzLt3wLrl67qhLDlStXsH/1mrpfWJoiY3XLs87gnrvvwJ133I6bbroJ6+vrWBn00aeALc6PDJMobWbK/F0Mga8N76NApG67FXCMUhTbAQk0+XdFJrDAGP7QQw/hC1/6Eh45fxW7+0MMhwcW1NUVphx9zKFB8wp33/Ic/IMf/3GNenarriOQau6hL0n3jViLxPBIumM2LAlZDWYYEC041bnnZkQIbjWdUXMk+HQxQ+aExKk0BwzYvvdNt+u1EbBVVqAIl8GZdssL6hNmKquQMShoAlXSNMwMlvwyut0tGmjqTgqXDeeYEWDw0+SnEPefZj8k/Yu7i/jdDdRddiQoIHOhTpPwfNDkSJUWPGabn012kPuRLJ/ZCRXAit/dbZNpNsIRcBB7SDI8s5tp5zZPYksBozCwanchi0elWWh1RB0L8ygrrJ68Ca/6zu/BgDNYeGW+yt0Kj7XXHgOEJxPVjl/zFa5AMAdNjffdfxm/8OAexkxymgbfee9N+NGXbmOtx2C+rE2n0PeYN67+IXmZR34aHQXBljt+KbuIAyc1eZv1p74714vZlSCKdlGpNs0NRipyZlCaEhethZHNR+6tercBgtsZlWaXq5iX69oiD3b3cXDlIurhVaz0Fljr5+hFSUEbu/YfAxmVUziNUtmQM/i09yxnx7dfTKtg5740QCgpORkcom3Ln9AupT4pISEuuhbem1yyT5YBVYxstjjLosNltp8m0YXeIE3aa5kDZ4XmEloKYck+xFc4JFbsvK7lIfgfBHZ5ji9/+SF88IMf1FAl/qUU7BT7ybRogemUDns1BqvrooSn86nYA4oRCSxoZnSwv68++j4qbKz08eybz+Le598t1mB7ewsr0YUwIDiIcclkIdQWGyCI60Aw2/2R6wWpbV4Hic3SlEVeQxsNqW1xMVMr46XLV/DFhx7Blx+9gCtXdrG7uy8GQRM8k0vmfIGtsoe//z/9Xdz5nNtkjKT6mfwgkhYnfC24SDGXwRM0l54UFq26vz4P7Yy6egIcqDwQEyDldMjvQpDDsgKzeAKaBdkAsnAMsD2VStz+SMDk9j+VpSZTVItRqP85E4EBPQ1MCk+CNGysUxYQc0AwIgOjmcef83nUXAmWc2JMNBkAAaXUops6Obn2ZB0WmFcBUKJVUzMg2MUiYMFjsfu5VheR2yfTaOiYrRA20qk7J27V5XPYcUNNHQotgxDi3DTx0o+AwWM86WY1CWoE0JLBme8mgrmTtzwHL3n1m9Bf21SSI5+Rw7fbV7gfP/m3HwOEJ79Wx6/8U61AqvsD//S3HsG//iw3QW6wNb7z3mfhr71sCwvVI5/awVNHQ7CVbfxL+sUnc7TE6inrUqSVgkzgYMZWM817Z7uZsy1n8l0xkovlEj5qvy69W5UrqPrbmOYr2N3dw+75R1HtX8JaOcaJTWZT+rCAOFQnRPap+jFNkLiBhBd75/MOtzMGhyIVeprJEG1vEaSZMfnnsOgvHUcdEYGmeDRS3m1ZgUx6qPEFCqJ3OwmuhIlaYYCzu2WwT+DgcI/2Dfv20xkm8JHOvbPMpPdpdvSf/uN/wng0UlavMMmBXbTejRZMgrlTp87g4GAkf4LNExtYWV2Xkc/B3q4odeoDegVwz3PvwKte8XLc8ezbsLG6at+CXiFNAu1++d1Zo9YEQJUTbBMs/UWMi5anAX+pxOUMmNS9LHzTxh/3tYfvLCRAvHz1Cs5fvIgvPvwQLlzcwZUr+9jbG2I0sz8A7wfVpWcLvPHbX4W/8mPvVmspMQkDpdrkYk5EKgvFZZYIVbS77qloxQ2mQyOMY5qkLROc4TJ4ptHTmjfB+0ImQdYdqK2RYFVe/xYGlrQj5ndnsGZZjvV7PjOzPYEY+UPkDMxue+S92N4zquppvBr7DHTfsZRHXQOBCFkK645iEFI4MSbK32Ws5QRJd/3S7ZBMDUs0Y7VsuuuExkm2cNacEM1yqDU8aaa2XX8vgyVfYzIMqYWxu4+YsLPAMLEH7b9H+cGtpDHKPTqE9LQrF/EzywRE8xy6ZQU9pg1WT9+KV775HSgG67rGfeofOtreJ7OvPZ2vOQYIT+dqHh/rhivAB+sX738UP/fgEOPoC3/D3SfxnvtOYqX31MFBEt45814mx4k5OET33eCM0uadUEVbsw9wMD8KDlrHwi6PSLYg+bhyQ7eoqc4HqAdbmOUD7O3sYe/iOVQHV7FeTrC5RgW3ZEqxN1B34MxPdjXSVHDjSEBkaZ98GBwo1XA5QWJEm6ssW9rchijnNW1qFkBd186YBj0ly9xgLBgsZZ2cjGDC08Cxm9+xg+biAiQA0SEqDoGKRNP7dQYtZiMSfZs4A18VD73M8JnPfAa//du/jfvvv18ZdJ+tpxLWuX1vtpiLsk/KdgZH/tupM6cUMKgxmI3HEh5uDfq4/eabcN+LXoTn3nk7Tp88qQFTqrlzyI3a8wboSbGey2lTJQXyBRIkLts3JTiLdWg997nxL0jDL286ueuFC+BoNFRZ5OKly3jkwnlcvLqH8+cv49rOAfaH9Fmo7CrIFagqrPf7+Pv/y9+THkJjDfhv/A+ZX0V7bQoyUrd7RLJVPVGTD9vnPDpSbJ/s8oR/BXvA9kBNqbShEFkzGo1xKmPTzMMoaBAlBXqSRAcAgQtpfdqOc7YCXytwwPvHug0LZG0gpTKVXCTZHRTujTJpcisjOGNC6+dSh8ALwZoYDl8PC4ijJVAthtYPzOVwaUtklvnSXAfO2pCGQVqjWmJECiHlNREaG3+WhaehoDm0cyTWTc9auv/iHjS46NpWx3MXbaNqCmrBgcXN1hZ175Mcm2efjZe++o3o0wSJI5t7GeQ4/XX8OQYIX8fF/2b/aLPYNf7Jh87h339ujJl8zOf4rheexbteeCJos7DffZKLkcBBK2k/+r5uDH+MY3b2VD+jmqro7I4T6WjHSopT8+lD+HS4yOgAp39TWYGbLs1WNrHob1B6iGu7B9i7+DCa/YtYKybYXKXS290ALiv4l8skFClyc0xJRXyJQ50KnS8To2edxQRISPJPTsRTO5an37U/Mach1Z2FG3h8Ubpp+JPn0lONTrW0xGVWW9k6OpTwbSWgFW1FcO9oCbpmPNeBhlDdJ3AQcEFlDHphyaBoNsOv/dqv4f3vf79oYIMVllIMDhjYJrMZpvOZLIqpOaAhksybOKaZswwOhrLk3Rj0cPOpbXz7y+7D8593Jza3NjSLgSUEHTfew6BGBoHfn7Mx0tyHtIYKfKl9MxVOYiAPWRyuZSoJJftclWzqmYyXJuMRrl69gofPn8P5K9fw8LnLuHplH8PxBHs81zxDn0FK+tQp/s9/+H/g7NnTynIJWtRqJ0GdpzEGud6K4WSDnLoVCCBZetG4arfoZpWNvdSpoHIFM+u+B36pHdedDSwpNCrXONiqg1BsQAHId8D6A/65HdLEZyWsi3lt2ClArYaodjFYEhaF7sAjG2RlHA6OZF4gATBfYrEkA7z0HiEO5TVR3T5cKzlXhKLhBV0dxYyQgaELo8WT0i4IoJgRIHMg4yUyZdRSRHevZ4gUKHW3L9mvdN0F6OXoaDBu1q3TVSNn0lTOS9yNAZr0KAI0ubuhuEad59qdDTk2b7oF973uLSgGm/r3/sC6g6/3zzFA+HpfgW/mz29q/MuPX8bPf2pX4ICB8PV3ncFfetkpDApnEa2w+gnWIWWVDiadbqA/xfodYvaoPSAoYFmBHvGkKpWRRN90qPyvxyGmb30qNFXaQFNuYJYNsLuzi2sXH0F+cBmr5RhbayVKyf/57Js+FYWqejIpTm4ay0w/ZRbdRsZDgT5qoK1LYtutsOzVvm5ZopWrZSLCSElmTXRyrGoFS6nRlfBFCxo3d3tALzP+js4gsQH6vNhbD9VfO+jAsSsytCPMgVrB5Ho9x7lHH8V/+c//CZ/85CejDu0Mnm2LsUy6XvwuLAXMmgprtMSuGpQclc0WuckM64MSt5zaxj133Y77XvAC3HTyBFZWe1gZrLhNLgUPuv+FLTAzTbsd2pAiYSxp/VOnBrd73s+kmtUK2hm7HY0CPDfWuRk0GZx5vjtXr8rM6cKVy3joUXYu7GI4nGJ/NJKGos9ASDfPusH3vO2t+OF3/oDa9DixUcCEGTfBXHhvJAbNbY82rQp6RsBRIjwGXnWoMAz5GlmISAbAXQ5JUKkSCdeVolyCZBdygpnwyGYNM0r9/OzEmB7ICEmUuYAEQYenNyZA4LpMsttmy6RHJ/O+s1jYVuc5QQynT0hv4CFPLAuIzQmavg3a9DxTWWEhrVBNl9EYB+1yAi2UzTyIkJEYMbXu2kSNPwIPZJE8ReN68pEDt9IQq9TlEyeRSk7uAum0D6ftKYayCXxJQMy26CM+BwBWT53Fy17nkc1cKk5lJNZ7JvwcA4RnwlX4JjwHPn4/89tfwr/7/AJTZcY13vGiM3jnvVuidVvd4JP47q5Ghr3yk2AIHu+QNwIHbC2TO1yIEdULHa5mNzqWigQRcNkD3pRbqHsbmDc97OztY/fCQ2gOLmKzN8PGeoEyo5DOPuse5xTMgSiDaaiZQ3QW4OeG4EDtiK5/tuWFDjhg1uRBQCE6TEK65Pa2tI80e8BuBVHizNBjGmPbymhKneBAqu6j5YCkOzzSgZCYg6U4yyvYLUGkfztkJcvZCNMpPviBD+J3PvQhnD/3iJX6dLKMzE/21RSXzefK/nkNeoO+NAj9QV9lmslogl4DnD25hbvvvA0vfsHzcctNp3FyaxslN94ee+kJCBjEPGKYgY/CNxZ72UKnoBGmXDK14U2jQrCFpHTiVI2eVHFLN4cXRegy1AGgwGIRHM2aLly4gMuXr+LL587hoXOXsDeaYzSeYjQ6EDjr8zyqBs8+ezP+wf/641gbeFaDRId1I3dFeiSwm0H19E5bYgrAun2irKAOC7JVdGciY5VKRupACKvneL10E7OpXUk5+IzGIVLPU5Nh0FRT7BfzGeSLMB9rGJpGL+u1pPVXgOj8UDlEpQtFYgW/ukqjtJnxWxOR0ydBgZMgh90OoVsgi8WSkSh6az15a+v+J2sgnwOCM3YreBBbAgdaH4opVa0hw0B9QliuJ3AgFiQYhvABP7S9aNiTZ0EcKgmkFkauUKxpwsHuTNDKWRjKO0bMQdIcdD6Bg5duvh33veYtNmejxoMeG8vO4CexO351X3IMEL666/tn7uh6QKoGv/CJC3jfp8bhLVLhNc87ife8/BR6ogmfvCLxEHPwFMCBJFoaobr8iaGA/gu1VVWifudjOtex39qOid4QbjB0JQI0hVWKwVkfKLfFHEyLEteu7WL/wsMohlcw6I2xvW4vev54zK6NlbwC/t2tjBQmekO+vpQR5x86AlKjyg61KbvXmkpx2cFGTfyoXqHVH0RNVP4N2uCdXXKT44ZacENWBXmp2PesoaWt61GtQeqhVzZ2ZFBQUhWortsBEs583Rmhlq/5Ao888gj+y//9q/j07z3ogKOuklqqftHpBAdqDfOsBMYT1qbnizlWVgfuUhiSrVnFc24+gxff81zc87zbsbW5jrXBmso7KbAWBAeku0XJszbN717I2U+CROaTag0Mz/zQXrA9UGOzCSApqEs2yklyqstHQGGRIQECAy+7K/Z2dnDu4iU8cv4S/uShR3Hh6jWMpzMMR2PdE/28QD8vMShK/MP//X/Ds246jYbjk8PzgLqYyXiiP5MBkWFVGBolDwpR+VovGwWJ4RCdzbycXgKu68vQirS3WyE8jZEtgXT2DD2AHP80adFTGWkgloZ76frMJvLzaNs8CzoTWuBJYacNnMLIKK4914vXixm/hp7JZjyGJqk7gqUtXgODVWf/y8mHvMckhiRDFJ4kDcIrhMwLwQxnK4jpcLmAgJKCRHfnmOVIY7VT6YEdKumnCcZAz4iAVogYU0mh7VIIRi32Mq9lCJZDtJzAAZ/vFvAH2CTwGWydxn2vfwsG69vaT0S6PEOYg7QexwDhz1wI/yp+YQXwCu/76CX8O5og1TKXxXfcexo/9IINeddLxfsUTqG1V46g/qTe2pkBnwYEdYYjGtlTkDidivqlCYyzcmcY3PRuTO9HsFKhlHbMG6h6m5hmPVzb2cHw/HkUBxexMphgY6NAL+zuHLDNGlivkNoZw6c//dvjrYw2K0+Lc0cFa61WeYsWlyDxxrxD10pXIChKKAx2HG0sBzwp9bWr+1gyi0ktjNezANexAp0uhGhqbYFFF2C0ZYig8AkOPvWpT0lv8NAXvxgmPK6HT+UiSQzjvnG1nWWNMm0CLgYxAjAKFUsKEzc38ILn34kX3n0Hzp7Zlj3yoM/+9zQrIdrtCA4k6LMinzVu9ta79u2yV9JduFMjORSyx56ZYIjMUmthW1NOvvzOcnmtyU6NR0Ps7OwJHHzhoUfxxYcfxf50hOGY7YO1gvAKfzUl/oe/+CN485tepz5+GmWp9ELeaea6uToCQkyX2Jo0dji1MkrsFw6JvE4KlRRcalSzqXQ9TgSaDNYawzwFKE7kOqd7Kn2WGATaSNmEqJZ98ih6+UmHU7fhVsLknulShtsRDZDN/BCIu4RH62UCZokTdA9bP2LPAzIqabyxABDvf9omq7vCo585hMqdRVmAAwOENIXyEDhQW6curI2dokzC7pTkcGh+yBoDtw4v7aoF6kOHk8S1S9ukECESGOr7ROlRJR5rDlJSomvGGSHPuhX3vOINKDR4CVgJ5uBJ7W9fwxcdA4Sv4WJ/s3/Uogb+1f3n8K9+n/PanTS+9q5NvOe+E9p0nmoro5jJVHR+KosXlGTSN3SGIwY4oNPbXGWF2WQC5akUfzHziiz1uo+LjMKBkRvmNureJiZZgcvsVjh3Hr3hZaz3J9jYZFkh6NDk6tiCgBRsbEUjK+XYUx6rrKBsRta7CRyYsnft2ZkkN+TrOh0S+RAblPrEY4NlBkwKWA6JfWdbvEa1DpVcEGNqor50anUMsJAYgPgMtzkGvRoixLbcENmV9QfxLRvgwrlz+MjvfBi/8Ru/gelobAIk86yCBdvfuP3Pya5EqxetZ/sDZbxUppN2Z8Be7bE74SxecM8duPvOZ+P01hr6K6TsU8CwCyTpcmk3GSgZ1FjvZvcCAQLXkoLTtGaRZctTL2y7rXq3mFSUfQCDQ90hCoYGmgSf1EPsHYxw/sI1/MEffR5ffPQ8doZDTBYzjMfUFxQYIMd6OcAbXv0a/NX3/BgW1ZjyQtHuRUNDJrMpDm9RNw8DngTizBxQE8HzWwJZDwfK0PA7BvgTO8L7iRT9jFNPp8gl8nPLLQOYVP8swfC/BQ5c86+nY8ynI4MkhvaC1tOcpmhDqdakKWY4qNuGnQMEOKEXIEtHc3OvNYEBf5kBSAZMAjCyO46SCcEBAQbBBdsTcwoaNSxb94JKISq7OOCrlVFtux6ulgJ8Ah8SxMIujIl5of9EYg4sRkz3ekAB18aipffwDuGR7n7oTRK6u0Kuq/oyLBW5u2Nw4jRe+NrvRLG6ofVmKYl260dNwZ7KlvfVeu0xQPhqreyfmeN62+L//uLHLuLffeYAo0o5Ad7w/BP4/hduYpX13afw85TLCinALrsOvZnGxL9W9BfMwZS2sSwtqIYZLVY1M5JgDmSV3CmDtOCAQZQU6gYaMgfoacDO7oXzwPAKtnozbK1afawNRtsSOwM8QMeud0moqCHSy8JqdBkslymQUTstjhmNZ1S5Ta1QXThtb0ekAJGxpNGxQX1HqxsPVMhhkeeq5vqgXq0eNx7oeBkcEiVeP73xaLuiKdzlNT/EIDQNJtMJrl6+jP/6a/8PPn7/76p7RFoDBq1wEpRhkOrv8uILqj3XpkvPPga4Xp7h7MnTeN7tt+Lu596Gm28+iRPra7IjVptm9Pd78mQpF0MZ74g6Z6bKPxscEISkkk3KXC2GXcgbQ8OP5DbJzhEr4M0Iuc5cZ848+e+qeYd4cTIc49zFq/jM5/4In//Cw9gZjgUOZqz5EwCgwXp/gO9603fgR//Cj8Ro5vkSGMcxHTAdoJI4rr1HdY+ERXEa4Kj6uMsK7JVTe6EmgRUhEjRzBjIVPJcQCGq2gUoKpvsJrNjlsJhSDDjFfEqHRI8ap26l11t3rT98MdLnJNDKEdkGBiwtkAWx4VJaa5Yk3HHgcoZBBjNxJ+LuHmDJhGJPThVN9tDOQHgd5ddBgCK9TLAVsls2UOMzp26VaLV0S+JSVOj4beCarmGrVbKg4DB7kGAuGQPtOckPxduGJjWG9iT5tVDDwnXdOnsbnvfyV6O/fkIAcGXQQ/8ZVlbobtXHAOEpBK7jlz7GCjQ1fvZ3HsW//9wcFfuJ0eBNd5/Au188wDy3+Oap/CynNj7xu0Lc7Y1B1L+3TeW7RwasyUiFHgdzlhacMVWkKgkSNK6JT74V+4c3X+5UYUFbbAD9E5iixOWdHeyeP4d8fAVr5RQn1pilpo3GFLMaABhkPPRRP2QN0snJO77jlngUIFhvwPNkXTsyeVncJjMcVgOuL9q0ZkjMpmRhG5ulAgFrnTaEodKc77Z+4LDhUQsU0nmnqYAdgWJiG5L+IDEb6dseAgdocPXKVX3++376p/Enn/9jzGZT1dNldsRzDG98TSiMvn8yG5qcyfNg3X9RY33Qxx23ncVL770Lt992Eza3V7CxvoYeAw5993srKGT05GxYnRgaLpT6601rSw/T2uFa3b/stqAzH018UhtolJ9iGmjNbJHZ+hFwoCAWnQu7uyN8/FOfxWc/98e4tj/ElEGLIZatm1mDrcEqXv/Kb8df/rH36M8EjRowyDkOClqdMcLRwph69QU/0/TGeXLmi3uMk0ETOBA7xOtbkIpQSYH+BmzjzVUy4XND3QWHKLGL0eCgR60HOOGQBkgU8k5UQiToFTgo11USSHYbqbuB68njVLSXDndDPmcsC7gVktkyBY0x5InGVGJxrF2gPwJLD2JFkuajWmDKDg49p6b7OepZwIIzVKKUwXtZZUPqDqix0UAo3+sCvd0ppKkY0OnwSYOTuiZGqUPhaKeC2xUpJF1Kh7g2ZpAWZmNibemxsXLyDF747W9GsbKp7GVjQObkife4r+crjgHC13P1v6E/OwjPpsEvPXAF/+b39jEjHYoGr33uNt750m0NmVHo6mgCnsxXjrbsZQ5/JP5JeBXBUsOGkp2yE01RrKJLFdTdgiTKl/VWMgczTrFjSSHYg9a1UOE7gEKqI4aoMmNb2Caa/gamTama8s7Fc8DoKjZ6U5xYJV1tt0VnPxxoo5Np2+UcVxfaUiRTjJ7q60SFAXc8iyp6/2MXUv05lEz2qzuqPAgKrqAFAAAgAElEQVQJaOt7kESNFmGSxretrnvh1RcvVLVkDlpGIF2BEMqlMoOBQ4CV1kFxaRTTgoMWWBQYDUfapL/w+c/jV375l/HFL3whZkZ4LLdHavuXFO+aoFeYLqfvAddkUaFf9HB6exPPv/M5uPcumh2tY3NjBaurfQzKVQ1VopeBBiulEb0aCexWwLYGrZKXM0m12yqIcB5BSEgz+xoQHFDIaftkrmUMYko+GPo3/7tYA/5ZpY8K13aGePDTf4AHP/M5XNrZw4z3m24N2i5W2Bj08fY3fAf+4g//kIGLppF6nJlr4daaCPdG1mv737BCjpHgtii24l4lCF4vif1cViCA1ArK7yMGLy3GYg64vgJ16t4wK+W1411ah8+BPUHo50AvCr62V656cmOM9E7CP90jHNcsUJs6DRgwJxIAG1Ay83dZgAAuGRnxG3gMssGRwQG/W2IOPDpb/hxFac8KdaI4SGsiI8FBeEXoPg6tQbILb7sOohyWupWSkLfrUZAAcjJBSve1p6FHi7aAjM9Z94m0J8spsXoEyj42broVd33Lt6G3vi1dyWqfw6MOO40+mb3xa/2aY4DwtV7xb4rPc+2Pm9FPfegR/OofTzCv+dCXePO9p/D9966iR0Sv58aStSQWfDJfP5UYWpI/TAKTeIi0pbY1PqRtjzFrr64heqwzKVCbrHBz5WbFCXMUJurf1f/vDf3Gqn+FEoffrERDn4PeFiZNjt1ru3JIbMZXsFUu5JBIyt6K6qh3dvopFXplAMMA0FFFJwfE7qKEb76DA7N/B8/kfudJex6mY7+WkFe3xwjH96hDK3hFEHMgYK03pvyFac4SB3jo0nXdCB0bZX2M6OoACCEsUYA4IsGWqVWeK6PjZv3A/R/Ff/wPv4zLly9ZIR7fn9+V2R6DrPrfozzRsiAMYnWNlTLHLWdvwre9/MU4e3oLW+sDrK72xBxQQU/WoNenwt899A4GVu3bOtcCTDISGnCleo/V9mq9DR2F7lUFKPeuS6kf47NV50+aDlkS0+DH99GCHTBiQDJcvnaAT376D/F7n/4sLl/dwUTXgAZPOcoGWCmA73zd6/EjP/QXRDNLbxBdCGYOlpqDFOgoKE2DufQa2WxLqdEZvMQAzNKAKXfjON//MnOiFTHZg8UsWjlNvculMee6FZrKKB+HBdseKUqk7biHdxEUcK2LHsc6R/ortmc51EolAQV1ixJFt1O7oXMhy8bSFksKKwEUyFSkUc0eNqYWSJUIFp6HoufK4MPMAbUzMRiNnQccDSVWMLpLgg2Tf0SUVzyjYmlNqGCuuQgGoV3WYHmfR5Kx7Dsy2AoX1aQ/ESiI+RF6r0zhPENh9Vl34J5XvQ7or+jv1ld6BgdPZjP8Or/mGCB8nS/AN+rHM3H/Nx8/j1/6vREWMbXs1Xds4ofv21LLluj91L/8FL9kt3NBz23UVblRa9ojNyb5DFmkRoe62WRoA6Joj2LttEdlNV31YsIba6CkWEUBcjOPTf9wfGYGwFDqzY/UZV1uoOlvYYYCu1ev4eDSedTjq1gvZthaoQqeG4aI43bGQmL9U7FC7VyZwUFyYktTF9vPT+BAQd/gQAEppvPRTU/1cbnk+eexAIJZFHvNp5G+rXq7Y6GcPju1K3bBgUveHXFiandMQsaOiKtb8tDbrC6TmyGD5oOfeAC/9qv/GVeuXJZojFqDJL7U4CDFtRgF3LGG5mvoa7C9uoIX3XMnXvqCu7C90cfqSikHxQHHPK9Sd7AKTewLYKDzJlOi+JC0FTRj6gwxksNf+AxEppnWQYJOgYEQfrRgxroOsVgxMlmTPzkEqaG/f4Nzl3bwuT9+CA88+BlcvHIFU4nkvB40pDq1tYHXfuvL8WPvepemZLYTPNMQrc4NmQDbdeBAlr+efmgwyXIWA6gZJrf5xTOoVtK52AONYOYUS4IuXU9PN9R7VFooralgR8Ns7lHni4kZFgKDYkVgqtG9mFoZY1hZTElVUOcEyPb+o+lStORqRLTNlMqSnQ/22dB6al3DyljgwEZIcj0M1oodE54uGrqHeJ6mrZ5o6ffQBQcO1mbM+JNMxjR/JXWhdE1SWjtq3/+GbFJeeG+L+S3627gWXfZBomy2rp68Cfe+6g0oNzZ1L673S9l+f6P8HAOEb5Qr9Yw4z2VZ4b2/ewG/+ke0T6ZyuMab7zmNd9yzjv4Rtdz11fEn/iJdkSLjyGJuFzRNo5NTm2upM7aKDQ/URsZMhaN8NWQno2f/QMN3eCxudlY0L5SJqrTQUSnHliHQ4WDKDIqZFT3ntzDvbWKWAXvX9jC8chGLg0vYbJmDEIipFY4bpoWH4U+nIkCW2edAddU0fvrIwiQ714ibqt+mjZGtfPI5IB1+pBWkCxDSsfkdyabIyEc6CIIY9/a3moBQb3vj7U5pjOCehIoRZPSbBtGkcoTsk1rxVsruEjBiy+ToYKhr9sEPfgAf+PX/iuHowLSxzG0azKM7o23XY4Djv8tt0l4CZZbhjlvO4lUvezGefcs2Nlf6GKwMNHVxdWMDhTwBBijVruZhPFp7nchSUxE61jhfM0P8d3UHqLddQ7qXVrsl19oQLJSltszVH0m5uwTBTJxDmCSuXNT40sMX8JnPfwmf+5M/wflLlzCZzUWBU1hJUeD2yiq+7+1vwfd/z3crk27TSAUcBu0OZEu2yBx0JDVkiF3FDtmTQR4RGa9xo6ycRkMEyQ5rDoRyHGQWrtJa2BnH9VUXh/wLPGeBtJ+8CqYzlSAWFdsRM90/FDBy+BGnjVHToZKEylSm2+VUqPq/M3m+150GBiOczcDATgZAXRIy9jJgTpbmYvUkaEwAgwmBNQcqR8h6eeAkQR0D1EhYX8PrwJ/UwtgaQyWTrw4LoHW7ETiINT/kBqqbh50RPM8oLUiYarYySzMdooRlBSZnK9yO573itcjUrVBjvZ+hx/V+4i3wGfOKY4DwjLkUz/QTMTjgRvhvPnkV//azIz0sZd7gFc/ZxA+/ZBtl6lN7mr4Kkfp8SoaARkaezqYsGJnaE8fjESbjA21M6+sr6FMwlfXQH6woE5LpibImtzu5hrxsFTx8mqwxpw5mfgLV3JuY9+lzUGB/5xr2Ll9EM7yMjXKBLWkOuFGztm/JdXJ4cB043BI52S6YgyQ8O7o8KbDLnVGz4s2MaFON2rm6C6SYP7y9JICgoopKKyo0mzr9/9l701jLzutKbN3p3Hl4U81VnCVS4ihSHCTFkuVYtmR3x3acGLa70UDQCBAgQBqB0fmR4V9+JcgvB+l0ECNoD21LbQeybMuOLVnWaEocxEkszmRVscY33/mcOwRr7f2de96roihLtC0W37UfSnzvvvvuPcO317f2Wmvz2ez3yv5lVGtYnkzoZtXf+tv233qG6wsWpYrccgARYdSw7T6zvye9H9sKuRz6vR66uzt47bXX8bnP/j52drYX4IBuBVLx87kF8YSQGR9ZHY4lhYg3nzqJB+75AI6ttVEpF1EplVGrNVGpN5FXeqINtFFbn86G2Vx5Dpov4PYVGxZkE/ZMzGafdaFaN1ZJ/X9GEBMIEAyFQU56uokX+bDx3wzsYW6AqeXjeKb5Co899SxefOMsruwwCGmowkLhZC6ZoYwcfuKhB/Av/tmvKrQpvL9URZJK3j3MR4WtaMy3n0/pF1xjo/kK0gTwOvEcB01GdcupwIFFEROcsJAF9wUPAYG2RjXT8sn2kOKIDRzMCSh4TAicNAWRVtESZt6yU1Rz2JHThilRINsXLOwEgUw3tN833QcDqSJEpNkJmPha0mMYONC1L7fCRGLICV1F+nzOPMitUDBwwPPpvX+7t9nWSRathMzufwF3PTjNmYprg4PgEPFoa0PP1srjYXfdAo/dlMJUspkCCFPTYngCJ3+n1D6E2x76OAquOWgyjf3H1Mr4/ZbrA4DwDhWz98rL/PZjl/BHL8UYSpWfwyfe18HP3lxVCNIPwxa81XFjfY1HicRtw+FQwkIxB/RUJ4m0BPIZY4p6vYpyJfIdShV5+vo52IfgQIu4gwKBA5nn9v7ZVC3O17e+NTh4qdTACDn0dnbRW7+MaX8DDVoZK9xN8a04vcvWhhTovhtXnDL/NxdIH6qjamQMwv6HidxMeLYYxGPT+Wx3bQviPlOGF7lAkRpAYOtESn/S2SwcykrIgIOQjChOf2/64bXAgXZkEvnZrshwRejnO6QIo261cs4wGvZx7tw5PPXUd/E3f/0VjLngez9ZO23ufNmL98mFPCY2hIlFOodiboojK0u4764PaBwzKflapYRarYFGrSGdAS2LfDOsqQJV0gLYACw1EXwxtp2muTWCgM7AAasa2QoTxknuadVQYT8CZ1TH+5BNquzl1c8XbKfMAprE6o8PhzE2d/p49LvP4HuvvIb1nQ3EEtjRillEcQYUp3P8ws99Cp/51CdRrVYynndzvYhzUpqXH+/94ECMVwAHZMAo1vMhifpsFhG9BxwoWGhs4UZ0Yyi7wbz6Eqlq3kFZII33ld0viXIRDBz4ECK1BBgpbvMeZAsNI9odHKhQE4iIPUgwF2vGz8LrzwSQUclmYGhMtvr4xgCEKG2+R7EHshzb7xtzQHBgAIXJl+rWKJXRdBViyrwNF9io0F7I3umCz4GJcc1DJuzA77X9OQd5gU8bzGbYku0kMXNiIEwfRHaJKyCPf+PwSZy8+xHkqw21ItrVIqqldxNvsFihDgDCe6Wy/4ifk8LA3378Cj734hi5OYVWE3zo5jZ++c4Wih7m8sNqDva/tcAc9Lo97G5tY9DvawdChTpHuo5HA0XCcqFptVqI5Hs34ZRGw5LQp5VRKm31KNJCcFVx9gEs9n02FwqYFpqYltoY54vo7myju34J8/4GarkhmnWCD9vHK2lNvVwHBwroY9GyxTsEPUu4uN9zmaqfWdjzGkQkOpi+bd8BiTKmL5zF4y2GRmmmpAusrMjq2XqPys1PR+wGi0cAMcYc2CbJmYWUVLD8gbD70/vJ9PHDMQzsgQhtLpKzGfrdLtavXME3vvF1jWnmdExaGAnMpGzXpzGhJO1n6t9TAMdjNs+hUini9ptO4r6778BKZ0nBSOxSj0YUydmuPqpUbXfv0w95zhg0o/G4GvBjrQ+KVC190cCNfR4iO6Ox2XYiMJso1iCHmEU4z8tlguFoiNHYEgn12aYzXWunTp1SJDWP+Xg8RL8/QLc7wpPPn8Z3HnsGm91d9Gex5m9o9zvPoTyb4RMfeRC/+p/+IprNhoqviS5MTLvAq+Y4kAhVdtswkJNiOr5Jn+SYjijmZwzsiO1+Q9GlSFC5A7QGMjxJ8xiY52ugU6wA0zMZGsUhWWwrxAlmyQiMlLaRzRaUxHM1dUYltYZ6i4q/p4TDKZmDoOI323AO3k4gY8A2UMmnTQbuZGoOFk5jnE0JLsY+gpmaA2sPmVahKGFkEBiS6tewJ8+aCO2A/ZqD9F7nPRRae2LogqbBgXM258B/KYiqeW8SgHqXQdevmBt9+ffdcszzHXXWcOsDHweqDQlPl+p017w7wYFdf9fa0vyIxeTg16+nI2Ao+Xee2sEfnaaPm0V0hg/f0sHPvb+OOouQI+v0pvohP75uoymtShMM+33s7uxiPBzJzsRFQC6EhLStLdrMpKdQrUjRUuSjXQkOXLEtkRT7g9dsKwRKPi13onNzhZo0B+NchN52F93Ni5j1N1DNj9CssRTaLi5YFFV7RE3bJtWKpaUk2k41RLwumIMFiWC7EmosVNwlwLSFPiTC8QnGR+x7pPGtJvaToE47YbMykjUIlrhQJNMmQhAbhhkD2VAkecXdxuid7DAUKICoACr4L4t8AAcbm5sqSn/xZ3+G73znUWN+lAlgEcW8PjT3QYJAyiSs382dWKVYxNG1Vdxx20248dRRRDzfCYsMW+GWV8GZBhMeJ43dNXEhY5fpAmi1G+h0mmhw9kK1avkHOo7mytAOXcfJ2jeD4VBW1c3NXfT6Ax2/MZkBCmE9G6DdaKPRbErXwvfJv3vHB+7AUqeDZDJS4NNOr49XX3sT33z0SVzY2ESXQUIeFBURxMRT/NJnfhqf+ZmfltdfUhLXNlgbJO14+EAsshYqRyZ/UOvIW2Nsk4mtcrdJcGeIJdoLDlS0CYA0b4M6C4pAKUY0i6vZZe24kBFJ6O6hiJfgxWOS2RKwgCkySNbe0zuyHpTFJvO4uKAwxJXziuVxp0uB54EhRgQHuk5ccyDdAcc1y+XAQWkEB3QBOZ+inIRgZSTrYGlCAhTSRhjoDPHHARzQLhrcKI5+F6ApDGBTNsGCKdijNzCiz1wVyqJwNENyLAUHbC04n6d5EQY0yBycuvNB5GoNHcNOhczBwjXxQy6L/6i/dgAQ/lEP/7vjj//bv72AP37FEsn49fD7GvjFOxrIz4oLcOA31o/0ibgzGCcYdAcYDYYqmuXILE1cjGNmwMcj7ZLLke0sZM8qcxHiTiivbHvFyLIHSuoxeOv3vTGJlDIPysjmxRompZbAQZfgYOMSZoMNVHMDNAI4cIqSC5n1zqmatqQ27nRtpK7tUIzIdltj5m/ZIkhwkHsLcOBtBe95Xj3cyoc8ub0jiP6sYM9sIffin+6gM0zBWzEHQcFvMX6mRWDvOeTpp1DKm/GpuHA+x8Xz59FsNPF7v/O7ePHF57Gzs4kktmE30lM4xa/3JsBAGpmdACYJVnDn+27FB2+7GdVyXqLTo4ePoNluS7A4Hg7Q7w1ll9za3lK4UphLQXamUS/j2LEjWF1bQq1WRblMCt9aKwEUWTQFnQczDEYjXLy0gZ3NHnZ7FLgyujlCuVlHrmTuiE6zhVajhVKlLIBAsPrqq6/irrvuQqtdF/hh6NHZC5fx5a98E+curKNHADuzoCO2FkqzGX7iwQ/jX/z6ryAqmYAynclBAJnqQEJbgT83i6GEfRrbQXBEcaGzQxL7mfbDAJAFQKV0PQtuYsd8zpjqMFdEscl0LNi/ClFyFkzWX1pRyRywcHIqo9wGESbstqWpnTa8iuyCDV2ii8JsjAZwGWREkLsIMaItUs4SXTOuN1AktLXTmKzIuQwalmZUj4co0YVEUWLZnDuZhMQ058DdOFlwEFitLDhgCyPYn/lvqptxZ4MxaH7HpuCA64jbOB0ciAlkvorCsQwcs1XG364uHcZNH/445uWy8lfa9QiVomVMvJsfBwDh3Xz2/p7fOxfVP3jyIv7D6SGS+VQ3xP03LuEz7++gor721W8gS0hZKMriOa5XMmtZQOfGtKomjccJhv0BxsOhPOGkcrUwTGfqY8fJWEVFY2W14DmNXDD9gwqAD8mxuFMLtsl2/bVM+QLMAk1ae67ZChXMi4xPLmOn10N/8woSthUKA9TKRturqGv36l14hQ55n5QZB0JQ3AUZOHjLh/q2Fp3Mf2Vz45O1E1wI/64m9xZCSP0F7oZdQc3/plgviLquciZIZCj04i2FsHO179u52i9WDAt75hxmn+ML69kzZ6UJeeLxJ/D8c8/g7NmzKuZiDqgT0fkqml7AUx15rBgWc+LwYdx+841YatTFBDSbTRw5clhFhUJUakhs927BO7LpkZqfkuInWJyi1WxiaamFaqUkD79NIKRvwFsf0ncsIpB7vSH6vRGShDtrY2vqzYY0Byy4pahswFS2PtshjsZDvPzKy3jf+29DqZDHII6xvr6Nv/32E3jm+ZfQJ+vF0dm5OcqFCIfaS/jEQx/GL/7Tz+jaMTAZgOHi+lCx8gmBVuj9Z34dE0zxmAXmQDkYvmsNAE0iP5/gyJwDJWdymiOvVR4r9fEp8LOERAIMZTRyJ07NQcyMAtMc8LW56+ekS+2sZRsO9kCrnnIEhbaA2LmQU2BAh/ZFjV3W8XPmgMVUKls/DxIX8hoZ+TVsrhgTMHrComc5pODArwEJNTPOmzRGOcOEhd+RhVaH1GLO00fIRsi8joCESExnqPz5FNSq1ZRp8+m8+byO+upxHL/7QaC6JLdCu1ZCI/p7Xpz/gV7+ACD8Ax3od9Of0f5xBvzWY2fx569PEc+ZSljER29bkiCRoqOrHvtmCVwLHFhb1Tz+5hczAJCXan+KbrenoT3c+dPeppHEXCA1QImT7FhDGaXLhdwLqQR8Lnby6Ws2uCYTgOR56ilacR87tRRqmBSqyBXrGOeqmrC3s3kBSfcyKvkRapGp2wUqaLP0yGRt3LSDgw1mImsg5mAx5OWtzrkU99TUeQhSugNiLzPk1gYh3R6csQAIxpKExY+UrmkJslZGKz72PrOsQHaXtdAfBADhuQGEaPssqwF0CGb4z9YvX1YL6K+/9Fd4+qmncO7sWQ/IsdhkukmiqGRtAQrlOEGyMMNKs4Y7brkBx48cQq0U4cixo2oPsDAbvUsKeoZ4zN400/G4U7XiwkwjRecSFBXyqERhVHARc1f0MzPCCHq2KDzyl84D0dos2PT7GyhjQFAUlYX2+LoEnzaO2gaMcddMoHPlymUcP3ZUQ752+n089uSz+Oa3n0A3TjAcj619MsthqVLH//iv/1ucPH7Ywp9Ujv1E+n2SCkLlIvE5Aaa+S0GurKqKF7bfVZH3a8SYoex4Z+oM2M8nOLDwJvFbPhLaxnkbAE3BwZiCRGYUmFsAshATZNlURl5LgWkIzAGBnwSaYg7oHjC3At+iWZAX6YgmKiSxV0iDiMhusIUzmY407jkdpyxBo2ck+Mhm3fB+LSiGOwQRebiVhKTOihhqX0yKNUbD7w+3My7AAd8rbb8GzvilTBIC96Dp8Sebq4js6QJgGJDKc0XSbIVj9z4iUTMZhtVmGVX72NfF4wAgXBen8R3+EPM5PvvMFXz2eU6Vs1z0+29o4ufe39K8+jAl0cv9wjqVtuuy/m7XY2mh9ScIiQef9lzzESj2Gg36SEYjTyRj/5n+bu4IKabijoST5co2ClZWL4aouI86oH6J5Sz61nYO9vYC1aelWjc7l21WmgrmhTqSQgXDUYze1hXE3XXkk23Uy5aNr92H/M+2VMszTzGiGAT+y10aF2RbkN6aQSBwYQCSFSnZuESTOlXsvd20mKQHOJxfGxOtBd4Fkvx09MArCGbPl1m0wmAf9aADlZoyCfuZg5BtsKCEw1J3LXDQ7/Vx4fx5PPv002oxfPe7T4rapnaAojDmFZh2xGhv2rwalRJOHVrCbTedwKG1FbTbLayurJmOpFhQ6FGlXFVxVv6/CtIYo9EA/UEXCRMA1Zyfo0QqWyySDcKZkz2g2p2qee93s1CwIKVJgroIbafMv1mKGM9ctbhf9skVD+4hU2R4QlNA4ITX5Bz9YYznX3oNX/vmo7i82cVA7ZKZdBO3n7oF//pf/TdoVIugJFNZ/GGiZwqiTRQa3CWarqhPRX2LR/UKIIWevMVji82Q8JQaDhPeKQ2QzxP4oe7ANDcBxFG0G9oK/JfXvjQHcUwqQMJHE7LaqGW16qRfMYGrgRC7xygmlDiQ46Hnlhwpt4GLP5mRoAhkMgh8Hc1/sGPI48NrgO+RjNB8Rs2BCU8J0nkP2IAtYzB4PlNwwL/pEzXFHATw4vke2dXPwKXpVKyNl0kade1ByEnQMcr7cfR7mwLIsGhYpHs2Kt0EpRTF0tYTLR3GyQ99BLky45PnWKqXUC39eE5l/GErxAFA+GGP3PX2e6qiFmH8u09cwJ+/OsFwNkVxNscj71vFT95QRpk3bijsadMurYjptLk98FkV1els3b2GxPnFG3k8iuVS6O3uYtzvYToeKoiGk+gUn8tglVIRUbUm6le566LnOdyH6XVBDGhWJC7I0hek64KFrJhv2ncBJDBQxCzHMKUGklyEIfvHO9sYb15EcdZDVDC6eJFt4N1sL8Z02REkWOHkeyBA8PdyDSujFjtrYYotWYjNTG8gGtff9NXpiAuAoFkAipT2oBfXHGQjkkMrR7u/q8CAlsV9bYXwPWNUvh9zwGfyvcr62e/hmaefwennnsXzzz8v6nk4GslySgujQmziRMRKNYpwfK2NG4+v4ujaMlZXl9FuN1CrN9Bo1NGQG6WK8+cvoseAJRciRsUiljotefN7/W21GBh8Re1CseCuBe16C8hJr1K2KOV0qqJP9fPUTJ43Agbu65NkjlZzSd58vu94GqPZamGp3bGx2BKIskhY3r52sZMcXnnjDP7yy1/H2YtXlOXA1yvngdVWE//Vv/wvccf7b03H/JJy5rAui2c2h4KCtAIoDDtV37nqunDWLABTPsV2/+YCkJqf741Jm7RgyAFgbQW5HQSg8gI85lawdpyKvNoKsR/D0Nry8KGIBToTpuUaCf5ePHYAIuZgrOhk0/FQE2GhRzaRMWgObPgXe/UMQqaFkQJWgQQObpKVMdgg6TxhTkJBA7YCs6jpnpqMadMjDdjZ57fI8UVLLNwhJpR0IL0INkkbfllwIPwdxknb0pRqOaxl6bHl9h9m7pXmII/yoVM4dvfDyEUNyUrWWgVUI3uP19PjACBcT2fzR/wsvCH/8Ol1fO4l7pQmKEzzuO/GFj5zW1lpaxJZOcDWbWBbi/SvSt3sTEGWGdc6I3Ag24wVx9kc42GsQJ2drW0Md3cwGuyqn8n+tNnVbNGpVqsoVwkOqPDmAkCnwtx82Wkv0KKXbdiLP3zHYLsI2ynY2yZzUAOKdST5SL3swe4WZtvryMdbyOfGtMO7Nz7ssrlu2e6A5DWtdEbzckH2feb30R4YqMnbLk+JkLYQa1fn44z3yxayGoQQhESVudGhpouwnvRifoJv5lJqONUcpOvWtcCBfVa5ODJthWstwPweKexut4tnn3oazzz9FM6fP48Lly6qgJYrFWYqYTJiMM8MUaGItaUmbjp5HCePrmCpVUOjWUO90ZBtNeLzCwW89sY5TOZ5nDpxUgCq3x9iMBjqWHNuRqtVxSTuIY6HEt7xb0RkHbjrjSoocEhTpaKAK2sHxcrmV16GXCcEZgzdGqI3nmIYkwDIka8AACAASURBVGUi2JxhZWUFqyvL6h/vbu/g2PFjqFQi6W6MiaJ/Hkim0ACmL37pK3jq2RcsWW9G5iCH5XoVD953P37tV39F4NaGLhlwtAE+dF0w5Mt2y+YwsUfw59t9sZgYaUO02Ebhrn4hTJQbwwdJaRKpgwO1FuTFZyyygwO3NQZwQOaAOoWC+vhEHmRhOPkyUnsmmz5oxdO0QYopn1trgExKKNjWVrCpmRqeJGsu62TBwIGADIOXyFq4oJEjn3V8yPTwHFrrgwxSaCsEcKC2grcj1RIIYWkusswueWl8shf0/eIjm8OxKODW6TTBYbhG0jkbvEfdZkrApqWNICtfQqFzCCfu+ShQbsrRdagZoX6daA72l5ADgPAjFtV3/68vUO/vP3UJf/oKldgsoXl8+MY2Pn5TDRUWYtmb9n1aRwEBLPAm0v7FnyfxoXlpPWdwjjx3Y9O50hF73V1srF9Bb2sL/Z0tjOMBA2l9N2E9U+4oqrWqwIl5mS28hZPqypUaSrQ5OlAIu87wLoO1zWMCfEAPP0cF+VID03wksdlgex2DK+dQmvVRzMUq/hqFnPbaLQJXTgWCF+KLsMBL+RS0AFdLEw3QmKhOoMYXO+tx+wjat9h17AEIXjgCMLDW6SL5LS3sBDHaBQZWwABOVrntH8xBge1m7ecByS3aFR7do1+Rxj6fw2CX6v8dvPLiS/iLL34RFy9fsumLnADoYTdRHliqV3HD0SO45YajWF5qo14ro1yOBPZIRbOtxHNz8dI6Lm12cebcm9jc3MaAMb8EP7MZ7nr/+3HrLTdgqVNVTDALKBM7RUVHJZSqNUSVmkKU6CNhYYkTihuHGI3ofGDK4QTjUYIr69t49sWXsb7dRW84VnFi9O2h1WWcOnYM9997r859vVnTe6RmxoKFjB/a7Q7xla9+HX/7xDPYGY5RjkoKQaqX8vj4Iw/jUz/1U1g7tOoR2TYfgaCV5zxEVNt5996342vNe+B1obaRBSKFYqZr3dtQKXMgG2+i6ZYKxpLw00EIX79o7ZMFc2ChTQEc5B1cgsWOzy0SHFhscnotcMDT3DQgbC0QcMmOOAtzFdjDN1ZDokIFSZnjxSamMz+Af5cpjmY3pltE71eWU2tj0KmgMC8PUOK1yr+rfAV+pqwgUefd7Jn7HyloChuQ9Al2LducinBPOyjjhkIJ1ta2s3UiaA0sgCzMheFrTItF1NZOYOUDH9L6wc9xpFlCsxzunXd/NTgACNffOfwRPpHRAdyR/8F3L+GPX2YCGqNq57jv5BI+datNW7OHLZTZqYzhtgjqYCMJQjKcx+66JtE6GBQezhEPxgIH2xvrCtbZ2lrHzuY6Rv2uUXmiDvPIR6QurV9slHxBFrZGs4V6q416q6lhPYQv+22L2pmp02C9Bi5IdCvMC8w8ZRJfFQO2N7a30b/8BjDdRpSfahCN8tK9wIZIYsXSYg5mvSi/PhwVJakZ1WpzEjKMSkgI1NQ4szWq0Ip5sOhfLjxXdySc6QiMhJgRU7KrWx2G6LnFKogR9ep73ApBTBgKfgY6eTaAUvH2AZTAHIS0O0IDvvUy2ztauMeK7n3u6WfxJ3/2RWz1uxgO+6KuS/O8BtKcOrqGm04dw6mjq0q6ZAZAFJmbgUK37d0uzrx+DmfevIhStYlXzp7Hle0uYjoL5kCtxIW3iENLTXzyJx/RDIZkMpDFTMwDwUatjkq1gVaro/dHxoBZGbTC9nu76A8YxT1GbzDGd589jedefB3DaR7DJEGJr1Es4uMPP4zhDsO4erj7zttx6oYTWFlZRqkcpTkSPB6j6RRf/eZ38Jdf/ip2xjP9vF0poziJ8eu/9At45KEHxWjwlFH1boWG1ce9+iHNMgMO5LThlcN+OZ0KgWlQgqFrK1wpH3IO9kxl5PhkBwc2esLGWu8FB96OU87B2DM6CHTNIsziPmOwVGgteAgGWydk1gREZBWmoNCmchpNz1jzvLMGPh+FWgoX/aXtDKYy6pphhgUZDuamWKtAc1Mo7NRkSLs3LATJhlCFtoyiskPkc4Z5CVfzfnCQXuXegghsXfb7NoiLIkv7brCJChSEO8LbCvpMZFraR3Ho3odRKKxgVpjgeLuIusUzXLePAwbhuj21P9gH47ry+Wc28CcvDzGe5WRlvOdkEz9xUxk1zjOwzqkFsXnxC5xDUT1B+zu2KC4oBqr9RZE6TydhY0LmYCzNwWgwQMK0w/EYu9ubSizs7+yYOpo3rjsSVEDV77fdTavTQWd5FY1OC9VqzXZXWlj3fl6b8x6GIxG4RBrbTHAwL9YFDvpb6xhvnkeObYX8FGW1DTzoyEGKtQHyorQ5d0KtB33ocGTsD18THDgwsN2dgwO9LqnUYMG7+jxltQhiHBwcUOtgyutsHK/9t8DafrdCxrq4YFadMSBHdI3FNm0rkH4PIEie75wmEe5sXMR42MWZV1/H33z9mzh76TL64xHy3NnnCjjOsKNbTuGGY4fQ6dQRlS13n9cCZzNcurSON8+9ifMXL2E6K+DULbfhzIWLePXsBST8mxQ35nM4eXQViIcozhP8ws9/GjkkGE+G2qWWK1XUGk006m3Um21l4MsSyUjn8RDDQQ+DYR+73QGefuZ72Nwd4I1LmxhPi5gSmBXzaDfquOt9d6BaAM688bJA8c03n8Ktt92KI4cPo6h+vLUD4hnw9HPfw+f//Mu4sL4rfcVPfexhnFpbxr0fuB3Hjhy2SZTiksy2avm8i+ArD5VIw4JsWJgNYFKRl+vGWSEHB9ZWsGsytCkUfsSURFLvnE8ih49R+gozCq0FD06SKJDCxWQEMQcSDho7x2M5p50xBQdG4TNMasysCQkeWaxjTOcUJFrGBpkXXsOhBahdvTYP7qxQW8EGREnLEeKXBeUXzgNpDjJtBZ77EIKkYxgsuQQksmdemzkIrYU9FusUHBgQz4IDMRv8yjCbSkT1UEs93RNSJdIsFFBdO4nV9z+AXNTCPD8Xc9Aq/2Br7Lv5WQcA4d189n6E925Ffo5//9gl/OXZ2FoIKOC+k3V84kYKvRhQ4qSzdrmLHbDWI+/Hh7ew5+Zc3I0pTTefzGVhHI1GVlvpDWS+wWikvnB3e0cBOMqMl8jQFNNhx8KFj+2ESrOGStV2pHx3qc95sQTYYKbQJdWHKKkw5EsVTAt19Z8HW+vob14Akk3UCjMb+OMSCy4UYdAeGQUWD6rjSa9rWuP3fZBapdbAes+aQkkPdcY2Zgvd3n7NgukwwCFAxamBXgBstoK7FcK4Zl/5+LtKxfP/DsxEKkbkN3zGRNbpkP0YJsfyKYBB5ehtBeks2IMedNG/cl7sz+sX1vEHf/bnGM9mKJAiT2I8cPdduO+OO3B4tYMoyqFYthyBZBTj/Lk38eaZc9IJdHt9xROry1ss4NnTLwucEoh2WlXcecdtOHfuDKa9HXz6p38Sy0sdDOOeVPPVck2goN1eQaOzLBqaCYvxeIhpzGupKxvipcuX8c1vPoqEjMGkiDcvbqJQ5vjvAm648WY8cN+96G1dBuZj5ScQqJKtuvXmW6RJ0JhwF7a+8sY5/D+/9zlsD8xy+M//81/CzSttHGk30F4+pOsy9NuzAtNwrPfoDZTl760HBkj5eGM76dYOUuqghH9ByW9ggpHUBAUs+nPmHKQOCTYEoXYcWTe2GMzKODWR6ITx6GHOgzkEWHDZpqOQ0f6wXT8MIRpTxOjxySaojTX4jO8tKpBZMa2B9B8EGCLp8phzeJnGZCeYxhRNJkjYlnDmgAuKRkvn82JvOCSK162UGgJJlgaasoGyf3pbIRMqlV1zsuxB9noOIVKhdZYFCZoLotkmweVgbE8h5Byk6x7UVqh0DqFz18dkZSTIOrUUXTc5B29XQg4Awtsdoev4559/dh1feGUkKp4jm+9YqeBjp+oavCQaUIJD85tLPR0Qg1ufUmVxptaFwqxdv6yBsNz7EanfWLsVFo580exvXMxj7jTkrXYPuPLvzeXAR1D4i0XgAuMjfbk7SVsa7lowsVEosjnMctw1loBS1ZiD4RSD7g7GOxeRj7dRL7CQjzHLzEqw8k2tgdnouGNkzr+5Fd76QZaA7Rq2Ua4GB9ZzDfG22VfZ716Q0oIe+AAOPD7Zxi0vRhiHgiLXVao58IZBanm0ykN3gqSIvgvb41Tg+/aEvD3f93ZTYZ6gmoxx/rnH8MLT30X1yCl8/cXXcPq1M5gOe6gV8vjYQw8KIHQkPiygyNCiYhGzeIpxf4BqxVpD/eEQG+sbOHPmLK5c2cB2t4dhMlEfeqnTxnKng5WVFlr1kvrXBILxcKCeNHUGrc4y6u0l1BptAwcxLZBM2eRAr6HEkWw1UO/RH4yw2xujNxpL28CMgNW1FTTbzFsoolGvKTGRGoDRcKCCvLTUkUCRx4rzR868eQl/8P/+GS5s93DXvffglhOHsPvSs7jn1ptx14ceRNRoa+ecMgJ+YhfgwBpxQRBHmkDPpfuAbpRMUeJ1nUYguygxLZqi3RlrzK8ADgzm85zKrUBgwR25wATBwZg3n4oawZ80A56oyHMjK6Hv+sks8HojOOB9ReskRacEqRy8pACkfElftBwrIdHoNH1i5iZYwmFwKnCYGpkO3qEGPPU+eS8ptMmAioCP51uIJXHxpJgOxTUTLO0XPy1aArpH9tGHWXCQzWMRmBB7EIYv+WrFDYGcVWFWqrc7CkBp5RiWbn8Q+aijY3W8XUC7vMgMuY7Lg29U9h/d6/0TH3w+7a5//7Fz+PKbps4u5vL4YCePe5ddMa1WOhXypo4PWYQWuBNoPt+xmsE+9Q5Lka2sAE7ls0VHfeEpF5kcorJF147JEDDFTVSspuUYIEjTylhojQmgcDGsAWEnNIrHlhIXolPFchiVHy5pMiLTHAVxdUyiOvrDBKNeF6PuOqL5AFWwLzoUQLBGiqc6sjBqcWJkLKlU7nreBhxQgzAt2E5I7IcPcsp4tq8FDrS4hkEy3saRaErRs8bUSHfg9i6L610QEMqEcDHINZkDPZXgwM7X3rYCmRqP972GZYypUHTz16ZDdF96Ds9/51uYtZaBk7fi//69P8Skv4vVRg2//HM/j/fdciOqlUhpiKWKBe3EDFGkC28cY5iwiBMojjQFkcOQhoOR7IUa1Tszrz8/c6NRRr1KZX0RE+5EpxOUylUsrx1Da2lFQT68TBi/PR5x3sNI7AG/xvEEkzFneYwQ+5jwClMaqVWJ8iiXKOLjeTWhpAFRHt+8Ap10DPPmONkZxPg/f+t3cebKFn7jv/sNPP6Vv8DsjdN48P778MBHP4l5uSFgpfMVcjdc2Lr/WAenAt+4hgV528jde7rPLK/A2AOe9wAOxIhR4CeAYFG/ZmXkmTVwkIuKYmP4YGtAOQeTsWVG6H5khojPX0jBgaT5xhxMp9KGKKJ5wvsilj1xjkTAgtHLJYGDilsnF2lAPNf8TJyloIyECYuwRaVztmYWHPCYS1TM9kYYE+3WXXOC+qAwD3hajCVfLNy8XwxMGNh6K+Zgf1ibmAO3M4ZwNVtfoAA0y7b2CaF0yaydQOf2h4ESQ5DmuGG5hGb03gEHWmYOhjW9VxCD7Ta4tvzJ99bxxZeHokV5kx1BHx+Ieog0Bc+rj3pw3tfW2GH2zcPu1Xrw2m2ysIfwIcW1FhD5FDgWxCk94HotGtCKEvtwp2EtC8ut1054X/211zYGgjGw6WIpVfgUU28YMipZL+AMggEUqpNpSaoiFzUlSOyzaPR6SAY7KM8GqBRIo/YluGNB12LCHivbCVRmk/2mYDEiOAgCh31CB4cvzGyXVMCjYPn5+H5VJNzSds2du4MDgQRTUvpgHgNKtrmzoUQCBhqi4+E1YWjPVcyB8QVifGRLNUp34XJYSBLd5Z2xc9o7sV+3HnCpMEfu/Ot45qtfwsY4wSO/8Gv4X/+P/wtn33gFJ1eW8cv/5DP44O23qrhRPGgJddTccQIjKf8+8lKzTzEa9ZHEnH1AmpwT/NyulyOwmmOcTFGpVlCpVHRTTnhuixFayytYPXxUzAGLJ8VztEGOertI4p7cDbOEQCFBPIyRDIaYxYnAXRTU+REpeFLWfMmaqe5ZKGGpnJqpwZJoU6BxeauH3/7sH2Ht1G34yU9+At/60z/CymQHH3nwfpz8wD2YluvSDTB3P8sChIREaWf8cJpd0ISqutaCOt9vNV0j1GmE2Qoe9qMdr7IOeP1TR8BWQQj4MEuiPkNgBXI5ZTJwBDVbEQQh5oYwPYVshCzOciV5LrezDRI/qsjTFsr/TfaAIUpAiTbGnA1DowDSoo2ZMpnnnannzRWiNBX4I1AwzYTtHULaoTEdxhzI/qi8B7MxanMQWC+Bg71W0LBKB3CgEd3Z+GR1yBbXepYJ05ownUlLkuqodLuFO8BzEzS7oyDnQrG1hs6dj2BWbslqe2KpjLZdlu+pxwFAeA+dbt4of/TURfzNuQkS7ipneVQun8bS7qvU9y880GECrQa38KYzdXYYt8pgFNvSW1VX8Zbil57wonILWu0llKJiGnTCAkDK0ubVzOR9poQ4ZL0vbEgWrsL/NlKc6+/i75gdyalAFTL2iv0NS/PFZZ4e7DKi+jKmxRqG8Qyjfg9Jbwu14gSVIgNl+hr+pAVb7RPSthRhFREV8qKgo4g7rvA5nUq1Lb9fNQyfMZqUIEhhNenIZRMzBjW6GTTfmiq1l7XURgtosTHSaUvBF08KpAycXW1lTFsOKRvAYp0Jvsle62orZNpHdqQdHNhCyhH2nVyCM099G8987zRG1SUcv+2D+M1/85u49fhR/LP/7Jdw4siaMU1erLgf4y6XEzlZqOIJQ4+mmhY4Sbir5DECZgmLJf+mTS/k1TOhz1yFK0Ln6FEcPnETKo0W8uUKSlHNhwjl7fWSIcb9LXQ3r2B7YwOjYU9gZEo3xYD2yZlNT+RsBQK9sg0pYp4H/foM39L5cXtbwYOnxvM5BpM8Pvv5P8VPfernEY928dhf/inuvOEwHnn4QQ3lmShml5ZdoWM/qwunCF83bRs5G6frgo4GzfMwxiyITcUAKD7cro9UkCjmwCOGJxymZAFgehA7KT6ZhdsEpwyqYtKk2CfpeNi/Z3iRz2Eg28T7LjvdcmJBRGoP8NxQlKgvggPGYkcCB9r5K3fC2gq8diRcJnBhO0Ipjj7ZUUyesYg2OdKdFWGwlA+JMrZtITDWfejAYL/zILgMwrHhPS8LoicgcqeRvVeyl7pYTG4s9qz1bj9VSmp2umMB0coJtN73ACZsS85zuGklQqeyGJf+HioZBwzCe+Vks5/6xdPr+OLriVT/jBqevvEUZi9+w0e8BnW8ZSUGrzbXLN1CwUPsI3S1UnGh12Q+LkhTjjxCp7OMw0eOavgNF6vd3R62t7e1AHFKHkEDnRJT9jrHiRgF0atc5CgIDENi1POk1WuxY9YiIXFk3vQQeSu7C8Ef/zfpywqi+grmUQP9USLHxCzpolaYoFywXZIm5GnBtr4CVfjUOHAWQCVi9kIZtRqnAlpB9snvdrmkgk22Myz22XZNwVJpLQHtprXoXw0MnDNwC6b/DWdWDBy43dNbOiE33j7/3lyDbOZBqvzWNw0gpMDB3rx/FodfLozTYXBWRkK5XA7V2Qjxxnk8/8yzeOL5l/DpX/4V/Lvf+/fq9//aL/4nuPnUcWlNdSpIjaNgvW8WDCbnTWIkCfvaQxUh9cALBuDmFHKK3SihUmmgQH3B0hI6K6so1pcwmroFLVcQk0BbIic7KtCJcGI+QVSYo5gzFoJfFEtSbDjs0i45tsjtyRjT8UiZCAxT0nWs2SLe2nK6n06CZDrDeneAbz/5FD7+8U/gW1/5S5TjPn7igXtx6sYbMM0VkTDvX2Ayp4FjSu/0ZErR054nEdpcKoDaIXv6pSKA7RF68mQPtHt2cLBISTRwwJkFBbMRuWOBu3IOk3L2gDt5xiez4HoMMl+jmKcI0AdlOZNiNkQ6f+aIQzyzhIVkvZypIFD1gKaC2AcTJBLUGzNC5sDnneg8+/vksfZQqnD9G3PBIVEGyPjpOVKbIkgBe4FtX29cY3Mtti3rVFBLKNxS7vwITowgzA04np+L4MAxlYmX3YJKwEWQoVhurTN5FFuH0bzjIUyihq7tm5YjtCruK36vFIvM5zxgEK73k+45BF/43hV85SyFR1yegZ3nvoHh6W+gyELkauGwe8kekoDcteAFzlA7dRNaqffo42WXl9dw0003otVqYzDo47XXXsfGxroo2GanjXarqR3F7u4uBt2eFnXS0sUyh+VYPO8iQtXo4ECXW5G14hj68GQPwvdtoWE/voRqvYNCuaWFYTDoYjYZICoy1Y82TusBz+kh91z3wEiUSnk0W010Om20Wg2J1azjvxA+SlSl4S0GbGQBVQFYCJ6kvPZwm4AN+DnCQJhQpgMHTfZCU/vCDj5MZWQR4jsIaS1u+wpWR1v0HCwINPh3dKiC5iDwMI5tPOPPKGY/vr56LloiQIlTKXc28cKj38LpZ5/H6qmb8NDP/iz+93/7b/ALn/40bjlx0gAWd/1+HEjdF8sV87XTEirqnlR0QYNtbJ3mxAoDTUXu0DgIyTKCVDgUjEWhY7UimyoHLc1I/ZKWVuyxZ+zzHHgksYZfhZaOwonMQ2++CAeUGslNR4o5ZCigy5Map2I/ZuriENS1nHn1NVw+/zq6V87jxMoK7rzjdnsv/CzeIw+lOtXFhGOvIp8Bg55rwOMUMg5SAS1bbiyctLzqGHpsIa/NxAAPswPENoRrSyxfTvHjc82uEO8nxkbPJzhwdoKsjuYhUIjolsbgSeZ7sIFJnsLo7QSObdZQNLWJeP+x1UZQbywEf5/ggGcgBB+prUZLI1sTQVTLz1awcdH6jOngLGsrSOeg3b/bBXg1KBDKZiMYWHXGzoOPDHxfrTkIWo8saA5AivcpcVUqs3O2QWJEZyAMmPGzzlE8dAOqN38I01JdMPrmlSpW2VbIWiCu93qx7/MdAITr+IRrPZvN8PnnruDL5yz2lRf76MVHMTn9ddQbdbTaLe3suavPhoVwwQm+5NR25AIi0Xzc4XFhHccSi7HAHz16VAsLxU6c6re+vq7XpoK91mjo5h+PGZLU86S0KSLfmaiX6mskV+JQcA2YmN0pKJYtNMZn4KgYmgASc6YYlVEs1UVZM9wFSFCkAmluCXAhp59/z3rmlvjGjXqn09JnoNK9Vq+aPsLHRYfeJ8VfXJA5p559WBY+2634LkWLI6Vje1mDPeAgPFf9W4tNNjmD8dU2ptho6sVwR0+E8xyExSKaDUEKICGoxveluJDt8B3uXlbBM+Z98mOJR2+wgVcf/TpOP/otdKcl/Mb/8r/hC1/9mrInTh07gVqljlZrCfV2HbVaU7MteiNmFZCunmM46IsliGc5JFrYjT4W9czeheKI89rF1qo1tBoWeqWpByr8nJlAcOAiWRdYMo/B2jCcIMiCQ8BmwGGo8c+s/2xncXdo4NeKpfnhpTeYTxWPzO4Ri1t+HqOUTzDZ2cAf/7vfws7lN/DIQw/j1lvfD5QitbzMdhp4JEvdS3UmntK3p+/tLQvdOwQiGXcNj72p+Uvqm4d8LWoTKDA0LQtdPRPX5hj4ZO0k20AmJNgTlXGg3yM4sGNCEK77iS6BIocnhcmWJuDVMK3QUiCTxrkVSjg05sBClKg1MEExWzRZcGBhTWThyNBYzgEZtLBLV+4FHQ+u8xCA1DmbI2bwkrMGwUct54XOry3GV4MDuz+ygsSsXfcqcKDrYhFYtef+FHtgzMHifOVRWDqC2vsfQhLZ2nHXoUiCRBNBXZ2/cB2XjT0f7QAgXJdn2mg73od/8dIGvnRmrBx5Lq6Ts08j99pjaFTLWF1bQ6fVRlRmKtoijTCbShh6fsEtoELpQ2JI29LTzoWiUq64XTHR4CUuTqTrucDw9SVI8hkEWlhCahyJaRdHWrvCREtB4BUm1oUFIvyu/uUqIBGf1VjqHNQWDqInesznXMBM5MgFqaT3ZYuXjb61HWmr2cCRo0ewsrqGer0sut1cESYU42vY6GGOG2buPBdBFh3qHawNojEunnGQUSwYmMmorVOvvHYypjegzTJL8afMiRaoa4CDVIi4lzlIfd9BhEa+SC/hvQAHGGGna4urBS+JFsYM1aSLs49/A09/9SsYJTnc+tH/GD/3X/xLfOHPv4RHPvJxnWteSxrOlIzVxpmBtkYqAanJMP0F/yx713YuLXebDEGpXFTqYElTOU0MydeiyyFE8DLhji0nhiCx+CjIRrtuskyLaYZ8bV4zypbwKeICDgQNtKqmEyxNhMqiq/kOAi3AJBkginfx6hPfxF9/7ndw47E1PPDAQ1g6fEzDnwxQ8Twt9AHWYmK2hYn1FgUqXLc+HlwWvJCqGJo75uu3yYx5sSMClxQu0vqYsTMuWDsrZkbV29RJnjRe79b3jwWYdNxdC6KcAxXq0BYwlw9nKsh66HkF9v5I99tURhM08t6wQWnUHRCZmJOJf5ORyYmLTBnaZPdEQAdkDjiSnf+K4QgR6Q4OAsgKbTeLTQ96mgVASFs0b+FWCMxB2kKTmyToN2ZipVLmIMMCcsiXZEUewMbNR3H5OKJb78Os3NB1fctyBSvVrObABSPXZa34/h/qACBcdyfdewo54AvPXMZXL9MhwHRCoLzxOhrnn1TvstnuoLO0jDrjakmlu9I9FG7ttj2NTQuiL6rWbzRLVL/LxLqRdiTD4VAFksK/VpMphzaER3oBn2Ufwny0oGZ32FqEF6Ah/N2w8JBqViyt/NIm9rIwJBPxSX2dCVrh/zbrFp8fcupNAFigcIsLMx0UBVs0OR9AbYXOKnIRA5kNNMgz7WEzDHFiK6XIoTKesqcM+kJQn/M9qvTsuaL2goPFz/h5jOo0kKMgGo9ezvZRw3nIWrZSEJA+3wrIQrhoe7m53o/1TxcuhkVbAwbfpAAAIABJREFUId2FcTcty9wUlWSIK899B9/+/76A0bSAzXyEf/6v/gdMG220l49qHgETMDmTgsWo3m6j0VxCIR8h1phhO6YaqKWdqTFRPHe0EZLmJ4tE/Ul3d9eKSy6P5dVVlKs1jGJaICdKVWRhCr55FhJqGuIxBYgTgRmCPVkjHUDYztypdxe6SmsgbMJ20wDVOoVnc3T7A8Ur37LawG/+T7+B4u4FHF1q4yMf/ySWDh3F1PvlRleb1ZRFVcmWnCNAN4mL7rI7Xl03Ri8QsbrPZTEoLOL1QnDAgKAwzIhFOpkil0yQUwZB7PMB3OHj4ID2To1jpoZnQjAdYz4eZyxAOQMQcjXYsCadD33ZPSvgJIBOQGHzIpT/qIhzAoMwldHyDmgJnbAF5vZJE4gSsBHIEyhMUgpewMeZA/6uxIyuqyAwSRlKvx55HDTzJM1V2bsYB9Yuu2EJ13IKEJx2IMwO4WQhGyX7anwtN/TaJFnh5SlK9VMo3fEg5lFVx+mOwzUscSrje7itkD1uBwDhOgMIAev+1Uub+JuzA7OKzQuo9S6ideU55CYjFKIyqo0mWk3G1Xqv/Roxpga8DRxkmQTu9Ab9AXq9HnZ3u0pAJF1fKhRRr9dQLZN+ZyG2YCDuJDSURfMMQs98UUuNOjTxlu0+bVdlu/7Q+vX/Vv/TwII5GhbPC2rsxcJiQIJiyZmS3ZgFzwfdCuof2PCgSkUDf7SCMDWOPWrfuWjHxFQ5UrkkHz2UhqxHVKppl6XhCKTv97UV9jMHC4uV9UekPcjNXHiZDTgKF6WJ3lSAgr7AVkgHBAYEFtqDxf/GnM6T7MApLzZBc595DVo6yaUU+juIL7+OrbOv4vyFiziz0UfcXsF//d//z9gas9ibUpxugVa7iURUPg+jDdJiz1e9bd+dz0gDiN5hRLU5CkKgEAsI3S60NLItMaIHLV/Szk+7P78GzMVinW9S5WYeNIEpz4kS8NROcussrw2OwC4VUOGocApgvT0hn/6Mmpkx8rMEr9Od8aU/QWm4gVtuPIUP3HkPau0V2gPSmGnbhWoUZNpS0PlIhwbt7ZXrmpQI2EO/FBZmwND68pwHYm0F5Sc4CM2JPWB2Ad+jCxm1oyfDZm4FjrQO4EAiPyYrzu2atjjykHVg95rtku0eYStCeiHlc7BY230wp9yQxzdHsMVkRGMQ2CYwbQSvegPKPN5i+ATIjJkLBVu/T8eDixLZGuK1STAv+6PuZbfQauCazZqQOPAaj7cDB/zdoFfgy5IV0SYiuBrCa6aOI6AoTQ/vNzVsUGoeRf7W+zCpNHSd3LpaxVo9xKhf+31dZ+XibT/OAUB420P0bnnCwkj3hefO49tXTDxHanR5tIXO1guYMG2OfU13DXQ6HQkKa3XONFgodd3BbR/cxyRrIZvRyz6SAJHTGNc31oXGy9WKdtbqI3tfn4sog274M9rK+JBQmIuDF/1sW8NWmgUgMWBgfcvwycLwlj3UoQRursJmYQp5AmQPCA6oYB8Oldio3AXZrsxDLiul28TmebOggWyLC96oy1gMjgkMh+XZcwG18bbmmrC0uL16hHRRzFxCXKBkdZPvm19us/QdS7aPzQNi9s+9wq1rMwgZ2yNKAoUz7vIXKkkXfDrb4AecGQ/F3ASlwQCXXvoeMOnh9ttuxte+/TjObPZx/yf/KdZuuRPTQlniPwYNMewIhQj94VjFnKFD0gEodoHuExPPiX5nYBJHDFMrgAma7TZqzYYKEnUCI+oMpsBgTJAQa+Sw7XxpZ7SiwmNcr1QFEliUJC4UQPC+N6f/JSY6ZWmNOD4YQGmulAMDqaWCAMxgsItoNsBXP/9Z5DfP4O4bqJvJYWX1CJorh4zy99CtAOgUbMR0zzBoi44NjekOjhCJfXxyo7cV/Lq1e8gsidIcOHOgwCRpeUwsSBcFwYGJGRdgjgWbLQW2ZngumTpIwJqjS8PHUdOsSZcAAQIDPDQZMZ1+yqRCTmTk/cBWQrzQvDiDkJ3KWMqXLY2x6GJEMgXMb5hMEU+HPnHSUz55buQ8MM1BCEGSqFTi3dAyXIxwC6yVZjC8xS79rcABD6XCpHxIGU+IRMK6/z2hMrtcB7CgVFdXBUlHMgXaJxHd+gBmxZqO4x3HmlipvLdCkH6QynYAEH6Qo/QueQ5rzl+/uoW/OjdFkSEuszlaoy0s7b6M2bgvgRB7vVzoKAhrtJpotVqo1hra4adF2j+v3eQeoCLWoI/+oId+v4+dnR3drM1mE+VShEatph1ScESwdyngoIXNd72Z17WFk5HCe/3JaX8+HHMXpYXYYd/6pGckvD82HGQ5U3eAvdkJEg3uGQjQhOyFclTWiFqjh03pP8txJ+oirTknNlrGfInTC8UmWFtFdk7PPODbEkgoElzx2AUB4GJn6LXBd70hytUKQ47zDYJlMXt8fOMSrKYLTUHmGF7FIGTFicHZYbukcE6zzM1Cf8AUzSkq0xjdi2dx/tUXcPLkEWxt7+LcRhdoHcZdH/sUZlFLLAwDj/i5YxaMXAHN1ooCq/r9Eca0rGr4DlMO5wKHeU43LObFEtiGkqJEHke2b3QAdb0wUXOkECBOSSwrvMiKCxMW51LRU8xKWpu7UdrPBDUlms1h6mOZyVgQfLp3Qr9LtmuilsRc0zrH62ew9dJTGJw5jTtvOYXcdIJqs4Nao+PMQRDIUn5qxUfni6/r0xIJfERRB4stbY+h4Es8uVe0Kqshlfx0YigUzJkDif1itSLYXjDK30+ZhoSV/Dhy3kHB2A9vQSzGQgfHAMGBZT3wPKitMJ8ikYCQrAkBMt+bZzCEPBGCXf4dOg7EAFgio1gD7sgTWUQQTxjJngjQiOEg6yBwYHoFAwcmijVdBUGba38yn0lhUD43ZG8zzp70/ZiDRZCUXe9qK3jUMt/T/tcLegfLAgn7jxnQOIribQ9iXmooLfW2tQirVXO7HDz2HoEDgHAdXRF/8cIGvnWJwqEiSrk52sN1NLdfwiweKLJ2nMTSDHAr32y3VNxb7Q5q9boAwkIXYFWKC0s8Him2laCg293F7u6OerntdlvuBArWqrS2adqa7Ri5s6Y1jOLEaz1ktw/UX+auVo8y9BT8F5WC5oLG/SuANAne4+Zipl9lYYkTGwI16Mr/zl0nRXHliO+zYsKpHK1ejIAmMGA2RCLxIhX1pXIFEXdt6o1yUebOlT3csSvArXcbleqICtRaFDXzQUbFELu7b7WyBoR54rmXTpkDsxOku3svfU6f2kIY9AdBuLjQKpgYcPFzMgcurpJjYUHpmnlhof0Qw8MwJAKj/jZycRfd7cu4cukyeoMYo8oK7vqJTyPfXMOQBXw4FCCqcXqiil0koADGAudLeg4/OxdcTrpiIWQfn3M21LPPFzEjOyAKmu0PrvATxCNmJCQocIqjhv+UVZhoeVQWf8jFkAvAig7ZArY3VKI17Ie5Bhb8JbtajroEm9ZXlLV1hnqUR6l/Cc/91R/ieHmGI60aKpUqSuUaShFtjPRuqJlmvICLavkawbaa5xEj0lEehxcTXXcmMqSaPwtg1SfXLI9IbMpM1Bk1AHY92VyF2NgDgQNniiTcNUEigRaBFdkU3o+zZJSZ7hmKO3f8ljVg/Xx3K0wZYMScAoICY9B0fTm7YQWXzEbZRYUR5g4OTOdjwkneJxQjUuBpqaMGrNVCDIObPObZgJPNgjDbY3D3WHtK0eB/x7ZCAAZZt4LaCmG40/62Qsg6kEaH/Eo6hgzz9hHMb34I82JVuqy7j1SwVnP28jqqBe/URzkACO/UkfxHeR2jOAnov/LyJr52kWExc3n9O6NdtDZfwGwyRDymQnyIwXCIwZgAoYRmq412ZwmdpY4EheZkMDsAleRkGthGUPDMcIDuoI8r61cw7A9w7NAR1Bp1lEtFVCKj2U3xbItUpVJGMTJnhG0p6GojXW/0K+lZEydxsXKRnhr2i4MYLE1BjBjEjtpluBDMdAL84rrLXVJi8b6jIcajgf7lH5egTTqIqnZLLEDJhK2SLsbjgRYQCuga9TqatQbKtSpK7PfqLTFnnsMME4zGLGa0Thp7QA1CPl+xIuWA5ypBFZdT6gzkhedKRQaHhT+NqwzygtStcLWmwGHDHubAvqeQF/2Ct4g0W8Fjlh1cZNsW6uLIceFWu7iLIuOKRzs48+IL6I9i7BSb+Ng/+XWsJxG2+4lYgUajiUKtogCjoY4zjweFajOBwVqNGg7rrfP4StbncdC8HjSy2LUF2p3SIjsaYM5BTWJtSihF1K5ESinUK6SeeBf0yf7H3azZ9Lgz5FS+iY4ozxehgh2P0TjBJB4hygON/AxrxTE2n/wSVuINNOsV1OsN5JmoSIqZO950Bog5TtIQLUVK8Dib4FbXn1tFJXZTLKTnHEik6Y8cUwjZiiA48GvdmQWyBrRX5lSAbbz5gjpwLQEFnbL+FgSWNP6ckxlp3ZWwNSQkchCZuRWEuXw0NO8bFdCE4UVDt4a6nkLHK8Qv+1RGaiM8FEzj1mOzT04YnqQAJNMq6I5wt0O+UFbA2ULvYB+D7J3EpyYocjDhzAHvp2u096/FHAThdJqQmMqWqDkxEJnqNex2MLcLrx2BOAMGUj5xaFtjDfNbPoxJqY1Cboo7j9VwSDkH/yiL97vijx4AhHfFabr2mwz19Msvb+PRi7yhLQ9gddrHyuAccuOeprOxaA5HpNpJBceiIOvNJpZXVhRgVKlVzZLkXu1JMpUrgWpzfg1GI2xub2q3R50BmQMVuflU9HG1UlXeAQsFhWclt01KYDadYzQYSwNAgMJiRXBRrdZRor1R5WABDmz3MUn/dojwVWvAC7FmLUglbjkF7Mmy9bHb28Zw0BMVHRIQuaOU1kCK90hrFhmQbncHoz4tmrEElo16E/VazT5HpWJhNC5GT6NoZ3FGdFlDpdzwEBijRrMqbVuvzLsucCB0wPha8//7kIkMc3C18HDhXAg/y/ZIPbXPw2vsCrGxzqmIMQhCs5ePL4ZF7s45l2C0i+HGBeRjHos5zg/zWL7jIcTNQ9idFKUT4FsfUwSmYB5aE412t8JAFsfpXbdL8ng2mw1dC6TJWVflCPGdHjUMCZmdeKyWQESwVY5QjCo2ESGwS2mK58JiSBBIkCCmaArL1+dn9g19zCFOBKLMPpjP0CkAq/kBRt/7OjqjdbSqBIqRmAMUnMlg0fObyRwYdMLLM2hHNQ29CuqcAHxtlyyAsKfIU+tiDhe1sfz4K29ArMFEvXyNNr8GOFBbjqmFeY8qpxsiSZDnLl6gy1oW5liw2QY69XTu6G9Q1+AMBSeVeoR3ACFs4ViIER05ERSdLuBjbQXeTwRuPF/T6UihUukpYT8/tBX494MLwcah6Hd1TNwWGdwGFhxmUy2v1QpQ9kUQZ7KoS0Rs9tvsNEcLJrNrzoTK2YetI6ZEWYADujMm7WOYnLwbM85myeVxz7EIR+qEDjbp8uBx7SNwABDexVcGWdYvv7SFRy9YQSzOgZVZDzfiktoCpBeHg7F208NhX7u+eDxRn7JNW9+ytRdYEL3Vj5iRsyNOdWO6XCxF+m53V+OaCT5485O+ZxJipVbBytKy0gfZrmg0GnIEBAqRi8XW5jY2Lm8oNIkF9PDRozh0aA3tdlMCJ/PB24OLX79v0czd3a6eX6/XFejUbLa0aPD9iDWQCHGG0WiAzW2+/kWMRl3NUCAjQuo0l+dCxc87VStgNo3Q6/axtbWD3u62ihQXu2qljFqzaeBGu10THJJJ4U5IA35KtlPiMCHOBaiU2ZYpp+87+zlMbCmm3cEB9QY+EEq0p9Ou3l5QEdo/WyEj4Ao/28MEuDKfYURp+JGnJ4ZWwl7B40KcyLdHcFCejbBz/gyKk77cB28Ocrjx4Z/BSz3g8iCRzkC723xerhcq93PUAYxML6DCx947p18WyBxVsLa8jE6rjlyRC7mzBmpXzdTiIis1GY81Y4BaAh4KagwqNWo5SI3bREcdIR9FLDW9ozUCXgrmyF4MxmEkdg4M1SyUyxjNjD0p5OdYjopYmXSRvPC3aA/OCxwUShWUK1X6IDQHwlpddj5sF2vaAztHil9MQZxaADzGHnAV7IKLCaSmu5NCn64DgrdMyJKNNE/UjuAwKbUzMhVOsxVKHoKk/AcXFiYT5EnvsxWWK2h4Esel54pltRaCxseYMXcrEFRQN0D7cGaoEXfSnK3A65lAKU05ZGQ1tTbu2hGYYXz4dKQ0Qg5FC7obtRUoTNQJNEYggANZQTPMgQVV2TH8QZkDJXB6aNf+a5iR8aG1cNXSLQGi6UWshWbxydPGYUxvfgBJgeLYOT50qo41hiAd4IK3rX4HAOFtD9GP7xO+9vIWvn2BSJ/FaIbl/Bgnc10UJjZCV7T4cITxcKh5BGQSqJiWboC7eLYJKpECbpQ94JG1BBa2o8hJKc6ePi2NLNwXzr+J3e0t1KpVHDtyFCtrq+h0llTA+T1m5vPOozDwwvmLeO65F/H0M8/KT/3ggw/hfbfeisNryyhXfNF3t0ISJ7h8+TLOnj2L115/TbuDUydP4dQNp8R0kLUQ9ezjckejGLvbG7h8+SzWNy5qol+zWRfg0e6KasX8CFFpphn2SVJEvzfD+sYWtre6GPcHKM1nOhYCOK22RGSMZ+YOj4sQC2NUKqNUqcgOWa2WU4aB3w9DrPbsAt2qGYYAWaAO6fCwqwrgIOz0TWNgu6S9DEHACPt/LmZBvXATR+5/pL3a/VHKvpfV2G3a24Y72L5wFuMkQa/cwtEPfQIbuSY2B4lmaJieYq58g2qtrmAjXg/cvUkMyHkNtTKajYo0KbVqpEpB6BAntrvjF3UDZI84sEmiMv2+TdDjdSfGplz2uRE5zLkjZqEPUyjVV59rd0rRIf/+KJ5iNPQ0PwYi1aqIKsw4sKPRjoo4VJxh/PoTKFx8AYdrNuI5R9bAnyS3QspeWTpi2PkaaPPoXxV5Cx5Tg8snipIFMN2Mpw34TAoGBVlbwVMfVegp8HNw4CPBs20FhSDJrUBgYTMt2PMnqKCIMVAc2r3zc0hzEEKQwkwUsyFSl6MEUIkSCSxsl2zAiWJCCzDTPe97aH4Org16n7Il8nXMfSKopHRFsnAMQjIGQ64VV22EuOf94EBtIp8Hsv865XODyNB+tnDtZAOQ9DeUkGkDqHVv7nmYtkPqCzEI1J3YsUmaRxGfugdJqaNE1buPVHG8dYAMftCqdgAQftAj9WPyPJYZ9mz/6oVNPLUuvTem+SJW0cVN+W0bDEPkz0nuKu6xwAFbBgpKmUzkLpBKn7Sui6HUL6WQzGVFNjipgGmcYHtrW8X75ZdexM7mBurVKg4dOoTVQ2tYWlqWVbLZaKFcLcviNhyO8NprZ/DYd57EV7/2DTEZP/Ozn8JDDz6Eo0fXUK0UMnQiMI7HuHjxIk4/fxqPP/GENA8fuOMDuOeee3DkyBGxCKSMRS1Opxj2e1i/fBHn33wDly6fQaVSRKfdQKPZ0Mx6WrmKxQTl6kSxx7NJDbs7E2xuDbG5sYVRf4gSxcy1OpaXltBeXlHbZcQdLoWIU7PWRVFZjEgYMhWVKXRk35XtDp9xsI8vDcppbh2piyAwMCZjsVO1XvZCgPiDgIOsUJHFZ34tcJDRHAQdgxW6TJM1B5ogkZuMEbnSfbfUQOv99+NiUsQgtgCpSjnCcDBCbzBUNDa7+0FcVy7SwdDEUqeDWo0qdo7ttowLpRPS0j8FhuOx9C8EBxR48od8jYitCu1Qp4gqZTFPLDwsjgQHCQuAesmL9y5Q4hS6doXqLs1x5co6ev0h2q0WljttEGhSkNoqTOTg6b/8HRwuJmo3cLCWKVis+gdwkP036/CwMEqvgg4OFAGuFkfoydvCoOAohSCZMyN9CHAyUIiFl21A7uhd2OhP0uhpxSebPZEsgNwCBAd0RYTnMciIAILFXSFkCzGxirsPrWLLgwFRGkrGa5A6CNH2FCRaa4F/04q7CRotPtnYGQILG/vMZ9hoaGp30smMSkj0sKFMgFIWHKj9FMLW3kJzsBccWDAbH+F39fl8nHwYAqW8i8xaHO63wByY3oAKixLGrUMY3nA/4kJDOqiP3FQ1QeJ8opktB9KDty9qBwDh7Y/Rj9UzeHN8840uHr9ARbEtZyu5XRzPbQs48KG9m4eTsN87Hhs44K4kzFiw6FuqxC1r3XqZBAk5FUYKDtmD3N3ewaWLF3H2zBvod3clSqTAiy0K2iSXllbUXmhykS+VpDe4cO48Tp9+BY89/jgKURH33ncvPnj7HTh8eEW78OwCSfCwsb6Bl15+CadPn1YxuuHGG3DH7Xfg0OFDqNXqpor31gL1A1vrl3H+3Ku4dOWcCnCzWUW9QZslxYIJSqUElcocUYmLex29HrCzNcbG+q60DWUU0G62sURwsLSkniTBgcSc04m5MEplC38qk07lccrr+9x9sRCkPZnsYsW6E8SWEpLRXqdSllFCZfQEKXOQdTEsWISrmQVnGpiQSNX+fh+5JyumlkbfBbvBKyPxYseDu64CcstHMV07hi3a6Bg7SycBhYZMo8QcvX4fW9sEnhMBNbZv2u26GBUWItZPEshqx0xIcTNpb4ZxPEE8mWo+AttTer0wp8KHBXFxZyqlQnnyRQx4DpjopzkAHKyU1zlgAed4ZulDisZ08XdZTyRapJaBkyLlGiiCo5tr4y4KbzyHldmWsSUuvvWNqhWZwAgEW6JXjDScSgISTyZ15kCiRAIEb7EYe8DuC/MwnDlwVoLfF+NCwK6cA+7s+f+WhcFfFDhQQqJFGoe2AjUHdA4YkAzxzJEJEpnj4fMNNBlRDgff/evgGPsgBoE7fsUnm3skhDVxq60rU+DAWguzxEKUOLSJugVlWYh1oAXSQp7MRrmAu3Sg8O/vZQ7s9wgo9uFnHf63Yg4COAjAR5CaY9TddbGfOci2h4T5eB4kwC0gaR7G6MQ9EiSWCnPcfbyGY9QceDvE1CQHEOHtitsBQHi7I/Rj83NzLPz1i5fx9HZJNw7R8mquhxOFDcH5QF6rbihvnbYwahE4dpf2MC4EFpXKNDmCBal8ldmeR57K6RJ78iZapKhxY3MdVy5dkO4g0JL8l7u+9uoqOktLUv4rOCaZYv3yJi5fuozz5y9oITl+/AQOHV7DcqepvqfWTrcz8u+zbbGxsYELFy6oeK8sr2gmQrvTUbtCNkenutki2dnawuULZ3Dh/BtIkqEAR7VGJTYXxgSFfIJyJYdKxEl0FYziCna2p+juDpCM+fMc2o021pZXJNQkMzFKJhjTL6+8f7YVCJrMlcFCxaJkam1WQ4rHKHZcLH3Z/20AgXkBE+Q4fMnTHq/WD9hwqvBQWyCjSdCCF/zb/jP16NUHJ02+CFBKbZK+SobXWrAILEb2Xggq2R4Yz4pYufF27EZ19KhjKJCLYkubNDJHBesiwpXLV3QtrKzwfFDUZynCZKR2d3YxGAyRDCdqX8XDcRqQVK6UzZ7n0xf5Ydkjp3bB7HHcaedQjMpqlwyTCXp0oJAiZ8ARhWWTiey1fTIQ4xHq1QqWWm3ccOokOku02dqCb1qUsRHpkxnahRlK519Ce/dNVDBeDEOyZr2fEzvyqbjUi7oFU5mgbvHwtoLaI95jz/xUn4UgW3MPPANBMzwIDCyOWG2VzIwRFmglJPpURtHhYgHoGohtLoPsoaZ90bhkDWAy0x7PQ2AMJPDT747EWll8tc0FMUFiiE+2As/3yMZDYOQIXpROSo3EnOoMu7Y1HMqHNkkfwXvcCyz1BBSMhjArHVnZJj1zwHUE+5fPIEbM3jOBOUjdCgqqMlit93WNhERlYIT5JgpmImNhrFPSPoLhyfsxLVQFJh+6sYWjNNnsB9Q/Nmv7j+8bOQAIP77nJn1nul1nczx6dgePXtCcQvnu1/J9nMhtGnXrSx/HEHsV1q4vzDCgl1/+cXrayShQjyA1tY/DpbBKxbaGerWmXi/HMve62z4UiTerpf5RUNZZXpZNkoVAvugZEA9H6PX60itwIaIegDtO9aZ9Mc5uKcgG9Po9uQoIXChy43RJ7hqD+ClkIPC99rpdbFy6gsuXz6C3u6WE46g8R7HI3ToV8VO1AKiFqER1jOM8ur0ZBn3u4kj351CvVbDcWZJjgSN8xxzCJMW2KaZteh2pWC9giooO85e5alIU5qpv+1CLIi9wwHG5jGU2AncBAKw4BVX3IpTFSe10XPNeNiHsZu35LAxcCDMU9jV0BntbChZuZNcEi0MJMUrIrx3HuN7EOMcdbEXT71RUuLvNT1Eqsm9urMpgNMbGZhc7OxSrxunQLR6r4A7kb9Lexp0+LY8hNMcAhS3ypLvZgmJOgdwpZTIxRU173Bn00BvRUmvXKJ00tDNqJDFyykjgNZUkFpXMz7S20sFKp6NWB/U0Ua6Adi7B0s6byJ97Ac0ChZYZC+Hekr8Aq34OCcDSlL7M3SeqXcLY4EbxH/p0yLStEDQHGmg29jHME+Rk+bNhSqywAiB0ECj3gUCRzIG1CDiHQcJYdyuo7y9wYDMWVDjV5bAYcR1XsgXUC3hEuFkRzeBnAUjGUoTBTVO2JeUCYRuDjIi1F6aKbV60dgycMCOB79MEl+GqJujZb2XUterH0ISzGYilxFOPhc7cM1lwkG3NGLNhmwNlnOx5Lc5Use/pvtCX5UhMa2sYnPww4mJdEzvvP1XHiYb9sqWdHjz+LkfgACD8XY7WP/Rznd3k/fToa5t4bpPhIIaEV3J9rM63ZTUUOHBbfZZeDrtXUYikISnyYp+dNjMKxrgAc0bBfIZi2Wh6E/nlBQ4Gw4FWI1KF9JXz7qpUq6Lm2V6QkIjlijudzI5m4lkHnM0guBL6hhm+kTsIthds9CyzCmyHLgVzaJOICKGfm4E6Y+xsbWN7Yx0b65cxmY5QLHEXxgJo6ZBMQKwyV70YIY6BIQN/+L4pYmOiX2T97grbQrgtAAAgAElEQVTT+uiImDJpL9Z4V4tO9imPpFVpk+PUQPLtPkyGCvAQSc0dfBYcKJiWNDbFiGIQ7FPYIrYABzpeYceTzSnwlSsNQ/L+u9gAPd92jQIIbC/YSy7CrTLthb2XqfNKfI15CXGuDBw+gT4zByLu0vPY7Q+xfmVdIVh0v7DvzV0lgRNbLhQx0pFQ9LkKejcqbAaceFwr1ZKEpASEaQyxarO1VzyxgyVLIKFSM/eMMgjyecSTOUYJo7xjJDHttTGGMUW1MzDMj/MaQouMhZoMT5NAtdFCoWwsz2ppivfNumitn0WUG8m2J2//fp2I+/0ZIRx+JODmA6/S40cq3QOKRJv4vSaoRhGl2gohPdSKv8AQj5c0BzazQJ/edHQSO/L4FMsVHUMyNbwOWaznCS2FPuDJQVSIAid7YCyMxR5LD5IOLfOdf5pTYDtqMhsUZvLv8F5URkUIFyMoSChGJONAvUE21IjmDbYlyjrOZM8UDSbyxcSiaXhZBhSkzEumCgeGxp5vZTo8goUxgOZQxPlewoCvvbMVTNjKV6DI1e4teWsVlDVuHkX36L2ISzVdd//RjR2BgwPi4IcvXAcA4Yc/dv8gv8kF4Tuvb+HJDS6tLGU5rGCAtfm6RESyUQWAIOv2Ii1PN5wG51iCHxehkG1AAdR0HCtshL3Tar3mO7+8GABSu3xwB0MvPP8K8xKoN+AOcSEOsh0w11whfb9hg69cO69MCE32oElt7etFNizG1hHbOWjATpygu7MjBmF7exPjuK/oXO5qwgtQGxCVqlowWPQplJTISxa8nGZEVJWax/52Ue0EHj8umLQrChww6Eljjwk2CA4sb98qMVsLIYzIR/T6h6FASqxOSOHT7s/K+X5wIGW8KGyjerPOhRQcOJsQNAgpIzCnxsKjlN+OOcgcaO6sihQ2VtqIW0exNS/ilbNnsbHFYxkLAAiIhIRLXhM8n3kToplljM4Cm+DIMB5S481aG51WQ1qPRr1meRvxWK2KUAso3tOnFIBlLkQelao5aGgr5aUhRwJnBWjRt3hv9bUV6zyVcJJBXQzt4vcJRJaabbXDaIclo3CiNMb70MeR0SaiItsNNt57/8O+5ZMZ/eYR9SyAsGBmQoInd+n2aXxXr+LkQFYpjzyPdt1rYiFZABbvZEwBgn1wClbd48fjV+C4bOkBgpXRJzgq1ZMv5QwLNQ0EISXPn1DOQIIcX99dHRzTPEds6Zw6esYc8NolOEinW/ITuDCUTCD1BhZTTnBgoMT+NucrECgzddS0C9IMuO6AjqbF4CVnxNi2yMwMCcfcbKPZfIPF2QigILAG/G8dZeFsH7OeiZ7mbxKEh9ZEsDKa1aSApLKKnZMPYFysolzI46M3tXCsuggj+wdZrK/DP3IAEH7MT+qjZ7r43jpvZt4geXTQxep8SyplkxH54vsW4CC1dPEmn01F33KHQ22CjUXO+zTDimg6ggP2lSnCItWvBVCOh7LmLbCQpp5/Fg6rgz64xguKCo0V+WyvMV04vC+vn/nvZrUJ/N9Kc+P75bAlTY3cVUZCnAxMe50ptFwII0YoY47hqCcXBEcS8zlMROQuiDHKjNTVQsSd3pQAhD8nsLC591zkNHlSQ/NkVPS3TGGWOQ/MneDfz1liG7P8DByYSFEFY49A0DMI0vdsjIAK/37mYI8TYfFz85SVLPPgB2IOrBCava2AWamB9VwNm6AgM8Hm9i42d7potZoq7BTTKVhaQTcznxvAdkNOQUaVEudqWK+dky9r1bqYGB4r7nqH/b6AxoygYg+Ry2PkIJYtHAVqMdHSBzLleLAtwphFTVoYDRoiOJxjnDA5cYIxZ0HkaVUsqehwF0umoTQb4wiGODXexGq8jVIuwZSDt/axBum1lyeN79esT0vcCw4WE0IFwEPAlZ/z4pzvk6ELBAc8tvbhRLkzYEjsC2l7RkyzrcDzZieZLFmeLpgo0nAzMnsC38wrUJvAwCNZKwVM8W8QBGu2gmkOSCHaTAa2O+hWIjjwCGW3MtJ+W2JrQLoBMg+ckOmZCmI4Ajgg88DWhL0/XlpmgyQ4oDg3THN0MaMslKZlSdtlbwsOfIHIrLPfFxz4ZsbSOLOPheYggAO7fwoY1Y6gd+xexMWq1pyP3NjCDR2lIBw8fsQjcAAQfsQD+Pf169xZfefMNp7bpJeZhTiHxmQXh5J1TJRIlvdAkJC3b/9a1Cj/z4RVil5VtryR1Iw2Nrujqeu5k1HRB9AbDtCnfoCFk9507qzL7F/6+FcvTKIGraKbgl2y5rBw2EoTxIV7j4/t0GwWvS0yFiRnuzcbjOM2phmDdTggaheDnU0M+12JLRWfqD4/12hGIpNCNdEmtRXUMzDkiQeHgjv2rpl1wMUkWDhtWBK93FR20xNOdwIXVU4iNJX2TEWfsdUWscvjbbti846LMZjFTv3bLnMhCtxrLcxqAiw+mF82TfKa4kQhALdBahEMtsjwu76gZ/QIe0V12Z1aCbNyDZfzDVya5DCaTbG5tSUnym0334b1K1c00IpuFRY27i7ZRiqWi6hUTUugYDym7E2miqQmg5SLE/T7O1ac9P9WpkLvORX/O4tlDoYiqpr7UdZx1XwGBeiY+E4dDNrnlEFBrQfzAMgsmLaBx5/ZB73eQEewPhvhBnRxePcCKvMxCrlYOhT+MNu1tpkUXm4cfNqOdOEESWUaGo9su159T+yZ/zrHSFPNr+Fc4VyYaFGTJUMkcpjJkHkT2mGX2c/nrtwAkIkXOSvBKHtjJmw8Oq9pDk2yvAsbmywQ4jkHJv5kezCwDiZozOd8cBKvabfi8rwkvK8kTmYLyQWUqYXShJsS4ubLNiDKC7/NPuNYb9ccWCfFeAqxbXatZnn8PS6FsAHItMwsPGkxPVZZDB5brRZKJufA1hkLP+K6ZEDG/l4hV8Ru9RB6J+7DIF/RPflTt6/iWPXAn/BO1aUDgPBOHcl3+HWeOLuLZzcs7pS3UnH3EhrDSyhQiJRZnoIqW4hetizdQrpfZ565nyJpDYqZSiymghYGz8ymRjWPY934BARRmX5/C1AKgTW2Ow77By6knjgnYaQDBBdqqcgq0cwnJga2IA2WoZffNiMKQQlNWhYaahMmzPsfYDzsIR50MZ0MMQdZgZEKSSFPp0VDaXLsj9v752AmCiltASoXLeeBx0ViNy38JrQUU1DkDtjAAR0WpqIOY2Np4bMEOIKXsMtaDOqxrAQ7GvvBgZ2DdDHzayMFB9q5mo/9KufCPnBg1KuBhDBOOgAMb+74qhn+ye6b8phVW7g4q2BjlseA7IfmTkRYWl5GgURBLi+HCql6WfFUoN05wvfHPnmRRcvA1oy6hGEfcTxgyKAKpnQEOof2XmO3vWkP6Mebx7ZSrqJWqSEqV7yHncdUu2NS4hxTvBgCpD1xKBbMwJjPsb29owCn4iRBZz7EXc0Z6juXUJmMUWSxzE0zXYXFcSBAMC2EX2cOoYNQNIADgVep+62dELIYjIfh4CcK/Uygag8DEwQHip9WvLHbWoPd1bMA8tK92EAz/g5bZ8o64HUpcMA2EEErY5ZtomIAhmq5cNfPdpvmPhCO+QyHHIEMgYEBLgJeXs9mMbTzQXBA1lBfZBA0y2KRr8BPIuDj94vEkE75L8DBYgOg+yc4PQJACEdkX/hR2hLwmQzXAgcGKIKQdcEbGDtqmRGBKTXgzBuohH71EHYO34VxqSJw/8iNbdzMEKQD0cE7Vo0OAMI7dijfuRd69PVtvLBjoqYSEsTrZxBdeUl7NBPpmHKXgifu7LjICxAEdK0VzXLPFxnzvphxrn1m6M9sOhYtmsScZ8/Y2whz9velnjaAIATvymhp88hSUCgn4ZvBFe24KOjLLp4WdnqNOQVWeG3qnKfNedOaOyIuhAyLGY0HmkSJyQD5/AC5aFduhdy8hXy+jRyamM8j+e1HbD0Icdgiy89BTzQfGuoigEBvvw8pUlvCbIxGGnAny2NrrRgChbDwpgVEGxezhJp33bP6XUuwHxBckznweQWmMs+0EAzW7WEO0t8nDZ/uWPm/9jkZ/JjvdS/kkBQbWC800CtVMWTyYZlJl0wszKHGc6tBVmxc5VTYyCz1OSOBO1r+1NP1eGGUmO7HnILhQKmVpMFZ0Kiulx8uLUZMunOGyBd2/g1mGFTKNURq87jgMmctE+kx3Gc/zzMQyTgasT5kPHZ2FKTFNsNys4aTGOKG2RZaYxPplnheqZnwaOP9WnVrxmULj7VdgmI//IiFiqOhBYRdN2NtI9Zrgs4wndR23LIUsq2QLfRpW8JOikAnszRY+PW5beDUnCFGPkqa4IC7YYFUsmGcw6Cobwdr7hhQnoLyHKgZyDAHKTioWF6Bux2m1EWoHTFBbhzb/AK+BmeVEMz54qB7nS0kDZey2QdZ5kA6pczuneAg6DbEFvptn2UOsoLEsN7sBwc8PrS0CljJ5RL+iOFuMQbOTKpNFdatfB67lWPYPXofRnRXzIFP3b6CY3Vey8ZMHjzemSNwABDemeP4jr3Kk+d7eHHDWAISt+MLr2Dy+uPIsVeo7y3ovIwG28WJ9nOppVUcTYgXhgOlPuBMD5s7K1LHbEFo0+OWNFmwuJNJKb3Fbt92zHt7keEA2I4hzFYP8bXhpx6vbJsvQ/radcrx7Fn4NkmPASyMmM1jiHxxFyjtYJ7nwtZBbrYEzKuYzUqitacCFSZKMzeEx8hqp+bhUBrsQuDDnANTdaeBOH5kBQ4UMGO0sYqI29LU/46o6l7s0syTnnUp+PkJxyxzVdjiZmE+QUOQHUITerrGngYvvr2A7Z8MBNoaagXZGIXwHkLbgT/KYzyPsF1uoxs1MKAFdUqnShktzpwg/ex6CbIaNhURsjQmBGdTSDTIMb/T2UggkELRSTxWXDD/m8eIACmfK7NRJYlEyMgPAlaBD36RfYg4MZR98bIP+7EsB2FZgtBiTiFLo2Ffu2vFhDMFdDjG0uoq6iWg1t9BO9lGp38JzRzTMO3IZB9px1uXls3tCEVGvW8XiFqeRDi+dm3o2lWYUQAT1rYj3c4dNs+fAQamldruXzt63j+yJppSP9yXjPieR1awjTmwgi9bIXNI5jbZU6FQHlSmICIWdgFr7vb5ZQA3AINUc+BWRrprxIIxjdHzB1hsxZpRqyCGg8wcLZQuZvRrLGwExLSRdXDmQPZC1zqEAyUOS+fUJmZmAWkQJFo080J79FbgIBUwEiDweDobo7XLpzEu7iYP45IrJcKgdgIbhz6IUbGCWrGAj97YwE2cynXweMePwAFAeMcP6Q/3grxhHn+zh1e3iaTzYg56Z15E8uaTyM0W4SV7AnpCS8E3ovpZoNc8KN2WOkuds+38XoAtAfbMdmvKcZ9O/3/23izW0jO7DltnPucONY8cemB3kz1x6GZLLbdktWJZsjzIDpwYNhw4fsiDg8AB/JAYRvJgIH5IHpwgCJAgQJIHAwkQJLCN2E5iO7YmtyQrLbVaUg8km10sFsmah3vvuWeegrXW3v//n3tvkdVsilLIe6ViVVed4R++/9trr7322kUNMjODtJ8tzoy05kNUYNnWtA4YuNmFDLqypZcWt6ZlU7QoGp8dDrUpmo0RVo2J7YqXG1gtusCKQ5LctjUPgVYGcm8wETbIHIRyW+ps2Sd7DLXGJEfoVazQvs0e/wAnAlrcDG2AQ3qcPg1iJsIxLzfIqvYgAVV189QmGSODvenl7AVfpcPMgcFAcQ1T0KigkelasgqVzhXhhgYmaOGtSQM79Q4m7R46vR76/X3cv38f3XoTF86cxsWL53HyxLbKB4yhw9FELYVkY4bTpURwWI0wX0yl66jNF2ZkxArYWnnJYUwUFIY/vkmgnIxIDQiFdiFMbHNWQleCRwIbDhwiKOkP+njrxnXsD/r6Trp6Mlsn47B98iR67R4u9Opo37qCM+P72FgO0AYFi9QoWDC6JoRNjQdLRbItTNdC3vNozYy2y0JcKyOepc5xTRlHESrr5TxmMQ78ccAmiFHrHrNzeonEZ/D9gnOareAuBK47CR4JwiliVDtjuCSS8eIcCr5eVJYDJmv+6uyZM7Dz2eAeQFFiGeC5S5Axs/MpBcVOHtThQBaI56NWRt5PdoBUwYHdGetZhguwG9ZeBbDONZjgIL+jur7th2BhcfVerIGDinFSASYEDFw+UudCwN10SCzKCjyIaA3e23wcN84/hznHgteAP/3MaXz8ZG5txz4H7y76PPxdxwDhvb6i7+LzmPx+59YQ37lH2lDSLIxufB/j138TdWYo5ukd6h0ByyhfCST+Y+QvS1PEDljmScuXGinIOOXgiDU+6EpKq3NZq/3imaNVkUY56KYgcqNkkEHDPvguLPgouXdbC5GsQ+UfLHmjp4CmINpHnwZF8iKIdjQJMCVoyuzZ2bSyOJnaeHNUltayAl4DangtgmHJa6rhNMrS8niipkstQ7enTVjZVqFej+/0xS3uem6K+RdlOcesgO9Hag/KzyhbHjMzS6aBmXBufDkwKK+l29KcX3mA0xwd3Jk1cYf+Bo06+hS+T6P9jt0r6lDxdeH1OH36JC5cvChnwnanJ3A6YLvicB/9/h5G47F5CnZ4MLCr3dNnp26QZA6yThwnTsdK3hmyLr1NToL0hD5m6BRF3r59F4PR0EJQsTMURRqEdZstbLWb2FrOsLl3E5v9OzjdHKPNEptE+R5SdQgcZCBhaSIsh1MfYvYmWkQLLYIZNnUqKMiVZQiJ4JgtJ90fi5YBXiUYiQbZchi9+Tm2ucZJmQYHbPFQq2xoOjTcSQ6mMwMpzZ+ge6lbb3mfCWpm0SppvQBZCmpDzGz5OTYTVatZYMtfWeaRQ6LaGDnN0UObZgS+BAehGaK2xrMVWCajINHEfJYVxLrp2fSPynJcgzHaOcGBAj3LJdWupHwaHqY5CDFiuqPy6S66nSh6LrY33wuWX1SFrNWx37uMWxdewLjeQ6fVwB//1DY+vu3n5LiwUNyu9/QPxwDhPb2cP8CHVVb0777Zx5U9omnWHufYff1bWNz4tmq9SUevBdF8cA/QfBK0SSy27jxWPOiV2fQZqB5+xIfreKbd1x/GtewtPixBgYe9JLCJMBoBWB7y0X/tEkhsFNUDUlZm9zoLD+06pw0qxI7q0BBx0lCYdG+3xYj8fG7QbTnWMeDHLq/ySARr6SccMFmj9VmTOi87HDh3wEyC+sDMABTOh1n1XKdcCyAQVED5+vgG9c9HqSBJgQh6aTnrsoMR3vrdiM8Q0PEmyl10VmtiWe9hsGjg7qKON8cz7FjUjwbbW4NipkuhxZrR+aJBPh0Fc5llbW3p35i5aqgPzbLCurfF9jy1oMYay2MPnw054VOgyjKBAEQL4+kMk+lQ47XZFcDzVoBqtzTTYWtzSyUIdtO0G3VsTAfY2L2Bk4Pb2Bhz/geFptS41LGieM+eRcEAlTVwR7MAwhLiRoCT2p7lonWfA/oVuCxQYa8CwBEMqs2woHJYv7fmQGuFgk75eFC7k0Dcs00oRqQJFY+X1tZck3V2iEzHAqFiGHj/2wQQ9BxoKwDSm8OjzKN8od/ZikitiNdulqoIKFotMjJ8rzsLZsGW0fJcQ6Fk8kRWjGyF15H0Mw2uZ5uCZZnM+8ZKgsYEB+pWoHaFz4NsxhPeh79K+BUUQkQdojc22UNHJ0Teh9ybrL1I2Wj8q8pF7lbQcVbKdItaE/3tx3Hj9Ocwqvf0hj/16ZP45CkCpR9gzz1+6Q98BY4Bwg98yd67N3AIyXdvDXFlJ8PoFMNbVzF+7bc0vtl5eyWrqQTgwwFj/XViD+Kvqllt9c8HEqbKhqrdRP/bVYtoE2OLnzJFBnT+aznP/iBQMEgxLesNmOIzt7DJPTE2cNWhBRoOiI8FdsIDn9BJPfJloNSViYsgsaaEdu5AkJhryRp5CQ6YDdbq/PekkR18lTmFWMx7KMEBW9Gapm7VS87N0eec4KCI2GQ2DgC1dwIHLnFERl1ZTmoaVTnCjIGC0yFwUOz13hypu1i4JkxgQ9HXuNbDfXRwbTTHPj0QZhOsaIwVw7o8RY9ZKdFDXV0guldqBUUMZaLpVLalmqVJYJb23abovUjcu882UR8/we5kDvRpo72cqQWNrbopWOxsbKLb62JzY1PCvDZtsDmKvH8brftXcWa5j85iqsxaDBIPkeK7onxUZo5rTyTLXxWqm8CRn1FleZT5ZmBXkK9IGMkAhHiVQdth2ZoDjUFe2IOAbpNsGU7WgddGa5TMAc2NNLEy1j7BxIQlHAsLBQBlgNRBW10gBgdZstAMB7E8MbpZwMDlDpVJ6g21irabnHdh75EsKxTgQGUFggM7idrrgR1KbbVCykpcmoM4hQo4yJ3EK4pgjhqTw+CgmgDkZqHWR4LoyrTJ3Edygqc8DqoPcDAH2ZxaaoO4vBvY613GW+eex6ixgU4T+LnPnMJTWy5PHIsS37t4dNQnHQOE39/re/jTIxLyt5fuDHB1x9PKCJ33b17B7Pp3UOfGozq/t6fyvxEc8lPj371xJ13tliGbGeUjTrrUlqTV2mFJzbvdYU3fEAIyBTtmbyGWs6g41fdluUHA/yCWyeCvSMI3WlHNjcuMblg9OW2oZHg+Fl4jHnd1nHwBfIqsO1kTe73zl6f6GRxowJSyfn6FM0UdtUoWCV58HimqY5+7HO+ixbNw2lONNwBSgRAewhwUYCbvi0FXWUrIgUDpc5CBP0FBlaUol5HPowx3xRKRRoDZfQNDNDGo9XBj2cZerYHhYF/W2hbsuWzDDF8sjq4HA7fbPqntWNbrOHHqlG2vGYACQCUtnNS+75pbXXlpNLKCAb3ewpBahiENgKb6+7bAWhfd7gYaZA56tGXekE3zeG8XnZ07OD2+i63xDjZXYzQxC5dCeyvYCiJ77rM7pgQokrlFt42vVnRCaJrhugBHQlwtwBDaVtatBIkxH4Fnx3NVRq2BRhYLcvGqm6hSViAwUHshGQ6WU8K7gFQ/6C4ptsxfpCAdWhaem7oLcuCSOkjIALCl0SVH/micNsEOO3QoMqXmIB5F1vBzRDQ1EdYcJAj3d3It873sxJD2gKLJYEcIRmRjLXOiYENirdoXxODAGqHwVwkxcm5O6q0KcJCjqBM8UvRp62S2aPrP+ZP7RnVdl3tUDfd7j+Gts89i3NgEh7P+3KdP4lMFc1ChYd/vffxD8n3HAOF9vdFe0Hw+Xr7Rx2t9b2OUFY3uvYHa7e9gCbZ+eeN1m55VwdVMpXi4RPkXabRe7xbBGPgS/dGkMDMTrbrPusc/MrFKaSKDqG1iS8Fc0pAZ5Ez95yYdG0gcXGW2pOlO0rJ0juMAIFKtoidVgVS2Wc3w+BHpGaAMISbkpZBJMZIMQ9CUzGQIPNQGygp1m+ZIPTS4iUbmpMMKjwMOtCo2prBE9vf5/mSvu+h7MQcGDwV74PzeH1lVE8b/fidGwe+LkoWifWX40tt8hq7LEeJQztPoNduilNUrv2qh3zqPm2hjB0B/fx+LCYVxrH1PPezIB6HWTrMtnI2wIQ3CcDoTwDp58qTPWy1o1oykp34O0KGTZGBPBa5Vs43ZgmOi++jUa+hQ4Em3yi5NrVpotLu27N7oYTKc4N4bV/DEfAeXFvvoLoeoqyxUAUu8KwK2Hk/Of1Rd2sIcDzgKZ81qaU2gQGyQh245JrkcRbtig4P1Hwrw1AFTMfERHa7ZB+yUsVMiwQGp94JaZ8CnmViMSycTJHHsdCZwYN8CA3ZZH6ubg9MzCT58XT1XgToBghcOTppFJ00IZWt2RZRIliPHEyCvVphqqmJYPOs4S4ZOK5VNIgIGXbEcBHFBUYmloOZAIDC3ktgXxJxV/BBYkjE4PDAAK8ptGlpFMB7sH6+uBIzSeXgPM8Avk574ynV2jntCrY699llcO/MCBo2uAM1feOE8Pr7pSZVrA8ve1z38w/VlxwDhD+B+f+/2EFd3o+WptsS8fxPLe983ZRkRV973mVkXJi/rNPw6xc7NzwFYLomqN1qEJKr4cBOBhW1KDcJEJvbMKkFAKtxZxYENNR3vio3yQGtTMhDpkEa73Mm+3A7VwlhkEXaLS9FgZqXpv5KKZ02uK2xeozSQw3FiA2Yw4HTJjY1NDWzKJN/CTusY/LXVQUtZPjFUs/lRFSyEo+HajIv11sJcQi4PhACxsq4OCRfZ0RCUfnoCREgsNQdH6A6M5dLwx+/gudE9sDFfor0Ia+rGKZnI3Gh0sLfkNEsaGxEgUMlOwZqz5zQmmi9YEmii3u6i3qLltmn2XrdjUx/VxpN5yQwwtB8y3KIItAE0O7JAJhih7yFBi1icdlcteK1OF3N2PhAgDnZwYrqHC4v7ODvro6W5BWYg1qgo/p0ScmoCQozJz4iylQZkra3N8FWQ7iBeH9dJ60AWxWboqrMaNKo42mMtcfGcDmXkMjMyc5CufgkOKDCsSWRoQzHZRjOD5xCwycQDnkIXwY4BglYakYlPEzgwcJYQUXNLJoWPhMpd0UVDVsvzQgz2FXzFFNgamwDGgd6ahVjlYV/NzhC7OPKakCHy2knbZrMbevZU/7dAk38maEgxoo7PbyxXd/h6rJUVotVT4E3tx+XaKcGBn7dA2QVgdcJQw27nAq6d+hwGrRPothr4k0+fwKfPrj+bfwBb94fuK48Bwvt0y/OReulGHzeGpko57W3evw303ywfFk3rC5rvQHb6sENVVhT0J7NEZu/c4FdUSZP2lOFMJcDHrIAya7crYlWzkN9V3RAOEnq5SeagpdLN1lkGxVvK8pcLTMcEB/uaAWGnvtjEwh/AajtvTk5luBm5DjshTVt4O4R5DPu6VUs3i0IrXmoGbOUb9Os73luXFkyyF7lMzFOIufaFL0G1lFAyCA8DB1VmoUqZ2lkyNuKYhliMTC7YoEONpc5YE7rI0MmzOebTMXq1GjrzEeb9CabzOuqnH8Pt7gncal7nM/8AACAASURBVLcwYslhjwzCQGK1ydQME4c3MbNmSWIhTYmze2bCLAc0O20FUGXQzPwCU1nvwSFhHhS2QtMOi3XOJpqiOScHVsNmu6MZF41WR5MLp8s53rpzB71uD2cWfVya3Mf56X20V2O02FkSwK1kxEQjuUimUkfZwqZ8XOu54tcf5QJdX3lhNAP8xh3mWmR5QCA8yhVZFgtAZObAjmM8b2kGFMBnKjFYYR+TGWVN3GbtxD4Gmi1hx8452xinM61/mf00Fqg32tIcaER2Onvqs+1DItvkpceS830CXSoDWA/jMeQt6Sz9vNOQiu6IIZ5UWyTBQSnOlB15o6PvptaB4ItsjGI8uyXkrFhp7QxQSu1O9hsZoPs1WVqqPlbSywhcuSTnjgS/VuPkYy9L5qBgXVJfEx09hRH6qoG7vSdw7eRnMGxuiFv8C184j6e2D2iU3vHZPn7Be3EFjgHCe3EV3+EzcmO/cneMN/bYy0yadIb5cBfoX7fmoIw0qQwssoCHfXzS5MpYSN/PaCwUZkEarOMsymK/YCcOftgBdeBBsWGkGkV2ESmEAU58btFOmZka32Rzddm70pZ3PO4ri1UpoCJKFB0Z0+tsYsOtyeUHhkF5M4S3QeGbUNE28NUEQ/xFjwMCojUTgcx4CvdIAyG3ZhlgHPxxufswQFhLm6qAovrZ8aKjAEJOcFRpJ0SPaU9cYsHUKURylW1f8blp/iNIM1+iyRr/YgKMRmpZnS2awPmP4mZ7C/doeFRrqqQwHg9kXU1VfNK+FG2u6m3UNRKYVsCmwNUtIgV+kEsVOlscBssSpO1lNuXuEZYa2itgkyUEZboNTOdLDGdz3O/voLFY4XynhvOrAU5P7uHkcoQmxYtR4go1Q5x0CQ4s2Kx2H1DJUnFGLIK21zfLQ9acONCnUFDtrtm6Fxc7CToG3qqan+ZEtkCmCZItkXl+uVJ4OXidoJkFDJAUUkZGP52qlVFARLoWjnem8ybBlzsOlOmTmZHoUS4S0mpoEBKt1YP9WKmsYOaATKBKLGlLzJIE7ZdppERvhQo4cFnBnSKcrcBnw22m1mJYc8ApjhU2INYwywrr4CAZAIP9SPUj8Q/jpBAQ61EKozUZl1V0C0VpIU3aoizhe2ugzpkcDzqX8PqJz2C/tYGNVgN/5jNn8cxJlpfWy3Dvw7Z9/BUC0EdGhONr815fgVduj3CTlnbhfzzv30FzcCucBMu+/FSOP9L3h/MhKXtn0xSK0a6V/dspzrI1cgrbDoZDAocMZnpMDxjPJNl+GFdEHbESYJ3lRm+5ao9kDgYYjnY1J4EAJhmJBE063wbrt7aO9t5t2th1S/f3a7NRZI9OimqfdZZR+KLK31eXdjVgJ7ApvqNyckmxZpafv6+f/7oGIT/7aFCgg4rSgwGQ6+P+RF2+1CBUygrM2Hk9c0CNAJluhgNLkx0B7MOfDtCYDdBWElqT0rvxkafx6t4CO7QUarYxHu6g221hMhliPNz3WlHNeYVmm1oNjh92KYplKU8eSBspdyXk9Z/WGYip0jfVzeProoHtdhedVhM1lhpWS9zb28O9wQCz2gLn2h08MR9ga/cNPNarobniUKXD/hWOOoyDdesOCo4gRYZSHZSVgaI8Fs8PwQpnOqiEZNYsg5bEmbE+8sLzXmgwUmoOGHznaRJlwavcPEPwq89iPZ/XKMBBBl2XFWZyK+TrVQqKWRUCYLQwl6FU6nGc+cvOSSOXnaUnOKDhA0seBAfseGDvaJZIeP8kRJ7FTAfNZSiZAwsSCS5sn0yQsgxhh+yzBQ4qOoIEB1FWyH3Ar/FK8LMYz5eWrO2W1Y3B38U05HjnYBxigVvT5PcXz0p26sQ6Y5Jwv/cEXt1+BpM6x4DP8ZdeuIBPnab7xiGJ0iNtj8cv+uGvwDFA+OGv4UM/IR+0q/dHeKMffb5c65M9LPZuK6ORGjoCRlVAWP1QaQWZtYQZjZ+7UBQHlceHWZsCVftiDUylulXLYV5Y/aDA6Mijr1okp7AoQsQawoisKv7O2IeZhs1k2Pc+Gu5iMp5YZe1omHHAW4OVgGqPs3MhRwynT4GljjqFFKaJIg0L34MlmOjzNgsRlYojzk/HURFOmYmxp4D1AtlvXqi2SnMjfV5qJsoPP7KkULRFchPNOxDvCfHkevmh8nlrzIHRgv5vsURjWcdqPMVs3FdpoVObU3mHeX0D4+42mo8/g5ceTNCvtzFZ0ZhoX/4CJ7c2MB4OMBwOJGwT9qI2gG19cgv0CGa75UVrYXhDELzN6i3MaefL4LWCLJs32j1pIDjHQdktgN3BCNPlCr1uHSfnuzixdwunx/fw5KkTaKYDoQyvyrLO2npnSSzP19JQd7gogY5hSJU3pMZDr1TgYUaf5S2K/ar6GU9BZcBl+57PNYCamAPbJnsoEjP7soauUha9JtoMutHOx5kVsjEeYzHlnBCXxghTSO3XOz2BFmsODA7sucF5D6T4PYBJAspi/bJsYVtvOizyPqnEwwAs0WQYNZHl4CyVAFtipsgC1TmqmWyaj5PCTkHu1DtoPGepObB2pmzXFTDQcTqzXyt45SwRvj6txkUWuotE74kkIwF6tUxpjwMiJ/MU+u+qjgft83h5+7MY1Tex0Wngzz57Fp8+fbiU9/u4XR9/9BFX4Bgg/D4tCwedJa48mOLWvg1SOYlxNtgBBvdQZwtTIHJOXSyi5kOOh5saAUIVHBRtZ5wGJ897q5vlOxA1viAsHhkcFERqBP3UF+SGUvCsRUa/trUDLJ3MGbw4enkf0zFV8+7/rv5EuCsoS24aYhEKK7WoExdzI8KJMDyjD4WWKjiI63kQcCXdLEaloqb2ppW9/tlNVwEH6QHAE9DxlBmt/qoS6Eo2wS/OaZaGV0GTHgQHBwSJxWAcf3iI9hgcViorNGiEMxmiuRyhxexzMkGzt4359ik8mK7QvfQJMQj3VzVM6TsxHcmy98T2pjtdlkvsD+iSOFRvIil2tYNyEJVOO2eBZHsoXQyaWHGgT7eDDq2mmTGyNW7GCaCch7HCkAOBGEQbdZxpLuRn0OrfwsUOcHH7BBpW5Xk408P0NVFyWBY6mZgBrcVztDdIsjIGB5x5EEp7BvkD3QrsYFH2SwtkMRUrt/fRNImWxtnSmXqFSuasDgBm9Kq3e06JmAO6I7KsoLHE7qQBRYEcMx7zDXIwU7Y0gj4UAgdmylRxUpBmWYB6A5Z+qEEoR2Dz/nsSo2ePUJBowMQfsgY+rnqUFVzGstDQFuIEFrH2Y82RqdHr4kfAWmLJI8BBejhUwIGuQU7vDPBT9ZUoNQfxPMRnqHVVe2QNd9qX8PLWZzFsdqWJ+StfOCNBYgL936ct+vhjH+EKHAOER7hI7+YlfDCuPpjhxiAsXNlONO5jtXcbjXAQzAz/cBW8qqP3txMcZP5ttF52DUhxTJGULGbdOui0m1RxeNHnRnfwZEptorsagwpUTbB4zzqjoE2hKMhGGcC7pTKaCcc0jweYjFzv1vTH9MiP9yrboBkMZyTIfY/0cFIRQTQUBkShSNe0vqOzznQfFHvirbuKZYrrZS+AKHt6z4oYnAxCBPz0GggRVbGBHmixentwEKBGKC3YkIN6hQo4KMBcXAbxPiotmPFYTudok7meDdGaj9FcTjCZzFHfPImLn3gar1x9FfN6AxuPfRrfvj9Dn5oEANPRSCY/WxtbCrIM/40ms/6J1xazuWhnJRQgkFEcCSDEATkrgoJOxyWOCYf/hHkVRzFzNsF8Lh+AE/UlzmCEu9/9VWwvR7h49hw+/uTHMLj3wN0WR5hKlWJ2XyNly2GJlC2pOdDr0PKVKDHGZ6NRdDewtdCe/tXQZ2FnCQ6imMWMWq2M9g9RO2h1nYQJEqgFEIj1s8WLRJEo2QNPNfXaqjc6aJBZ4QwGOlJGXd5tqLYAJ3vAseu8zhITSojZQLNujwOCETEHoW3QcQkcUNRIYEEBYM5W8PMh/QiZA3UrWFSrVkqNpLY/gmt44UrG86q02CYraU3REcyBAAyZkexsMjgo9iOdZyWJSaYzIUwM7+KgN5mCrRq43zqH72x/HvutLjpNgoMLeOpEqiDiAX03G/Dxe96TK3AMEN6Ty+gPKQl04NqDMW6MXAOlKnm+dw/LwT05sB35U2TKWecre7dz0zRvHgHXFIU2KoqRyiMo64T8Ow1CUUtXiLcP7Jn2f3fLmgK5AEK2M1UC7Rp4KM9ALVwaxETqk2zBGKPRUIJEaQ4SZDBT4caSG4g2Fs2sEy1qM5sCPeiPsqNlfTg2psPafr8lM8IM1gcd3hJMJV0c79JeaZa0jMhVp8T17yunZD6S5qAY50zQ5nvCadhr0xwLgd7bL0JessV0jtZqidZkgB4D0nKJ3fEMZz7yFLonz+D1q69gPB2idfIiGmc+hu89mGO33sScivnZDIvZDJ1GR7VxevOzRkAhYZMeD6sVhykKoLmOzLXiuRfTZQ2TaPkTa8BSjHrdbVYgV79VDdv1GbrD22jcfw2r3Zt088B03sAf++k/gQc372A1GqCG6Tpdnft/wXatD/vxcjgKPvt6ebjRerlHMwfIUlRLNOG0qa+rADRl9zxftd1GsGOWzSmLsW4FBoLqTyMtHReVszOu95E7OmRAZX1Cvdnz2GYOQOOzJPtkdkXEpFB1LISFODkPfr5YFdsus6yQOJjgQr8U4MOvYEnmoOwCIsAj60DmwI6jdkgUuEiPgwOMmZOIWOHpW/B211rjrivdDQEG3OWQeqHgBWOio78ixb4hfhRW9r4l5mDzGew3TqDTqOPfeu4Mnjt3PJXx7XeD9/dfjwHCe3i9M2Zf3RnhzjBa0SjU6z+Q5qAIRAe/cw0cmMLOjdHZVGTUMSq2+nbPJwjNQfWhT6lf6AIKsVu8WZ2EkdUKPGTt0P1M8aqSOSiZhcMXjJspRwOv5iPpDSbTKWYzC6EkQuQchRh5W9Rh597kcsN2MCAFXWY3EpxRV0FnwywbpJo8jtEtVlFLzqOuCi1jypxT4kqwCfe/Kh9RHEv1fhSfmZtdaCjetqyQzIF7upMCr8dNOFKv8LB1yOOfzhRwm+MRmsO+JnZMOxv4yLNfxKrdxbe/+XVguoP98QznP/pZTDYv41VqEFDDrMmSAjNddrgsxSlNZjO01EZXNzDgUdY5m4E3IbLjVQuzWg0TBrawLpYnf7stfQHv7SYdEbHA5doUtTtXMLzxXXRrDJhN3Lw3xhde/KN4+iMfxVuvfg/dRmlkVZxqrEFeD4HgnMxZuY8PuywEJlk317KXut9tdWvgQAtrXVSqQBfTPDVwSS2zBArUUYTDIgWzSu05eMmCX80j4A8DIP0eZkN1IPC4JbCl2La5hRoBO4dYiSFYib2RyRLz+ZVZAP4iWEzXRpZ3mk2LRcUsBtVvrwOOPo+WyKVLGQl29BkhSCzmhWgiZGgeohW4AFoPse5+u23QLYx5zQziC/fHit20wIIAUYzJ5r4UoMwMnwWoZFtutC/g29vPY1I7gXptib/6Y+fxzHY2HFdTrfdwgz7+qB/4ChwDhB/4kh1+Q7GcV8Cbu1Pc2Q8aFwtM93cw7d8Vc2Af+cjWU8UeZeb81LK+XVLkCTxsn1wOLXBAI91XirCqsp7QDhcNeUEuWkQUGyRjZtUVzqlUtdSw/udD2CbGJM/nY0wnI4nVmK1K5CXjIQrgIquhspx94qRKNbQmB+V402H2Kmo0apzKpkhtF3ClFGdqg5QdMlmG0rexqD8nGZE13jin0mqgMt2yEBMeDv6KL1YTrE1jLO5XgTDKKYzuREkNg38Xc6BjrhgpHbRMznsb4gl1WcxmaC+XaI7HaHKmApo4+7Gn0bt0Ge2tbXznm/8vBrevYjHZx3AOfPILP4nbsx5e351iyNHPDdovM1jMY4jSArPpXKLQFoOfaHEKFnNBuuY/XzUwXi4wYysoE3XqFOodLDmKnHMTanNcYF/j3avYu/Lb2AK9FWYYTFe4emMXX/jSj+NLz76At159GT0QnExtvOPKs7JI62QSNudqLVfYw9gDAazwO/BRRwteiO90nfPGVW6UXDbEVnFOAtfbVOZH7FyQa1G4F/r97CKg6JdzCLx+1TnJdc3pmPQ6EIHvaaGajNhiWcGlPoIqtTBqSiipd7IHdGIMHQXZK2Xk7Dagj0JbJRq1j2ZWHkOhbBLGXxRcWnOQgkZZJ0t3YEGir7HtodlOmYLBeFPxLD3SthdaGZmHWdzkYwuNh0dY5zTHUqioFKfC7MgfQdfU4PNm6zy+vfUZDOob2Gw38G8/exbPnner6DoP+0hHefyi38crcAwQfsiLWwTvGnDt3hj3hws5lXHjne/exXhwzy173EaU3UQAThPDAyX1I9scZfwWfcVRWzyy4yF6wpM1T/VzZlQqZUd9t+hLrrbSFdfi0ZkDza6fDSWEm0wmro/SIIWlA82ad1+9qprLpR39mBGJojRtqtbFmIWgWiwp06a97c2meOOo2rRyw9I0ukqQqeoycpOtZpSKgXRUrG6TB8BBbr55KehTUGU5jhLXObaWgkRDj8MzGqqbZnXZpX2yjisU9RKuLWdozWZoRImg3trGU8++iNrWCYkBF7M+/p9/8L/gzCbx5wy70zpe+MrP4O6kjeuDJfY4uEnTF70C/VNX4FK1it0iUp4v0OAIZVWXOE90Je2CykdND4Jq1VvoLIDOao7zbaAzvotb3/nX6Cz66DXoBLjC/mSJV16/g5//8/8Onv7k03jzpW+jRfMkUvaYRydHhIHoGOF3pGlWec0fXlbI+yMGgUAs2aKCIap0LCTLFN0NGpAV7bTK6MOWmCZI1hDE/A+Bg7Bc1gTJBAcrgQNMOTI7WnZ5p7nGWz2v8xicZOtjBmoyBlFaiNHI9k7g+iAzYQ+PVqOFVYOD3q1TIGBxxwLZh5x8WpYn2YFBcMC2VK0rejFEqYA+EWlS5EfHScXR6p2HbIBRipGHQuGE6JJpPltVLZSBgq+9vDEqACHBMVZNXO9cwG9vfh4z3bsW/tpXLuPTp/J+/0BH+EPu3Mdvf5QrcAwQHuUqvcNruLyv78xwZ0Salv3BS0x37mC4e0dCJGegFpqp1p9mgfG5WQ+0mnj9ISno0njfw1ohVdUzL2meogIEqtmUAnV8hRoGDuzF1VLC25UVtO9IwU1wMJbgTRmLxgiHZ36UFUi/ag6Dxt1OY/B8jnKmIM6lBtVP+R4yB2E+kxtcsdE5QhSDlcpz9cVUVhPtVgmqzGT7ZCOP94uPAAdVgOAMtqLwPiCwM3BIcKA8MjLislsh7+bRICNsnAsGiNmj6WeK2ChIbMwXqDXa2Dr3OJ781Ocxmi8xW07RWE3xi//338fwzjWc6NjXf4oufvSn/yxuDVfYXbZwazDBgHMBCCa0sdewqNDXvD4U0SkbJ7sTa4yv57XhcJzGqo4OVjhZr+FsfYn6/m0MblxB/84VdOpTtaUuFzVcu3EP9c2z+Ik//mfwkY88hTtvvoHJvTvo1mkLNtPr8ifLXV6L+q/+KQHeQzscKhoCWRpHXT3HLft+HWTTzEiJ2mZ2zmePgkQJ/hjEPZWxbBVsoEXXQ2bNFXAgrQKZA3aERKslhXbUC9SDOeBlIxgz/U7mwBm/gmcAfK2D0HAIHJABIMPWbGCmNkR7VPiX//diVdEcSFTKAJxDl2KUdVwP7jcCP9VS3KOCgwM6qLRb1h1K9iDKI4WuJ8zSShbTWoUECHr2uPWhhputS/jdzc9gUNvCVruOv/gCNQd8RZolHQOE9yAcvacfcQwQfsjLySB6Y2eKe5OoUWOGwZ1bGO7fN6JOaXpkwQfV9RmpHpZdrknxI6gddcjJTqhtqtKZ8Kin5306AuhDBIlVqp+vnc1GmM3HmE9o8cvN0EOWPC0uzIC4OaheSwAxtjVyCqYUkGxvy4zQk/RYMkjR5bpxU1Uc6P719Q0l2xgVAKKUU+gAH4E5qIKDg9etWjZ4WCujoFmawVQ25XdkIIJ8lVJdCNIZZKvWwmNPfhwnLjyGZbuL5WzhwTyrEYb3buAf/s//Ex4/sYVOw+6GBAhf+jf+FPbRw+6iifuTOXZprVxrS08wp2cGgQDZLbI3WlwNgQNlmNHyRjDVRh29JU2O6jjbWKC2fxdXvvXbwPAe2rVRAK46BoMxrly/gY88/QJ++uf/Arpbp7DZ6aK1WKB/5w52br2F8XBXc0LoocTf5VEQQM9lprdnDPJepJ5FQJBWx0I9ghYFy8T/xYxVbXTCPvYGUIePxIIWDHIssroAitHQvhas4zfabBeOLJ/1fM1kIDPG0lh0OFDDwsFLrQ2tVzEh6c7Jrg4yBwQfBL9kEnigzWQOWBqjoNADnjRKmfdG/gtsZ2XJg88TBylNpV0wgjIwbtJ4KUY2y4sgPBJm4d9QaJ2UmTw6c8BrlqOWc82WrFwYoIVoUsxfGigVN4hDodgqG8ZaQoIuqV1vXsLXey9iTiBTA/79L1/EZ8/YHPL45w/vFTgGCD/EveG+dqs/DeaAHdhLjHbuYnfnbmQZBz48HcUO/LWy5Xf7oDAoK3MOQdS7+JyiHSznFoUO4VCQjL9QqYAK7vlEKm55umeJQNQndRFODEl9E0AsBA6oLjeL4n/mRk4q1wDBYituIJ4sVTi4xfcWCnTuiDl8qnKQRQBI6+qo8cuQpXpd3oE5WDvvNE+KUsdhcODRwwpaxbyAUlxQnW1fCC118gRG3kAVKwF0Ol1sb29hc2sbZ06fQ7O7gTEzUgb16dz6jvkMzdUE3/jVX8Crv/N1nOkQkLEaXsdw2cKnX/wKzjzxSeyv2uiPF3gwnmFca2C0BCarukoHySJwKqIZl4X0CO16HW0AG3Vgu7HCNsbA8A7e+M5vY7J3D83aHK3aUmOlOR7jwd4A/XkNX/mZP41Pfv6LWNRaaLV7nt7IEc/yW5pj78Ft3L3+Jib9PWAxlB9IvRaGRwlG3+E5TN2BAz9NhiysTZZLIEP3qpzZIJCqEQmeKSHXUDkQEoARIFQsm2OKp2aXhDsgo5fYAJp8zTnkihqChbw6SOm3BA6sOcj5EBrspJHNBBIL1BfWBKiFRaV8j2wmQFC3gjSP1gwI3Ed5YbHkiOjwOYhWW76X4KAhC2bqc9ytQHZjpoFP4S1dIqpHKisIH+qZ8iyUKjhY1x14/onKJ+lTUcF2cqWM7hYtb+UcddxsnsfvdJ/Dfn0D250m/sqLZ/G508dlhR8i9Lxvbz0GCD/Epb65N8X9sUkCbnp7d29i2A/m4IjPPWjawpeYOXh3PuPVsgJp+hzX+qinlOGpCNoPYQ6K/cZPvMDBbMa5CpwO6ExUamoJBr1piVacLdQnztZHiasEEBwMNeKZrAH3JW6U8tBvhV9CyRyIcai2piVIqbAkBXMQVG4CEFsvVMSIEYmLVsbKhTqS1i7AQXgYRLnhyLICnR4PGh6FHa0RQPR2ryiQcynJQa2GE6dO4dJjT2jiIcdUL7nJMjgxsLAWPV9gNBqJhSEcaUwH+N//3v+A6c5NnNoiwOK9Z/26hc2zj+GFL/8kFu0NDFfA/ryO4XwlgDBeNjAlSKCHgcwZ6UEBdOor9FotbDRr2Kiv0JoP8dbL38R07zZ2795Al60OSe+jhf5wjOu3d/Djf/xP4qOf/QI2zlwWhdzp0P2vrcFZlgdIQYLGcoF2bYW7b1zB9de+ixZtlzRUjOLIMsJUmYSD96MACMzzZTlQ+oAU4KCi+0ihqxwog6qXEJHgQNlvdQ5HznCwc2F2K/CZkp6GRkjyHWAXCA+A4sWunBLdTmh9jCY4SsXPMhptmuOeyyrZwkL7FHTcreAcXMzBPNgNWjvbXZFDzdhd4ldZq9BGQ8ObrI94L8CBPj3Zo6PAQWGcFO2WEoJWnSn9fLqbymCZg7ukaUQd1xuP45utZzCo9cQ6/bUfu4jnzlM/UoLjR92vjl/3/l+BY4DwLq45N4M7/Sl2x6EmRh39uzdxf/ett6VLFeiiTv0uvjYgeVk799YR28wR8+0PfkdqDrShZZIbuoh3Oh73ejNgMZOlzwHNcioWsUnJ5jGFsQu1CWyBzBY20tl19tirW4ElBbYwutQg3wOJ9MKu1eIBK7YjjhwFgty7b1q++JE7YvZcr1PY1VLFwfN2IPJ9slq7hEcWliVl6wtI3qhgJ9IdTh0iVstrVnFthW63i+2tk7h0+XEFB7IupPxt2dtEs9WTfmRu1x95S9C0iPXk/f6eAhUdD9tYYnDnDfy3/+V/gVMbLZzo1dDr8LjaWNW7GK8a+MTTn8dHn/k0apqiyDDcwaxewyymAC6YgXK4EoEtqfHpEM35FNPhfbz+yu9i+OAWGqrLW1OjaY+gIVIN93Yn6J04i5/9838Jpy5/BFMFBQtGPVTIDJIlNyssKOpbLLHZacsS+o3vfQf9t66hxjIFZmgUFH8s7wBND+Oei3ZddcSU7X4FgHEvnY6D98eDqewjQDEiqXvTU+njwKO3BkDtsqTsSfmLaaCOgIGaPgkzjeiuN6IVUSOboz1TWhyagoUgkW2PCajk7uiShUoKGpwUZl5Rv/dYaTIcZBGmarfk4C0Hb5cm1OrL2QwBDui+Kn0C2Y0A7gk4U9P0jmRiaGi8pkNUm0PYQsfDNUCgwvkfJrwOl4O0hvkcsJtIn6UCEN6sncNvdp7DuNZGp93Af/Djj+Ezp95ppzn+9z9MV+AYILyLu3F3f4qdkXT32mh3797E7t4tzXH3RqX/rn2yg1L+OvpL37HMoAy/nPUunj0D6iGxQklgr3UxCBw48GW3wxHP/KEDFEOxnMlWdjadyvSFA3e0qYZoMM9ar5WJzBTTOafUuauBm560BjmSN4cs6f1upSr7tV2C0H5f2ZMOAgSBA/V6m53wDUjgVgrgijCf7YZHXOxSdBgTMHW9fc/WwUEJXIpJg8UmG+wIGuh1t3D+/Hlsb29jc3MLw+EYI7WCztDtbaC7seHaePS4Yr0NDQAAIABJREFU11pNtGjPK8EpvSWmGOzvi6Whal0szXyMr/2Lf4Jf/cV/js36EtudFbo9dnywnt0BWhuY11o4ceYMzj/2GE6cvojWxjZanR5W4SdBRmLY38VobxeT/V0M+zsY9h9gPtvHajlRoPL0TwayJibzFfYHc/S2z+G5L/8knnn+R7Cot7Fk/Xy1RFOjiKOdlYBisRDw0cjkGX0GgFajhu1WA+3ZCN/8+tfQWg4ktPTY5vIGZ3A7Soybgje9Wmx66fZX6DwqbbIyxmKLIEeMSztgQGuVroGb2gMpLI5WXFIrWlMM+NLVTPVlvM+k9SkY5YAilsF4HHwO3NZrC+Q8F69xggPPuFAro/Q1JTgQIExNBNt/V/QSiXHPBGTUzeh99gKhoJHfzaPxwCazIGvMS2xA7wQOfGz5vPD58zovWiyju8WeDTnJ8SHgQK27vCbZtlrHtfpF/E7rM+jXu2Kg/r0fvYQvXghq4V3sucdv+YO5AscA4Qe47nw87uyNsTPJOfU17N2+hZ2dN+1eH7vaeuw52O72sEf3bcRE8ZZs93MLXXngB9Xb+S9J4iVz4BasaHs6sr3x6ItBKCT/gln4HMh7vQxaDu7xudo0F1iys4GbrPwQ7MHvLMMKZ5UT4iSYQfPPDhb2Nwi939uCAwm7Yua8wYEOIoJ5BTAU+2BJlR88UzMHrsWWpnMxTqZgDuKiZ+aVgC/AgWrejTZ63ZN4+ulnBAJoGrW/P9QvHmun28bGFmci1DGejNUvL1q+00G717VQVBnpDHv9XQ1hStCwmEzQqS/wv/69/xFXvv0N9GoLdJtLbG220G410WZ2S+q7w74DszJzChRXU2WeZClmi5mdExs1tNTWOFVGywC3mI4Feg2reO5NDEZL9Mcr/NTP/ml89ot/BLN6V+6M7nwAGi2yHwxgnqTIezKdTCWmZHY7nXCkc0MgZrvZxEZzhe/+1r9CfUTrZQbfagnIIjnF/yMekwIg6AaVNaZqCUpmDyH6W3H0MseFywBJBtJWzK+C9YmymGrn9bo8CMQaUdg5j7JYzYOXmnXOVWgCLY8n51FzABnHmRMAL2lgFD4WBsz8DmoMGg7uVGiG0ZKCuiydSdvT5nluUeNyiroeUK5/trDU5D9BQaJGUjdtdUWNA5+xgjmopiOPIEq0wZSfl4LpiOeP559GTvZdqIXxUYLt7DhwebT0XihnOlzDBfxm5/MYUYhZA/7GV5/AM6diZcXQrR9g2z1+6R/gFTgGCI948fl4PBgusDthbXip7Hn/3k3cu3tTrYwP+3l4WWEd+Rdg/kAJwr3xR7+2AAKPqALPEOog9GgnTiDADJ1lgtnMxjK5EUrUFJuEDiEmRTK4zabWJygbjazGr42uBVm3cgMtI0H6uItiP5jhS0CZBRWbsnioTPVEXPO1L8vhbCcBgA+n/N6yrBAZVKavGn9suly5ajFPwnqLTrOD7e2T6HQdlJudDZzYPqNASUX5TALNqX5nULAhTj0sd4F2p4tutxcTBUN8hzkmkzGGg4Gue6tN2SA9D6ZYjUdo1Bb49X/5z/AL//QfY6MJbDaW2N5so9lpodNpo9W2fwQDisZ+N1iUSC8JXh37Hqj1TvR+qfdYLBkg6xJFThZA78QZXPzop/D8l7+K7slz0o0wOKoLgUGw2UBLZSIGwdIil3oJAiP18ZPZQc0llk4HPcxw7ZVv4f6Na+hijibHmDUsNnwodNbaKhQzxcItWoDJPEULI/+xKY0CaXHS/qTr6VrotzHgeRqnj7ne9BrmOGRdE7INBAc1B0eXFSwKpE8Bz1suhQQeEj5ypgJLEFIEOfASoxAggFm/9QICxmlilEI/sQAxV4FTJGV17pW7bLrtlyObNbiJjAz7GdSpULE2To+DRwAGWa5bu85F624CA5frbAW9vu8kU2H75LrnOPBZU37AVdHAtdoFfKP9aezVuzjRbuKvvngeL16wkPP45/9/V+AYIDzCPRM4GEyxFwMYmZHfv3kdO/dvCCwUROdDaesDIsQoFRxs73ImdPRrH+Ew3/Yl2r5io9WjekT8rH6AmrY0X4GT4+h+SHV2iLtC1GRxUsU7XV0LzBpJU3MDjVkMytRsuSyfiBgulVuGDyuGUR0BDrIFMw9b/gsxBKp6zFSXM2M58qfS430QHCg8sfyR119lEAaMOrrdLZw4cQInTp3E1ta2WAH57KsG7kA5o5hN46h9LRh4NdFy5mzdf8n/5/VjsOyg1e0oM3MmaC0CvQ8mkxHG44nU7Kzp81/n0xmWszFmw4F0A/17N/Hf/dd/F63lFNvtOjq9JtrtJrotgoQOer0OWq2GMs7aqmX3Qn5X1PuVJVYsceVwTbeCBXUXTfQnc3z1534eTz/7AladbSxqHdeWgynhnwl0NCCoTmW9QR/PkOc8HlHASlW969Z83+bmphTsndoSe3dv4cq3fxddTFCniZLGa/Pt63NKvE6zlXH9rqq0E59NcEDGgQG4KQ2dB1HRiIvTFcsnyi6ROg8ee5OWyJqUZItvdtss+T62Fnp2AGl9iRElvo2ygsBBeBzQVkqMWrB6AgcEvhYVmi3L8pnXrU2UbH6kz+G6kNFQFCbVKkyHRIIDAgx/L4cuFWPTq0nBDwEO1BIa68FaHg91MjgwgPRt8B/s8xL25txTaKRlxQ1exwX8avt5eW/w52/91Efw7Jm4N5WOnR92Lzt+//t3BY4BwiNc653hHHtMqWKRP7h7B3dvv2Vv9Xj/kSr4IlM9ImrlQKTK96dOIR310sHsHaP5I5xD4QsQB/xw3UH0qK9o1cpsiq5s7ukusrwCIDBIuHYpq2RmNxwqo1YvQie2Q8WcezEjOTchShKZGAY4KLwTDp5PJUiYOYixtfm6cJ9O6wXvZBlY+L3RCeF/KHUFRUmBAbOuDoKTp06h3d3E5sYJXLz0OFqttmhnJqWsF880EI9ZpGvnS5oPFV7/8uKVdoD0sQ2PnB0zgDGYtjuks2sKoGRZmIW1Om1logxqpOfVHhf2tBNmmBOOdObUwAVqiwm2GsB//9/8V9i5dQO9FrsHmtjgr40uej0KBUlpR/Aje6BZA/TX89AubfwKSOoxwGLZVAvk+Sc+jrMXn8SXfuKPosHx0Y026LGoUcLZjinXPjMozSL4+Ubw+CbjsYIYgUJ2oJDC39rcRLdNceQS9fkUD26+gd3rtIjuo8bWQYGneVg+sxU2fAzS8CeKERnsgxz30ovykEppi2AOlvYgEEDT8gwTMgHUMOVS4K67tCWRIbsQrCOgkFb2yfQ4ILtg00bM5zT4ohcFwW8wWDF7wN4JBMGlAVKyU1wDtFwWIBSzZk2PgLSGwVso6GmTnsqoroUCHBBMxkRGo03/vGtw4GDPHzM9B5mDYJeK7+IzZEYtxcTRjSwK4U2cxa+3P4cH2MTJbhN/7csX8IVzWcp4hA3q+CV/KK/AMUB4h9tyfzDFQDNgjJJv3XwTu/dvFmNN/Yy+d/SZ6Tt/3lFtke9+FVmYWLQAHskghJ0xaWgppGcCB6xPrwnJirbDBAixycgellqFDA6ZdfCoOVzHSvFk8JPC1NZ4VFmhkrkILEWGI3e6QnPgrdW+SUnQpqGDRVEut3piJAMFa+sMmNyAt7dO4LHHn8Dm6TPK2FvNjo6zkvgXzpdVeWhmXbWlRh0VJjwMjO5OtPpb1Cvb8alg10HaHY/HxL8j0KCYc04FPEsR6s9nELICX5k4XSpnE33WFuv9szH+8T/83/D13/g1bHVa6HWa6JFB6LbQ7bRQZyAmPV2niHDdGlfCQy2EJharJvZHMzzxyU/jx776x9A9dQZb26ew1JjilnwNVEqI1lSZCIWFbrrlZdmG5zMcDjGfzTFhG+yc7onONnu9HnqbG0rWuaYo7N1o1dC/+SZuXn0VtdkYDRkCcdZEyEKFv9YXaYbQ6jNQffY8NdEjxlmO0uUu9BQ5OjtGiwe4YYBekW3g8DCOIZZWgeWvjpgDlgYMjQ2yvGazW8E5f5pBWvjHAM/gHjbgWTJQySNmMcjtMOyTyZpQjLgia+X5D+pqkUU5BYkkNzxG2d8fJTV99dvolvIihfnRoX0j3pvlCgFvAYXDpQUV2PTMW6uRsxXUCVUDruIi/lXr8xjWOA68hr/51SfwxXPEXgUn8u63reN3/oFegWOA8JDLz71pdzxHf0pnQnYr1HD3zg3cu/2mg0GhV3svwUFk4w8BB0d1RzzK6kn6Pjf6o9mDctYBdQNkDxjomSkdZDBSFJZZbqEFII0dhjICOOrfdlmB11D2tfmTUxZlUHO05qAYVxX2yRSDubWSP5VSDAWX2sAoUIxNye4v+u5mvY2NzW10OhvobZzA6TNncfL0adHxU91LZtkUY0VSJoGfv53tZDqTECaazCgDF22G5U8TvfbcZMk0KEhJy2cq3scn6wd3KQhUeHCVQRhb8WJGBdvdAhwwqDATZrBoN4Dx3n2VGggq/vWv/gq+8zvf1ETGXo+tZHWNzW1Gp0gW9TWiWdkia+28Fy2cOH0B7ROn8VM/+3Nobp7EotlVYNPo7XrL7ZmFCNNT+HgOdvILp8y4E1wPLCtxFgePV/oD1v3rLNF00dvYQKPNsow9CegZ0uW8jdUUN19/DbvX30SLg5KWIzS43sK8SWsoPDUcDBmMK89bpWwkUJVDwLQeouwdJkY8F2oxqsI6gogVp44SnAXNLzOiBj0OOBuhLuZH2XUEZ2lywmrZqn+W7mIYUbasNtnWmKIHlwZUWmA3T9gpu7RAcGBAQsbC/gbsBiGDQJC2Dg4OAqZ3fPaPAgdGy7qzKUjMjggzloedLbP0lgBR3yuNaA1v1s7i11ufw4PaBrY6bfz1P3IJL5wtB8q94zEev+AP9RU4BggPuT27ozmGU7cy8lG4ef1NPLh/w9Ty27TKvR93u8yaqn36b//Ngh6F2Gv9ta4vastQd4LU2aqzTt3prUgXU4SCMeEx6OP0uZ4zQc1BZkZlAuPAQnMZvUfK+QyxnMGQmX8JEorDCTGlDGukZ2B27YihqqzitI+dAZ0ZM1spZV6zAs5fuKS5ANQRdDY3lQEx8HHDTgZiUT84CzNAgi6Ys+dqHpQAQeCBUEE1b7ad2UhGWg21CHoXFTCgmFP0c1xG1eY5D2CurgK704XvPsECgZn+jgOObEKzmI0xGuzI3lpBtkb/gxZe/ta38LVf+CUsFhN0OwwzK3RUA69Jj0FZhDwS0Ma81sRnn/8CnvjEp3D60pNob57AQp4BFDSWBjzFRNEIwEWXQGSPmkJY8cgla0DdRIIada/M5wIHW1sn3Pu/tn7Y2l9Dp7FCYz7FaOc+7t14Q6Lf5WKsc6B2IPR+rBvE/bZGh4FehSIeg9ZeuB3K4yBGCgc4dHnBMxfJmvC6rXhhJEj04LD4V3DksrprVFbwOtLHxz01j8D23mLlR7cIl2QNDfpA1NuFf7B0AwR78jjwsyWfA1lE0/CajQrZ1UMGgeWhtCkP++VwWFwDB4Ww0GvVz2+5SnN/ODJ1yS4RCVU9N4JgJT8ntQZZHkpwYB8Hl2lkglZb4UrtIn6j9XnsoSPNxX/01Ut48QKf9/djFzz+jvfjChwDhANXmc/a3niOIV1lFIDquHP7Ou7cfMOWqUoWjsh430n19zZ384DeqNq0dOhda9WMo/Vbh9+TAqMACAeY26jRc6NZqHbsQG9ltmceRNC0f1EYG5V/p1gtj3aXF3KzKsRgsl72hudfDuwF7nAoPXyF8nOVvcV8hWjAYxdJMT5b2XEL7eYmWq0uLj/xOD72iU+i1mxiPo8RtWp9cxbqy0BdgINAwowS1ARoqXROVA8uO+y0ma7YdsZyAO1uc5JlvDoybgU6tQDaDMcoycLPUg1vEERwICpam7bFgOPxADP+mo9sDkSTIwYSAKe3t3Ht9av4p//nP5G3wSYzUanl2SbXQLO7hd7WaTzzuefwoz/xk1g1OrLxkSc+La4pNiTL0iJ7QBBHCtnTN3OfLxgjdp5QnV+0BLAmP8doNPH1VOfGHMPRAJ122x0enc6h+6ryR5g01TGXWVNzOcN4fxe333oTg3v3gNlQcxvowihmSN0QPCgyIKa83Y2z8uAlgakEd+W4YQV4PcbuXBC+JKCYjK0B4NUQO8KpiB0JO+VNkUOtYm6DVxuhSdmxpHUUGgh1K5B5Ce0IrweBqMEB8YgFkKKbgnkgWBXbo9klBgYSNMbnWrOwLtwsOhFy3RIJVxbuodh8xF9kqaQK5qsdCy5BJdCqCIvje/iN12rn8cvt59BHBxvNJv7WH3sMnzsZq+YYILwfsft9+Y5jgHDgMu+NFhhM06Gtjjs3r+POnetYqFb4MHBQqnx/sLvmPNSZddJy1jqsUeg/2IcWr85NXu1Ta66A6x9Y40Q+lhU0WpZ1cFOfyRLorCvUelFeyVJ/6AMIEORcV9Qs3Q9Oet618Ap9yT7Ltb3NhkvVg89ecW7iYm4iSBSdAfKhb+Di5Y/g4oXL2Nw6he1Tp8TjMwhy7/S0+nUDOGeUlqK5gOCMyLc3/yYI9qAzqofGWQYKTnw9xyMvKPCi2I30c7hAapePE/QLdQ4ENjnqWgBhVqraZbojcGDvCF6vyXSI+YQtjyyvOPO0OIwGPxzDXEev08Z4MMQv/bN/jqvfu6JZC9unT+G5L34R5y4+gSc/9knNdaBHAzgIK4YZiYlRu6KHBqUArYw3BocEEFXNQf471wtFiQRHPt0VdnbuK9CdPXsO7VanRBkFZvI99n8XFq7WzCiw4t4mHT8ZYTToY7j3AKP79zDZ76MxZ4vnzPcp6uf17AaINZelqmwN9lW3EFFrmb94j+j3IIo/BLRkFgQOmljSmrnwwuDQJDNDvBcEB4aX/pFXQzgk0utgdQAcyH1Q7YIEf+7sIaJwuYrgwIJVah3ScCyfLbExR81WKLpJXCIo19gReoRqCabQQvAZ9/OeJlUPBwdmbNyy6ftLQe6V+kX869an0ccmes0G/vqPX8KPXQ4R6Lvcq47f9ofzChwDhLwvoTkYLDjdjpviEreuv4Hb6lbIHe0wNNaY3KC71efMoCWr3AgilSDonTH79ksv+GpgVLaZ72F/djHZ6N2BhmqrUrHxHzBJklBOHQhUWNMWeVa0sVWXrTbKuBYSBkaGnRm5M5IKQAiLXmsgGOQZ32KTpSCMlH/FqlhT4FwcDUbCHQv84f3gtWZg5NwG0u7PPPM5fOypT2pDVz9JjiwWtevPyWsrAxwdPXPWCGiZAUanQWoqqudcdJQUf2nYJcBEilYKdGoY3EdvL4cQVAZA0D1gcGHbKGFJTrgUIJvqumtqH0GAtAsrdYHQD4HmVDKbov5CIgmuCWb+vHL05qf4sY5es41uq4nf/O1vonfyBJ588mOa7VBvd53ZNjk3wIFSwZLteBTGSVPgPv2DBjoEEmpnLNT55ZXhuQ8Gw0p8qmF/v4+9vT4uXbqEjY2Niti2vA+6l9ERICtnF7N9XAHoGk2aE881UbLTaKgt8tZr38Wof1/PT2e1QIPXSZ4AFDe6FGPgEIUJri+Cg1VLffoO+iwr0K1wqBIPWQOWHepyrzRAZYCe8/prGNTU49oXBHbrG7iOlWObVZqxlXICYGlLNEaaJajwOlCHBp8N6g3aBSDTdRfTxGchwQlLVjMabWulNuI5siTEZ5ilAD2OR4mkD+gP9HyLGXTrsQG3YN0haYOPJ8TSNHtiWW4xRH25wtXG4/jnzecxIuNSa+Lv/Ikn8NzpP5zB7fiofvgrcAwQAlkPJkuMgs1jGLp14zpu3XpLtLGc/dZ+ksuMOfK5ebAgrdq8R6PqVQpMCSyyhbBIyZ2hWQrujTIEbDILkqDMLVqas1YwGEWoP3BcZc0hg3Y+/Sn20h5T2eyc3VAkx8FKdoOTZECOhyUgYrbBWfc6vkIwFvR9uK9x86mWF8qSgkFRJjza0EJ7oCw+DsjJux3mFNAFSEQTqA3x7NlLuHDuIs6dv4Qz506Xrn+R5TujYtshhWEH6y8GB8INFYDgEb3J2gQQzLbLaq03peqVK673yf+AgkO3Pvoc3TLm89fkC2/EtSXqZBvka+8OhdmUZYmps8sY18vzp521wMNiJIpauCkAjkSzOfSn0UCHFs2aKuiyQbNNl0q6I3KIE2viDEKxhtOHIqRqLH3QxjnVkwqx4RNQ1U94iZbrYRReB0mSDAYD8Betpdm1kGBLXQHx/ETCXQQ3+09UmhUUuAjflPejWauh3WhqnHV9NsDta6/jzvXX0V6MUF+MUSOo0oyEsuRX8hM2dTJbEp0bFCTOB25/rHHMMoczsVuBQMGMgD2WwgOEoEwdEetEiL6D9XiJCXmtG3HvPRlTZQEi1OUCMw1dmsfKs84gh5IR6HrEtgWhZjjKboJkLH3lbQZV8lsBqmI9OtYnY1VxpFT3g3UuApppfhTr9GAIseYlZ6L42/T+VQ2v1y/hX7U+h736Nk512vgPv3IBP3rJfhHHPx/MK3AMENieNZpivKTsjTtxQzXdu7dvgh3KKdbhJlel4oz2PeFND6Za/KiF9jYu5Xgg/UT41Rp8tV4qR7L48SZKExf3n3Pz0e9KrmMkKzOXzJTW1mWZDRxkDhQeDzAHzGoNDpjFhggwlN7MKrPqUfix8+t5bIrjsRlpU1+5tVHbqzNC/6u9AJynUGgmn8Oo0+amUt3yGDeTpo++8+UKly49geee/6LmGRj4lNoB0RJkECKoO1hbNLnm50/gEBa8Pp4oP+SmmvNp8z4UKviS0i55B2e7kq+y9VLfnwDItXgrxPOa+EOlm5h5wA7PWqr/KOmkcY5b4Ty+lxa8ZHQKSaec62zdW+dEQNoc0zWRFLVMIOzMwbp2g9a+FB9S8pcsl9wDnRl6EJXdHbPF1B0nMRwr/A5KwVsYAWkA0hLjETsWHBCpW7l37x4ee+wxaQ6qGW2RiWb1JloGubiKMQwCgLYqZ9asa7XwPVZ7aHOJXr0u5uD21Zdx47WX0FlONfa6TjOkAOVeaCGkEwCwJbSA44w+EmPxR7omdITUREYzMLIAC+ZAQA1sO6UgcU3+F50oDaw4H4EMROwLBhUG23o2VCKgNmLqiaXUv9TZNklGwz4S1kUk4xEzIMg8hEeKx6GXC3KNaayAVz8TZgSqMxY0ZEmMgcWzxhChAyofUv299UA+HrJG5QwGG0K9WvsIfqH7PKa1LmqLGv6zn/soXjhb6LU/mNHx+KxYmj4kWftQXZYhBYlM/OMhuXn9LVy/ftUZoDIcp28OuCUC1wCTmHhm5bp78/33KVco85lAC4pnztK88fhzqUNgprWSWIyCJ41OFbXLOjHpvMpGrk29VTATFYF4sQkcygwiKArwsAVNKmrbtnKMsNq4RP96Ml8V1CjgRsgvqNzIQCROjMl9NPtRzVWZv2ucCm7cdKxNj/prDIqJa6F6O4VzCxvsdLobOH/2PE6ePo+PfewpdLq9yMGLcRfe1GLzZrImgKAbEDtq0Kd5Hex/kK2L2YGQpkl+VRA0lUsX4KAevfkV5kWGwwwoKx533styTQgkpCWuAh7vs/0hhsOB3BTHE4oOU+FukynS2fboD4AQdXLeHWfinuxH3QBbB1m7Tjto9aeH0I2eDsyOmaVWyRTZCidoy+w+dAbCn+rlT1fJYHoOZIg0C0pDpNFogL29PVy8eNFlhWCdqp+RWpaihb8Qq6ZoNaCXtqKgSzjNUi2HivHS0HQJfFYTXPvWNzG69Sa6GKtVsqlW1RXYkSIdsRiTyMr1iZwNYpZGfF6jIb8LazJsQ53uklScsgpIzYfLR/ZT0DLmMam8xbHk9ohwK6J1Bu5E4fvDCEni2rkEqnqGCa0pggwXSjMcLE8xv2ALZPp7VJ/egIfRI/vQXD1LR0HTlcZHWa5z6c9lKgJc1VD8RQGqpEEJE7AVAdJsifkSuNp4DL/SeQ792hZObbbxN75yGT960Yzc8c8H+wp8aAECY954OseYmUpk169ffRW3pDlw2w8Do1wEi+zAwTw3fmZSicodYLJuF89dIXAT/Ah6sIwy2S3AoEiA0KaffpuGMq5HGjSkO1v0gZMibrWjV5qvS5/9cqGuMx0uCRiRBBgJ1kMZBlu9JFjid4XDXGQ2BjyhlThAs5bn7dquR9ZO9B1Ub0uAJrBkAaYtmZ3NKWCEVsEmQxydy2yxhWeffR7nL1xGt7cZWbE34TL7qZRrlHFG5p5sTeU4iystlsN6jtQiyPfgbTY4KkuUjRVzph18yrZM3/FoKigys9yYqV5X5sp9mACQmVzNYsvRcIyNjZ40BhI2ki2QR4Bbz9Qzr9q3RYky0olMsyaK2uOJGaAITq+8ekUmTy+88IJ0B5wayTkPprLdT1+lgZORyCCuMym8GiodOpX3JXvC4+Pnc83y+AfDfZw7ew5dlRV8b+SZkLaWkQLbKyN4pdRpGCH72ul5C+8Itv7xVyMBg/UuBECdxhKr3ft47Ru/IeFiU46JvG4TUWTuskgPBwdv+yNYlCgGTGWFNtAkePKacHmIugaXBvQ+di2EDwPBAUGB3BUJuuivED4FORKZjIMBsoWnCsIsjwjsx3FJ78HrxLKG/Slyj7Hr5lHggBeVrauHf7Jk6Msc5c3co6KNkWtsTbPgpyY+TGqiogQl/w+yeDQ8WwDfbzyJX+p+AeNaV4v/7/zMk3jxvMWZx4WFDzY40Ir6UDIIqxVGswXGC6uluGm8ce01XLv2fcw57jYsVKlCTnDgQBeDbkJUVTVdMZXqUcYO8AeFRGkSZIaB9WUOtRmO+togOBGv191Au+2Jfo5GWS2PIB8ZvkRRnN5HAVqtnIroQTQHvjdFTKmAtz5emQ01BzTcSXqyMCwKfYCJAw9xkWo/yibWZNgUacUUIzd8UbQECAx4Vgpys5HqnlRvdGvUlSQuMZWB/gbOX3wCn3vueWyfPOOWu8q0OVncBghgvKzqJ6KSENqN9a1V10FXI71i03IfAAAgAElEQVTmCVnSKZJ/9/bZj+cD5BZYCroKCrciiEzdgdcNxzSbZhZbw2swn/leqlOigX5/H9vbmyox2NqX84qsu/B6c2AjAK1x3oPOJKl/u1Hu7O7g9WvX8Mr3vofz584LMD7+xBN49tlnMZnO0Wq5BOGgETM+4nRSeJmgwQr6ZLYqba0RAoqwtbJbIo97PB5jr9/HpYsX0e11TZlHkCr+LHyT2oxY0xXr5BL0ZSmKz6KFk9apRLtdzDkgO9GhM+NyirtXX8Gtq98HZhPU50O063O0GHxJ+Qfw4zoUMOAaNLUQw5PYsUA/DD8LBLcEYnU5MYb+QO2P9jcwkOJ1b6NZa2nqo7YOsj0qQwaFr4FL0cnDiZlNrkGDAwHknP1AUB/XyvMP3CZaNYGy9iZorTTQOBCPqsZnOp7QTxT6nXRfTIttP0l69vyzDg74bxQoq/V22cTV2kX8cvt59OtbOLXRwt/6qcfx/Nli8swHPzoen+GHDCDEAzeezBWcFGzqNVy58jLeePM1TGi5GsNKCA4yE8/6nB4pBrAmx+t6iIoGswhNZ+Z1uN0n27IyaLE2PRzuY6+/p9+5IXY6XfS6PX1mie7t357lC2c/ISBsszbbRathGtk7To6BjtKG9teY5R5f7hY/CuRGmAz2MB2OwpQmAmKWRLXRmvFlNpRN5jo7jfqNWrs6BSJbTtEZv8H2gt6GCsFFUsrcIDu48Pgn8JGnPoPzly+H/3zN4CDyXQGLqO3HHr4GgIrQeZSKO1wQkz6WOZI0Axn0fzB61LmZQZuv9fp9tjCxtNM1e0JBIkcNm6qm9I6HOtjfR4f3r9UUQFPhgPqIADOL6OLIUdYBD1z/rtdx9+5d/NY3voH5cuGAV+eEyCWe+sQn8fTTTysYcYYEWxq9xKNVrbDI9tnwxx0KccUPAIjq/shXEBjs7+/rd/46deqUBYmqA5TMA50FM2Otllmqn1eyXMHIRXafnSxFKSvubeojmHx3wU6GKe699QZuXn0Fi/0H2Ggs5CI5tzEBQCfQ5dgDm0J7wey/yc4ZiQJqmIpRMiigQl+1fwKzHDuu6xEtngLi7CdoYk7LaJl2GVTI/4PMgYAh7zfZpxj5LIdED3xaiEULEG/C322XMQ2yqkvi0CwJS4tug/V8fd1QkufhMkkhks3nU3+Rxl0BdPVF/qWnLdaeZqhozkQTL+Eyvtb8HPZrm+Aq+k9/5kl85ZI1Hcc/H54r8KFiEPisTKYLTNS37cLia1dfxqvff0mDcuwDYAObVPOynS4HEhEY0IaVDnH8syehFbuq/Qvk5x5Fy4PrSCrpJabTEfq7D6T65vcRHLTbHc98l+2w0b2zC5YBcijUErXGimyjQEGnveVpb+qnTh+BciORX0CqlcPHgBvgaLSHwd59DHfuK8NSKUOWx2W/uPFE1Ct9OPpPM6jFpEMXpAMiYzPDzGviPn5rDyJPlQ0yr08LrY2zePqzP4LLTz6lIMZgqb0zygMK5NnYISe7mJYX/enWRPhrs3qyFnzi/fZBIJGRQ4rKjfFRHvH1VrIg2cWWVDfJyqYcpSg55SlwkGqeCYDx3OScFwBod3cH58+fw5Q9+YXg0/dOYIaZqKZnxvdFe9uV176P3/u93wu9CMFqG3t7uzh3/gJ+4o/+pESCDU0RbMaAKJrv0DPBx5w0u+9UdiwcZfwVr4ilzGdid3cX0+lUmgO2MhbdCuFrXKx6eUFVr9f61RY4iJbQ9LFMG2cDDQOXXHO2qU7VqIZOgzMq6Zmw99Y13Hj1d9GrzzQNc7Woo76ik+NYTBaPgiUBAyl7R1C8yH/RKl0s0FCTyfocgnwGZX+sEoG7RFw8Y8stB3HZ7XIuzYHNrQhIVB4RE2LzJAoTlyz3pA5IsJ2MEUsSZJfcfaM1r3Ha2XVSj1IFb1bJJnKfSZfHfDS9zj0tVDqoSseCz8UlS2pm9F2paYlhUCqrSEyzxJXaY/i/ap/BGBvYbDfxt//Ek3jhjAoux6qDR9k4PkCv+fAAhNUK49kSUwkSHX2++9K3cOW173o07HKFyYQjevnnJVqtpjZbigZJmTIQ08u/KeWzM6Ys4zlDdkDUxpjRLRdK4BFllIsl9vd2MBjSNneGdrutUb0GHE3VkrnpMwjRlY71aP2SEJIIn9no0pse29vaHb2+RWc9UsVF/p27UabgngY3GO5h9/4tDHbvyr5XdVIF26pFKoOJDW3VtJ4T8NTB4BYqBjqfZmzkhSLbG5E3Q7/OCUsd00UDn/rsl3DxyU+jvbmNXqeDbtsdGrI7CM2GvCSCkeaelRldqbeI4oHaMUvwkhuht8OiylGMrS0m+h1EExE6Dz7Xh4sW8YqKrleZeAo2FXDc4uppfWahdM+i5z/v0GA0RK/bxeZGD+PJBLOgSsRLSIdQjsrm5/M63rp9E7/0y7/ooCYhK012GvjoRz+GF3/ky3Ebo/MlWhVlypPsVoEdU4SYbnklqNT6DTCS7ai0Uu73+yovMOM+cfKkQPJB3wi3mQYtn89CAS4reoMUlBYXPASYB4CB8WbYVUd6bbbDHTmd5QLDO9dx89Vvo7nYR51mSgRW9I6Qz4H9BQyQGKwJDjx0e87iAjUPaSIm3UGUhQLoirGrGWyxVCDdQTh6MrAT/Gk+CM+bz6c0C3yPs38+06T82E65TLOmtFoqRII2ETP755ZosydNiSIT1BFE2GMjGLnUFAUXJOlEvjqZhID4wVVEO6/vT36ub5lbK0mOvbI8h19cPYO91Qa2Ow38za9ewo89ZnBz/PPhuwIffIBwRFmBIqGXXv42Xv3+d8OHnfTpGLu7e5jNxmi2GqL7W+2uMg9m+F2Cg3ZHtfRocCsc3crCeD7shxeSsqbFUvXnyWgXs/kYzWYd7bY98GkRLEBCARX72Vm7pVxSs+1nAi5zmhgtJsosU/+QgIIe7myNZFuYRFqqnYar32KJ6XyG4T7BwW1MBjtYUlCozCXKAEEzp35CDm8huuTnWcTmaCzXvchIVYhgWURggZl6sBAKNB7Ys1jW0e6ewRe+/FU0N8+g0dlAq7lCj7MDagyGbkCXNiNKAYQns7mDbQKxIqMPqp1MhYX70btdEOe+/sq/bVzoDXGt7zH/Lu/VQ+DAgZr52p2t/FtS5i6FuG2PYFCZXJhD0VJYkEosUR37/T62T5zQtZ2oFFGCjeQ6oi6CTqeNX/yVX8Zv/ebX5dfPgH32zFn85b/876K7eQKNpocokQTXcCB1xri0sDYVNO6PwcX6Ok0mwwOmIiSsoJIGmQMChMuPXUar3TYbVGEJkto+mGMWHQyiUKIzKICgxLMB5HQ8FkIUP4e6KRQ4yRAAtfkCjfkMN668jNmDN9GcPkB7OcZiOlIgLPRBKrNwfbDrgOuLwlYGdZd9CBDklpiINA7Ag4kIKvgsNTETZvbzRBqeDIWFjUvOATc4o7W14FgDaLexZBsqAQZHhkfHgrtQQpfR4Nr0tZbRkpwlw/8k5ktbLxSXhCxCCBmlWQhMTWOnQuwZoktDjljjOj+yHl5fCYTk1xLMAlsXX5uexD+aPI0h2mjVVvi7/+ZTeP5UbKDHCOHDhw4+LCLF6Zx95aH5qdXw/e+/jO+/9rI2CW5M3Px2dnYxGPRF8Xc7HXQ6PQVsCgHb7Q0FcPVVx5ZWCtiSSn2bJ0hxeC69wWi0r15p7q+tNgN6W5/d7VB/QGYihGVREtAGQcOV+VhMx5TuerEhMYQTZJDtYN2ZWR3Fatyg1J0v6nQlgDEc9DHYf4Dx8IG9BCOAWLtFEZUHxZAtYZ3XFXEG/uD+EywIDAg6xIS/OP9C/1BUNhWYG90eTp55DE9/9kXM1ftNtgTotbgxEjR5GqJ+hW8CaVBt5GHhy0vuzTi8ELMuHWZSAgjaZJ39+nVlB4WYgxJneDPVfazes8MAwWxQ5e+LEkpsyNUtQxtzxPhwnDSLwBNjq1yAGQUrMlIc9bzCbn9P7YqcrUDgl6Ogq8GXgZNmRv1BH29ce0NA4MLFCzh1ko3o9vJnTd1Olp6vYBYgVRrVoFuOEzfGS9arzE6zA2E2m2Nvd1diWl6LCxcu6Lv1HFS6D/J6KqBLUFheV2GzuI4athWXfU0oecSjk+Agj6XQJBCGTtkSOkVtNsGb3/0GWvs30Jnvy0JZXTJaD03UcjIiZz9obDMwV7knOx9iSmMi0ARvWutkAVTLs8GyzoEsAweZTd1lEm2sYjQ0kIvdRW002j3U2h25WK5aLbktotUqPVNiUFMClsJ7ggwC/TgWtDQ2dOIzIbJAGhe7dgqkxDELhBav8XpLpiGZLWmIYs3L+TU/TzQbr8UK35+cwj8dPYn+ooczGy38x199HH/ksmFqFmQ/lBHyQ37SH2gGgQt7ynZytZr5Tr/8yrfx5ltXXY2thfCq35dgkA8gKf9ut6eWQ4KDVmdLgsSQea+1i73t2hGqt20z26wGw12xEwzu9hpw21OH39FiKYMZjsHB+o9pT27+0/kE8+lYYkoZ6mjmvTMQ9tVv9TaU3RelDgQ4GO1jsL+LyWRHIipnaw2xFZ3OpjIlUZwx74AbTlPujWWLoZwdKzoFty3m9hFjdMUsML3n710sFi08/+KPotbsYcnAwuauFtBpedqE5hbJw8BZDTdvtiNapBeK/ggwSeX7S12nNlsS5i7CLettYmYf1ttAzUK8UzpUZmoPu8eylBboKEtNCUyMIUuh3gpTMx0A2nJBtFKfXR1svRwOBhjtD7G56dZOT3eMnnUNKkoTm/SY8mhqrpc2hyw1LUbcHw6U3aegtBS7Zk3f9HwpGnUrr4NHrCWCiyiZ0Pyov9/H5sYmTp46GS2EFtFmt0UBD1WnD0agAqpUbV+ymTW6Eg5d0PJeVLWmVfaAzJiCKJl8dh+Nx6gvF2hNB3jl67+E9mwH9fHQWjyug2YMlWLJjnbTUXrzerUREe9fWboq5A6y8CbgoqmWWiEZxQMIrDjdlPqGeL/bI6nLaagU2d4+B3R7BghE2e2OnoVly0OiVOPntZC51kJAy9l8uCQua2iypMbPZ2vr2oAziymrP/J3CBtvnZu6o2zVlkW+7KxxV03oo0ITw2OqL+Z4ZXQS/2D4NFY0i6vX8F/+mY/hi+eOXQ4+5NjAW+0Hts1xBUw5YS9U63xer1x5Fa+9/j2b09SA6YyZ9QD7g339Xb1Rs2CwQxV4B60O2w43inVS3ViLpKOyitY2OGWtNSzmM4wn+5hyTG+I0RSg68z82+gw02CWwY1EBHHBJ8Ynu62Ie+5sPsFkOhDj4amLjrDMLrvqgiDj4el53HRo1zsY9rG/v4PJbB8IW1oGqHanjXaTvestO+1pGFAMCop9iN8bpLCBSAAEbtgpKpMYS5mazZvq9S42eidx+bGnsHXynDIpjRxeAe1mJFI8QNkkMHiQLTDFK+ZAWXdaOOdY5oMto6m+t26Czm9ynizmVvj12cpYJQHWAEKFHKi28rlK7XCSP9ZUOBuW+DDv5QHZVlSR/V5pMTx7wp0sMRyIIC5+OHmRa2E2sfiPwZTlBGbq/A5552ttOnP0IbuDggBPwBJ1TNgNEYG0OOYKZa+AW53DK1BWGZgVuhKCC66bnZ0ddSrQ/Ghrayu6a3wRqkDIGgd3Z8TlySvlgo/AQQWUFKt67eL7ah9hsmTbX3/4dDLDZEz3xCU6mGP31jW88o1fQ2dBwGBBYq2xtE04XLrzJaCLp++m4E2yUfLkMIOmshkdStmZxPUdw6tEHPAcFtPwR2DrJDN8vpfva6C5cRKt02fR2NhSK+NSVUjaXpM9cPsnwQFbgq2NSTYsA37aitsQyqxLTK/UejMzIHFiUGEqjZgiLBgDlx98XXM+jJ+z6jhnchIBCmsrvD7cwj/aeRJ7yx7ObDbwn3z1cfzIxRAWV/a24z9+OK/ABxYgTOYrzBMcAPjOS7+Lt65fk/8AaTyKwJiJzzi7PqbBqYbLXzKi6cjRTz3dR/7k9EX/Y9bk86XcWMgcTGfD8NrPWqKDRIMZhzoX2vaFD7tYe+Z7Q9SGFh1KqitjLpDAYy5AwmyuTardamozJwNCRoFlhf7+Dvr9XUxnA2VMmphXawRLsqnaKinKyXSE2XiowMBNpiGDFYc6Bd/o5Ehgo3NlsFLtv4mGWj5JqW7jk596HhcuPY5mZyOo6IXLNi2WQ8LIheZUzJRYdQ3vAG5/TrDcsVFkPmu1gfJGZI2ZtfcGxxarxJDUN99fdhocCRCihLN2a4vgZ1q3uA+VzLicsZD3c52NKNtdpTYs5kxYQsZo1CjYmay5i5khm0AnSbJNgwEmk5Gu7cbGJlpyzZzr72YyUyIgInvQwVLOiCvNXxDLU62IrM2SqJxpNcirxFRaLBN4Eqjcf3Afly5esnVyRY+wxpKEiDXDSdm5oAgXExBTVFcgAwOJqK3nfU6WwFfdoEksVVzeyZg6HJfGWqslNprA13/5n2H64BYaHI1dsxGVvQF479PbgWJFszCp8fD3e33k92gENYO9wIG1NuwCsgnYzAZKkZ1bhkTWoIuNk2fQPHMRdYEDr0F6EtAIiSBDTosFa0AvjEj15XtAM6Vw38yJp4Xghs9+BHu1EofIk+wDmUN1goQmIq9lwI+4wGYvC1bQ75c2hsxDbYmX+pv4P+5fxHjRFWL/u3/qE/jSpRrkT/VOJNuHM15+6M76AwkQKG6j5oAPCIPiS9/9Hbzyyu+JwmYwpQDOtbolFkThocZXOxM97tnOSCFW/J86g5R9HHxqHPAc06M+zkeNBkvKyJcCCZ6/Ti0T+6NXFjPV+R3MckyT6//CYElK9xUfVLvoaZOiilmbDbsxCBJmmI4JFNiJQKfCepRGSIuStqbmoI/JbKC2Q/5wAyRj0W5tSGk9YbliNMJkNFD5AnNylBz1zMBPbQRFkxWVtXZWlgLmnr2gIFtHs7ON8xc/hmdf/DGcvfi4BFlyt6sRvHCQEBkHX0PuabwOnl0QJkZJc8dAqKz9e08/rA1w1mcBXk4bzBTWcT1qSlFeOOIjjvzctbZGfU62nKa2wHMIkrrPYGn6PMJk6OzsF+HWtRzi5Fp1qQHILgCHqtROUE1OP4WVGC7ZT3NwE0Wqc5sBcQ1vbGzrdvHS1Vn3ppBUHhrxE6OcD8osnD0HIJCFdDALZKhmMzEH/f19XL582UOckhmI+SLWRqwP8vKyCKvrcOlUjKl2JYhMKJ1Hy3vL2REWFbJk4vJXRbi3rAWQdxbMtd6mzHD3Hn7za/8S7doENQKEsEHXfIOIb6rf61kKe3ENlPaBEdwSlBOYsEPE7Yy8FpA5FZ0vNUtDehIyCHa55Htb3S5avW30Tp9B+8Rp1On6SXqsdJeQNoQ6CPMF5uGySyfQii9t0fnk2SFF7r627B2x+Xp1M6nF0ifpLpko9AQY8IOZ6zTcQ+N/ip9YLvHyfgd//+4l7M7aOLdRx9/+2Y/iS+eOkcGHDgG8wwl/oAAClzc3VqnitWcv8bVf+hd47Xu/p8yAwjD5BkjExXm5dB3KZnoPT9HwFs6xJ0WYuY7+kL70zj/8Yz/+Yk/WRhlz1on05zO5JIoizBYl1qLDlU3ZNzcpitDYFhViI5ZDLAKMmq5sXVnHZGYPTBYzDOlmR1e7MQVkpKXtz8CNYTweYjzax3Q+DrW25ytQ7yCnxmVdVC1Fk5PhvhgJK+yYbbH00RHYyME7nDiYQZvirMl0ivFoBNr+zuodfPWnfx4f/eRn0WiF3S67F2qkeqPeHsmb2suUhbkX245vjnIpQrSaPIDBQzoIzGREINEsgsyATeBmX7n7vaM4UIgUK6rw4s5F90AENW3GBRbM9/N4TTfn8WXAUyIdbWwCCkkPiyEpdREZEMQg5XrKLF/Dn0wr83tmSc1L/M+OCNLrQ5XE2hub6G1sYkIULGo++u4JPGXju561W6Cf17VscbS1gNc17zHBAQPQiZMnBCS90kP5riw1SiUSrvrH+sMsBYXZUOgZCk1CTDdVBltcP396g74eegSpgzFrkPqWxZyeIWRVpvG0sb1xgS4W+NbXfw37D26gzoFNOsoYVpQUu9pX7O/B71VrH3v+ZW7GchhFjCuJhM2QNVTKobsoBZBLlQQNEPj5NlVroUHN0NYpNHob6J04AdCtUsPTbFetLicJfeto0/+gcC0sd+JWM0ZoB0tVANNKCSgF0SXZH+2z6kbw/mCRY3h8aL1kN0PMWYh2x5wbo8ai1Qq/s9PBP7x7Fv1ZGxv1hQYvfeUxgvr0njgOk8dXICLcB0mDQOZgPnftl9rjX//aL+DXv/YvVLNkptBptQQQ2p2O/ANaHar+m2pDqrfNHFD5zCEqyvyilme7Ve5nSi+0KfrZDttRZcf8j/ve1WQwm2lUtBzW3N2sjVDUpca8NkQTsi2qXVuqraiFOdpKPd1DzQlwHgjDNqsWFjW6uNUxnlNbsI9hv6/2R4ooGfz5MxwNMB4PNE+CoktViHnObXol8DV1TEYONBN2VIQplDZBzkNodtFjdrTRU4CXHbAGyTiLEgU+HmE6BS498Sn83J/7i0BjAyvWv9VeRvZBBrO6TupUiJkFvha+VmIP0iwnAVQRTMtyTJn920PCAdEudVL3t8jChGAyh8/EvVrnHuIzjwId+SWZwVXFJEUg9GjiBIrK3MJhMoND8bZCtX84PCRIUGubsne6UnrjLoJuhTnh388Lq2t7bdQ0TMulhelkCg5PYjCmL4aHN3mEdpGlr1EozpK1DuOAyRw82Hmga7q9vW2WrZisFFmqgFe+J5iKYAWKnpB4j1X5IWYk+8X6u7pxqvbVZN7o5xEzDrhiYvS0nqE5p0SSSWFJMJ6f2gpNUuSDXXz7t38D0+GOukOk84ihasV5B7hRyUHgjZ/Pbg8PSFK3QYNg2PboS+4d0ykm433Mp/vyNTA8srcBn0E+P83uJpq9TbQ3ut4jAkiKzuc1D8Dn0iEhn7uBXCEwg5ij1AUUySDm7IroF0jfkDRo856RrcQGl/JkiNHsgeRCv8AEJTU0Zuls0WLG9KV+G3/v6jYGiy5Ot1b4z//cU/jCqQB7612mxzHy+Ap8cESKTKYkLFdQWuA3fu0X8fXf+BVMx7QSzsl/pPfJErBmb7qdQKG7uYlOdxPtbhc1KpfFHvjhdh+ys8gsFfABdiYUWVlQfZqMGN0F5Wbv1+Qm4Z2CtceF5hv2Vit0BA5WaDeXaDHwoWHRX6OORb2LZa2DebOLeb2GyWKBwXiIwXCA2WSswEAvBB7PiMzBeIAF6HHAbIsZvEsFbIXk1jIdTzRFkCZJNlyyWxuZDp5zr3MCW5v0fGhZCDmfo8Hj5YyBGcHBFK3uKbzw4o/j4898nn2M2qxY0hXzwU1Shk6m3dNtUlK9HEZT0O4O+tm+6Iw0stFqIC9mFGSQCl1EMhQKMu/0NJfMgZOukgVygH97etUUetzy/4+9N3+2Ja2uxNY5efLkyTzzHd5cr6qYSiDAgJCFQbStkKNbU0htud1tO+w/wo7wb3Y4HGHL7rDdDofb0Q5Z7pYt0eqWQANDN5OEQIAY1RSjCqqgqt587z3zmJlncKy1vy/Pea8KMRSIQtwb8eJNZ8j8MvPbe6+99lqFkNNeCmIZpE8nHOTuNt77WP0FTGFwuiBxt/mzACwsCFy/eE1HPbOI5jH4ZEg6F5yGCao29ioVXKdV4ZEBV/Xvr4z3mPCjdRxhPOudodlo2pisS7Y8cqBEyCUHHlRhpVm0FNyH7482+l63fBTZsnLJ4m64lKZKLlYzRXajmoT5+cP7jEiGl5p2Jyf0oFpao3fj63j6iS8hoKxxKXctBT74plCodp/jIkjNUAiBjecSOeSEARNLn1wKqUgXyJgwc1Qyz81HhMmt2lVsTZDzYRMKYS1EJaqamuFeK0ljti7I7zfxH1yrYm8oEBnbtzwh06ui3me/TZSCiY373fRYrPHAx8/ea7LZalvoafb4gz2Hn+qV8Xs3YkyyEN1qgP/6Z6/ipx/iVf1mPKtv9Uyd///f9BX4G9FiYLJPUp1t0Tk+9emP44tf+DTW6RJrZQ4G/XPjsSC1VjeSGTqDJ53vkkYDtbiBWq2OgKNiQWgZusvWSQ4zXwRuXN461Tb059sAPENcQUDVGpMOBs8U4XaFaJUj4u+sKsItYpIjJazCjd+IkoLwgwTrIMKmEmG5XmGSLjXO5v3diYDwzySwUceBZiuszIh2VMokQnKM0qxmmQTY5svWg00/MPAbSrBBtRojZnVUtYSDuxa15q0FsMU0XaOaHOJX/oN/gBWDRKlq9tXi3q2VsFCrQZVRZdeqMV2G3ez2vtjLvlZ/wT3Q7u7aK5IstmTMIzdij0s50iEtvun8VzytBYHuPsc821z3R/D2A939/AfHEbiP8bifaOwShH3IvXj5fquh4CtYm2Svn6EzIHKk4LoxBU1eH1pBVwiNF8S6ilk+a8zRCHmkmhhm4eb2H1gPSwoKEET6BmwrtNttW0/5b+whGb4t4dMeP0tf+FlYi0JcC4+a8EoRcdJrvYOjoUnWojDOjg90vDcE8VMrwPXYScC1ZHyvfUeEBGu0ogo+/sfvxXa1ADapYHXmNBJoUrTmM2sjtUwYTCbZXRvZpJsTJgM8+TF8Tvl9WTrHdplpjJitBiWMjkOiAoGcobCKkMRlKST6jJTEQ9tLijtABFnHydjnZ+z9Wefmulf7l8k+xwV/d7FMjdRDFf5+tfSAz3BQjeyZI5fCSXnrnjDIUiOhX54n+L+/Xke2sYmNX//lR/DaY6Z+566Mf9OD/As5vx/6BIGoAZMDGyDK8fjn/wJf/NLnkKWpBTaRi+yXkQc9gdDMVUQ6YuuhRv2DBuLYHBWTOFEFv+UmUq5ImY5jVvRRYB/d0neiDNwQi073brPUbmHkQWNWE6JPEWZLJOsMVSIGoj1snQJiIDRDFr0ihwXYED0oV7Euh0g3DNApZgzCknu13YXJClUgF8uZjTOJOV9GSHJgGLpSp5IAACAASURBVEuGWVXqllMCxpJnkqPqgiNUJD25CpStF7YiCvMeN0lFLQlUYrzm9T+Fhx59TKOJbghL/Vn2badTCurMxIHgGsb1BkBOAls2DlpWEHPrsu84Z//kQ5PnAziPgyJBcEvu5HO5EWrqhBWVg8y/2YNggcYbRdnG6nkGHvJ3TaL7g/UD7EbLQf+KVoUfX/Pvc5MS9tf9YGfy01bs2TisVaI7lTuvekeIna0kjdMxADi0SCN86qMz4BEdcneEqsfd19m/+rXbfQc5JEw8uIb0VNhRNXbr7+rTgotjUsoGc+wSKbeu7rr6RMEG7bz+7957nKWC6VdY1at7RDP8hhqIQFwYJvlrxbbVBr2bX8ftb3wF2BA9I8+lgir9DvwKiPiqFMmaWR6al0ETE8sQZfIGqnwuqbmxElF3zVZNRsQsF3aoxM09hwqiIsZai6IUWmuIaJl9xy6hVbLpEMf9cUrfWuMyqQXgL4vnLnreyC7N8FetwAF8+8JdzV1e6ZA6jcxyPb15lmuSPJm18QcnRxivajhMAvw3P3sVb7m8s3h+IQHk/L1/s1fghzpBMI95kyRmR+6Tn/kYvvrVJ0wsRFCts2jWRIGxkGVoQug8X0rRUGQ5bkjlMuJqiKhSQ1KL5G8fNxqoJE2Uw0h94MV8idliWmxeYpHfd3/sbcaavVazAME2Q5BOUc0XqK4z1CixrN6jU2CTJkKIco3VYIQtx9pUnQdYbcrIqDmfZkhlDLPFqsKeaBnZij3TVMkBkRPNFChwcpQxlrGUMf2t8mSCwAqfG5TNZTNpIkxr7PpqLZK0tCpCiqZsy5jNlnjsVW/EY699PUqVyGRkFV5NbCZPF1hMpphxEsL5C3QPDlGq1QF5SlhrwUbWHMrjAkAByBckN0uqfO9c8Lb8DHaLzIrQE9mIIEhB0VVKf1WCsKvq7eiLaroInrtr97yfU7DFd+ZMD77Of8eu8n3uaz1fQYmhcjxKI+8iuO5lkus2KzzzNC3In8FLX/IyPHL9mvQRxrMFp+0sgKnq9sgGtRJYHe7svy1WueTDxTA+GxyjZCBmS4H33f3BajdL792wlLx5mUgXyLh+5l5p988+8mKX2aMHe9fOXye+XloQVuFb0DQnTC8A5t9lrQF+4AZBnuJLn/kIyquZEmuiDmyxVORe5pIrPpQ+yHJ/UEFu6pKaTqL7acWyMybUnMbJF7mSA5qCeeImky7T6NjqOeP/cTTQppUc+qbpCxuqlE2502zQqOPG2ncG7dg97RUZ929XP8njCaD+3vHIjJ+E8a8rkj1HcuXfyWXaaVwYt0XtPWzxl+sW/qD/EmzW5Fat8X/96svx+gumuHL+c74C32oFfmgTBIOmbVPnGNHjX/gsHv/C5xRAC2c0Ppaq7p2RElEE9hY5wsTkgMEnNxKVxhKzXGORtSRGvdVG9+gYjU4Xm1KIRZrKzY6jgdoi9Nxbz3MflvUbJSt0bn2VbInKcoLaaoaQDGwymB3UaeQjIgeELyMxpLcV9jYrSgzkLrliD3oj1ID8S3Zcs3KA5cpNKywpL0t1RIM5WSFFVU4TRCbGVDHBGE4fcFqBhlSyH+bnKkGy96m/SZKmWNghVusARxeu4KHrL8PV6y8TYqAKRnwOQt8ZsuVS+gniPizmCuSHh0eIk5bc69imUTgutP33XPw8fF1U97vkwPZ3Y7zrOjuEgf/M0TElCPQe0Druwa/Pc7f79o/XNbAN+LkJwjd9UB5IWAoEwb/Bjff56novl7Ey3k9PuPO1dowjmklOwgibrk5WAnt27w6+8dTXNClCEh25Mq9+9WvQaLWwXBIBKik4ijUv/ogbdSVa5AiMBuETonJ2vk5lj3bNXFNqZpi1uAun910Pj0DY5Iau4d4C+TU1/RAjSO6/wM/2e9Myj6TbtMXOpVHNNwZTZ0ZmUtHu8xyiIsidZN7NCuPTm7j9zBMob3Pd5yW5gFYtBsuWnNMeVgwUCYbzNiApkUmChIvc/aS2YcaRXfvlFRPlgUIxpAzyyGCCQIlzTv3wGSoFa9SiEDUSZF31bs+0I886DQe/vn5009AS451oaoI7k4i9prtgUuGWbFgLwlZOHB97JOxauLaO76wpBVQiKCq0YSnlLZ7MW3hP/2FMEOG4UcV/++/TstmS0gf95L5VoDj//x/NFfihTBCo0a/et4LPCn/+mU/gS098xWnh+xE1xx/gI1OwpyXNowDH6rwkt9Ucq+Uc6XyObDZXsEyaDRxevIhLVy8jrrcxT3P0hyPH9KbIEdXSTBLX9F2titMkAAN+CQj5f/MpyssRKtkCSbCVmBF784WwjBur5HQFeQ/U5N8wOG+IHFCF0ZjU0kAoB8hp6rMFZiILLjBf0irYMfs5VuVkmzkTz6Aj+JWfWw7UhmFQp9CSqkFupIX2vM3q2xx4FQhreOyx1+Law68wRKPAv02mltB0zkSJWgz5QiY+rJiazTbielN9carI2RXipmiKh/vIwA7219a3IzD6gOVbC3ua/9r8iJC4UThNoDh3v/si2N5uen/A3j3ku9bCt/Pg7yEBhcCSO+YHPQkeDLR7zQWPWphAklV6dnyWeDFx/dQnP4pR/1RddCI6RwfHEt358de+Blm+QsbbTbP7FYn30HRrNB7IEZStHUk0i8zGey0Sr4WqmXwvOQf8iUjG3Y/6/pycNoUtn8fGXGrgztOsjd0QvrcM3ofL3aidX9WimvWJnNMcMeTDFCmZtPvkwAKgjfFZq8tGDBuVDR7/zMfkv6BhBCmQOt7ENhAauKaZ2R5J2JaZ9wvbbTbBw6d0kWfIef/na+RZimXG1iGLBuecSpIiE/xSgHSVSoadTpqjYR+l0hqddhPNuEpdpCJBkBW8kjPjQkqASWOPrh1ReJ1wLNJeJDKing8en51vIbjGz3a8kCKJKxQ5XUJZTJW4e4ioCHVJyiV8adHG+8aPYFGq6vn9P3/lUfzUZdMjOf85X4FvdwV+6BIExl3fC2Zb4XNf/jw+98XHpY7IzVYP5a7LrM2FM8kiAjhikOo3Eom4MWVLJQishll9EAiMGzEOjo70iyz96WKpTUJOhdRpZ9Cm3auqWwe/ijxGUaAtAtrNjkfAZIAgm6JGCeeQsD8heptftgrB6QRQMInaC5J6NcdI/rd61JpkCLAqBVhsS5ikOabL3JIDN0LF75VtNK2oqcrIjXCzMZa2qhWr2sQ30DFzM8y0Tr5CVIu2HCBpHOENb3wTKlFDVE7R3phgiay4RkY7bPIYmGxkCyyzBRbLDHHcQL3RQqUaS1+CXAp+l1X73vDJ9audJKzvzRfTDXvJgScvGjfB0fud0ZFxD1zr5HkThL3K/XmehO8sOfAHZRmpuUMagc4fm4Ege714z1Pw3XtP5HQEMkOAPQvdWmEUQnr8c5/BrRtPIyKJrlJBo96SV8ajL3kpWgddLIl0gZyZAIPeGT7/F5/FU08+iTip4s1v/mlcf+gRLDjZ4kZ1Q3ltUAmxLLEh/pBnItvj+3gS/vh9pbrTPLBkwdAcjxgUwd9beVuOV2gm2H1JQqLdx4VcsidJutYfP4/Jvn3uTvtC3RNPsKNE93aNSf8unn3ma4gq7FxVUWJLzo2ISmV0RZdTPsO7WQlZL6utQI5DCVm+xmS+FBpIjhLlrdlayFZGBuUzw0SXn5sksY5/NB3j2We/oQSBHiKdZgPdVgt05qTpmfYW8pgYzBmwdav6cU77P7YDvYwzn3P6Q5g2ga23ETfdOKRGH6nm6J9be42umSPYGjJoPhwcbbXWhimwcr94Ou3iPdOHMd3G4hz8w194BK87diPZ325kOH/d+QqI83s/VftFvSgiJDqIOChv8fiXvohv3LihrFkVlcuOZYTj3AoDR6iyasRgVz3IlPbNuWmu6QCj4LlKF5gvJoKvu0cHqNUTWRWvN7R8JTxJfoAjUzmlRC6YwaI2trWdj5Ce3kN+egelbCzxo1pU1UZtSolsT3i5VHtTiS0GJg9hZA50ZOlz86PDX6mCdVDBChUsSxUsVhUTRxEkaS0EejoQQtVYFD9PiAYRAassbN6dfVH2eMm/SLHgqKM2aPOl4Iq8/LFXoXt0Ra2O9ZZraIFQwj+ynSb6sBK5c8V2xXKB8XSiPnaj2UK1lrC0k64ERR/4XiZFxszeq7j3Auj9yYHzYGBl7AOuJ8a5dozfPImKcHN8kEtQBJpvcid/V8mBhS8FO1aZhclP0X7YeUbsB7qCWmBRoJiYMFnonV0yk9h7t5/Fh/70g0rEjrtdGWg1O1289OWvQNxq6L7l55FH8omPfwzvffe70T87lZkSEYL/8r/4r/DYY4/p+SjzGtCmPI5FWCNyII6LTxYdec0fq/cI8QHrwS1hV9171VEvGrZrLRg50S06g6eQHvp8WMAuClc/EiyysJkL+WTLB0uKhimJYpLMxDRb4Mmvfl5GX3QvVWLgEghz/syEZsl3QFMMtt4iJFJDJF9jOl/gtNfHeDKVPgllmzXKKMlv53a43dq9zDHfSgWz+RzP3nwWvdN74C193O3goNVGhUWAlCpdG8ccHoQAqUtQZlJtKBETgZzXpFIVuhbVOHHAhI0cKJ47k3ZDUnby4BTYMpdFKXc6szbyJfiZ5KLwmadBGz1YrK1kTrA3ShfxcbwCk22CpFLCr/3iw/hbV63Vd/5zvgLf6Qr80CQIRZxQ1bvGl7/yNTz97D3xBYLQsm6OIenHjcVZf1p4n4038YG2XdGgP+eqFtApcTnHcHSG+WygB7Db7QiyDyrs1SYoVzhRQMOklaYYzC7ZSkrNHBMupffB7WcwvfkNrOc9lMt0h6yg5kYNFbiNSqjfbcSNpi4lKbOVoxjVIEalZIptJfWUI2yrMTZhA5sw0fFrgkB+9WZSpH6z5QKud7+SP4HXmydMwOPNVjbFwI2GyZE2HL4tqCgQ0T9h5RAIjXOuV05EhklFhhKJjYRxnW7CZDIWVFvnxheTFEnBKeuD8zVVkhrlEcCWh3dI3NMj8PK87q719sj7ycE+aUvCSBK4sV62KlNv8+xo+Na63RHD9h+Ivyo50P9xPFSl8M4Po+AQ7FXSxWimQzeKJGePr/Dgg+jHKZ/DmdCNvcK/+eyn8cw3vq7K9vKly3jkkZfg2sPX5fjoAzldDO/euonPfPrT+OhHPiz+C7kEv/SLv4I3vOENTlehKgGwsJ6IAEhCIsmIDHh+UsH4Em4g4YFr4L/LJwV+NNFirpteuI+Q4Ec9DfZWq4ptNgUtSyDMSdBQk33+gsaOH/h+knrLMgPYuNbgBr07NzEanCCKTPrZ83zsWbAASv6g40aa6BTvuXIJi2WK0XSGu3fuYTKZI5P+x/2kS3sIOPlTRjOpIY4iLJcpbt66jZPBKWrVDS4edXDYbJlVt9BAonVlx3Gyh898Dqx1p6mMnMTRKoJahFb3EHEtVuI7XyyVtGWasDIdED9WzOduuRhJXltTFeRHeB0MJ2pWpV8EUQSKo4Vm8sak9az+KP6y8xaMKzU0oxD/+JdegtexQ3X+c74C3+UK/FAkCPvJAVP0zz3+BTx74zaiOEEkx0VCzjRG4YhPRfPistdV79vsh0XWKmaJrSHOeXPl/nmKweAE/d4dzUO3Wy002x1EUQNhpYlSWBXnwKaXbLOzmsH0FTZk8vfuYnzrKYxvfAPb5RDlci4yInUWoogtBJLKHGtbzoimPW+ObzGCuIkwaQhSroR1VJggEFUg4bASAwy2tGX28KWDIsVRkN9DqraHOyrnHGHwPDcgViQi/ZkJgp1DuYx6s4Wk2ZZ/AoHetRQOybe2H/IW1lkmbXpxNzibTw7EdKqxxrhWQy3mMRM5qIlLQeIXK5xqHGPDUVEelW/HODjeByIrOveRA9vpvX+BHYX1631rQTPf+y2GImDtqtjn4x48b/tVQc8pae21Muxi248dsiU45uHh1nCfO+HHNPf1DuzQC1a574kXn6rWDSvRLfr9HqbTiZLTZrOlxFCIlL8OeYaP/tlHMBkN8Mj163jm2WdUIbdbHbz6Na9Bu9VFvtpo/SusKsMQ6WJp0LcIi3bP+4peE4gPJmh7rYT72fQOMn9wAd3BeVEl31Ii6dY/a8+XHOxPK+x/j/ry4h842eA8R1ja4MYzT2K7zS0BErFyXyOBz7DLDpxykSVVJSyzDIPhCPdOeuj1+9IA8c+Hvrdw5CwhrFbQrCdIajVNBt0l52DURyVY47jbQrfTRi2KVJAw4TL+AA22rJ1SsFHpNcLJKqJvZSCqN9BodWS6xXbEKmOCkFqR4dsqLvmi2+psOtT3zol0ZJl7DoxYrWJEplFmdLYtl0Vc5hjySfIonj56C2a1DrpJFf/9z17BW65VzuWTv8vAeP42t/O+2FsMVmG4DH2zxic++Qk88dUn9JDWGwziCaqsjgjTO5idvzOYVJQ4kE1vFbdZ09qP6EHccDZbzCcjnJ3ewWhwhrBaRqfbRqt7hFJAqDExfXUiBtyctKk4bXYS/xYzDO/dxPzWkxjf/Co2qzlK5VR9QVYP1ShGSEKTqipqHHCEsYYVteeDGNXmIZIGrWIT1KoNlKOqxgPpFMcWg1jacqZz3AX1Is0FjknBfD7Ccj7BKqc+A9X2nHud18vnOTutAG6+lZKNUQZBjCMaK7lRLKNkbFSx+GCyWtMkiNMe5qLHSpdTFelsgcGwh5q0IzgqF4lVH9ViZMtcPd+oWZe3szG1fRLg+sw+8BaEPiYuu8C7nxw4MKBADTRWVlSoXOP7y1nfWv92HnA/2cAJEO/fsO8Cuf8ZvsrzY5c7RMSF+yJp2L3Ltz88UW9/FJAol/kE2Ou54dvUhrOS9tbHYi8CX/7C47hz64YIaEr4Nhu0OwfiHlBqmRV/JaJcOEWHqgpyDHqmymffYdoCvH+eK+7lJ0Y8H2CHFnjI3sXWveX2EyGWpK7FeRFysMdxMH7GTkiJx01hIt0Rexer8NOQbDKfz61cG89ObmMxHzrPE157E1oyu+09Up+4wtbGIXI2Xy6UFNw7PUWv1xfHoEhaJBHNZ8iOgVLlzUas0eY0y3F2coLx6AyVcI3DbhOHnS5qSQNxI0Gr2UAlJD/B2gfOdczkj+W/YhgC+UTUVknqTcc94v+VzWG2uLa2mF4JdTYZoN+7h9FgYM6qfCak4chng2jDCpvczJpoPJdtSlimK9yJHsFfHv17SLlfBVv8+n/0Crz+sACMnsPf/XaejfPXnK+Aou6LOUFQ1SnVNrYEtvjgB9+Hz3320xIBIj+AhjWs8hlEWVlQaIjQX5VCPYlJJ5tjIsWCnK+8igtxh/Wg5osFBid30OvdFcmJyUH34ALCuK22gt9drT1gFR/tkCU7PBpidOsbmN/5OrLBLWzXM5QCZyyzpWxzBaEqjgRhrYlqvaNflaiFMG6hmrRQjhIEDLLlmvOQF+ZvM9REGfS7sbmZGHAKIVtMlNTMRn1MxmdIlzMrVdnr9Br8rnJXokLNF5dsBHEbDz38GJrtQ0clA1bkRJCwKS6FM09yo6ASdVFg2WBDa+wsxXA01AbLHqglY9bzJmpAwletYQgIRaaKQPCAdLLlDI5Q5m1odb2dO50LHp7ZbdUj18WL61Dv4fnFXr4lrWa/L+6i5zdtP+xzIRy3w5CYByWiPargMu8HOAcORyh2nfsQDqexwLYMW1iaJnGBWNjJdoOnn/wabtz4hky52gddXLt6Hd3DQ3EOOA7LHrQIeZVQwXBHDPTZmHeivF8R0icG+3oTO8dJVxm7Yym4Cp5T4CSnmSzxujDQaR7fIxW6hkbG9MkPe/9eBEkbkDtRc7Zk4s1efoYKBb/Wa9y58bSZOZH9V96NFJc4hWQKBAUC5ReXo7xn/T7untxTcmByz3s/jkvC+4QJTatRRy2OkOUZev0zjCZ9RCHQbiTodNpI4roQAPpU8Fm2AO+UG12SRwVUt1rYBk7AiaThoCrJZrUSZcdqi2ntl53SI7lP09kIs8lIqqimwGYJiEyjSCxmq8G1ZShWuVyV8HVcxOcab8AsaONCEuK/+9vX8Nar59LJ5+H9e7MCL9oEQZtI4YSywTt+95/jEx/+kJGfOLoV11BLmuq3xs5HgZLJhLVbza4SCFbvcbOth1SCQWTTuwpUMiKbDab9E9y79Qxm8xGazToOL1xC0jxEmVWCKncHgjtDHSYIqzTDZNhH75mvYvDMEwjmfQTluQyiSBTalmJs+Z1k9ncP0Dm8gkbnAiIeV9JEUIk1rUCEwOxpiQ54V0lznhN/gIQsbq5rqiXOsZwPMeqdYHB6gmHvBKt8olErWkdTkkma6l40hURNTSbwlOlRH6Bx4TJe/RNvQjmIbdPm/uPkbYk8GLmRu2dm2hBKDiTvImSB5ETCn9Q9qEZmfBVWYpESuYmOJzNJVlebDSUMcqTzVs4P3K9GanOiSI4h7ydC9oOnHwksOAfO8c+klp+3afCcJ2M/YSggbdul3Watvzz/E+V5Bu6gdoQyz6l4bjVejDE6Aapv+tkuSTKofyPiHO/7nUmPwe3lVW7eHC5BoYIi4weTA1aTJOiSAMsEgVXtjsRnBy10RkmeBWtvklXoTMjoyFpw+4JWfurHExDNkXRnuGRVPB0RKzbit8e0t3U2PodHX7xKIlEK0wZwQbIQUDKb5RJyVLcljPonmM8nJk7EmeTih88Fx4XtZ//68rPv9fq4ffs2+n0mBztNhCIZcsQ/JgftRhP1eiLSbn90ivG4j7BSwnG3rXFGJmTiInFawE9EqFVYMa4KH1Mlrm5Swa2haVuQaGz+CPKE4Ht43K7daclRCavVQh4qRlw0lVMRhzcl07lY05ArVXGAdQlb2tlnGf5ycxEfDV+LdBthsynjN/7+I/ipixXxoeRWe/5zvgIvcAVelAmCJy5ZbN7i3e/8Q3zgPe/StAEfKLKjRVQLKxoZiuKa4G2OPyXNJhrNjrQM6uz/NQ8koVxmL5/a/axyAjNiGg96Sg6m/Xtothu4eOkS6t2LCKsNubdZQ8I2WcGRHIfKMoxHA/RuPY2zJz+P9eAUUWVj41chCYUJwuYFNA6voHVwGc3DI3EluMmUiEhIJdGMY2yDM2ETG32k+iLnoQNNKlDlMJ1NMR330B/cw3h4D/PJGNssRa0SohEnaMZtVKtNk791mzI3csKcHooM4xi142NceekrxDXw1tMrGgFpTW3MqoDNXXJg6nnsexq8OZuNMRr0UCFJS5MTIcKgKrIUSV2lSohWu6u1RrjX936em9Rf4x10bxX5PqrgSW68DkJAHHogLgI33r0gv+vWP/fL7k8Q7P99hW6pQVGuP+fNBmTsJjA8B6Eg1+0lEP54BHWL9+ZsqO1LHvix8lvENgn82Ay+f6+9xYyvJPwjRN3uDRPFMUKlkgMhaCQh2nSEiQvZ11lQ3BFDLcEx1UJ+hhAKlxzsbLMduVCXf2dvbaC+T4joTOjlrq0fv39Ni9kFp1TqxZDu5zY4l0K3MkqL5eOQobzOJRildpNcOk0wa/fM2J+E6rkWBkc5B4Mhbt25q9/t3rZCvCABamxha/yNRhPNeh3LfImzIUmMTA62aDXrOGh3Ecvy2hEOhc65e9olNEqmqNDotBbIg2KyZOqQRLysvSd3WVlME2ExgqF4IW5M1J47p/5qLEwl1oUWBe8RjWFS/XSDNFvhy/MG/iS7jjHqOG6E+B9+7lG8+YKROHfr9AKjw/nbf+RX4EWZIBRXZbvFP//Nf4Y//7M/NZjbcdBk/iM3O7L4KRBEY6AAlVqERqOBOEmkhNhuH6DbPUY1bqJMxIFQPm2dEWAwOMXJnWfQO7uNTqOOi1evoXNwCWHSwnZPi4BjZ1YL2ARDNifn4BZ6N57C4Naz2FBeOKqg3m6hc3wVzQvXkLQvC4Wo1Dj9UGGsNJYz60EG3UKtZAclewo2t70sm2OxmGI6PMPZvWcxGNzFcjkRqZKB+aB+hOP2JTTrHakmeta07Q5Wsa22uSEIcYT65QvYRhHWmh4z9TY/186kxFPA1dJRtelIYFxz52XBY+qdnRatBU1PlK2qoqkUhXjqzQ6qtTpKnFOveJW+56/MFbQKpUSTwTZCpSc07nrKHPmzyQWb2NjZ5e4i/V/VVviWLQcfoPazBn8TOpRDkwt7uhdFMCxGNm1fl6Oey0BModJbHz+411jSoQBOxcwHzImUmGnM1KlJanyROhk7Ix+OwpZLNhpriomOlOsmB2zawvr1Np5p/et92+UHkwKbrNmfcPDPnc3RW4K0NqtkjhE6mePdqKSXajZPAq8t4Edqd8mZc7KUA6Ml4BylpQFTrRqgd+cOlunc7NWfZ5u+767abrFMU/QGQ9y9cxf9/kC8DJs08kmSI79quobkzhaaSQPpyicHPZS2K7URWq0W6O7AhC2TuZnxFQxdseP1LRwjzvL+NG0OEaQ16mhGSqWISo+WXJRLoRlrsf0nVMEGZwrxr4rd25b47FoRBXdFQmdlfHZSwwdnD2G6jRCsV/gnf+/H8KYr3BXP5ZN/5CP693gBXrQJAjei973zD/H+97zLxEdcJWDStFIKLio/Jekh0YEy4riGpF5HXK+j0zpA0mqj1mwJVaBTITe28bCPwckt3Lt3C61GDdcefinaR1cQt440akj0QNMCmnSwionVOUfQlpMRFuz9904x7vVRq1ZxdHSE5tEFJGwjJB0EEfuUZvBSjGA521zrKbvA5gtXBUVqFKSYT4YY9m/j7PQGRoN7SNOpKr1qJUYrOcSF7hVc7F5BMzlQpUikgT1qG2mkKZONfq0qJZRbCcrNJpaFHLTVdT4B2BRTD5YjUChKmg6esc+gJZW7DIP+PXk+kMltvAY3Zx7GmM9TiSQljRaCiC0HkhP9zwMJgigO+8mBQy78v7mevw+2/B4mCAZhO7c6B+N6i+YXmhx4suJzQvh+G8S1AczP4360Yx/JUHfazenvTy3c/x02364kQ3wGG3ezatfZ9GryxP5N/IUd0wAAIABJREFU6+WzY8Vvwvq8Bgw+nIQxJ79dTuOmQpwcOdECJSCkQu61IIzrsNM08H/eTZE4R0JPpHRJDLkGliDuZIt9cldAF0IOdomoT4Ceg1bw/JjIEj3Z5GqUUbis3z/BpsS5f48a7BADHl9xV223Gt09Pevj1q07GAxGao/Z8TiNBUL1esbWCCsB2i0iBw2JfvWGJxhP+hwURIOoI03axDFKschSjRo62ZH7Eiu1SPyoLbVVKJLGZNmsH6wwcBogSg6o28FEjuglZdHdZAl1WgwdM3RTS2oZiCUlbp1duoCv5Qd41/ASJtsGDpIK/tEvP4w3HvGhKqnj8e013b7HUeT84/7GrsCLLkHQRrjZ4o/e/jv41Mc+rJE5qh4y6HEKYUWZ5U0Zm3WZasGGLARbbAKr9DV2F0UuUYiEJDSabdQbJDMGSGcTDE7uYjYboV6v4xKRg8vX0OxeRE3cg8SqDvUUbGJA8D0DA1XXOL+8mKqy5tPMwBjRIrlWVy+eXABLDKwO8BNYuztIUny+PlBAzrM5ptMBBmd3cHr3aYyGd7DKForabFtEYQMHncs47lzFUfMC4qip/q0FDjFNDXxlr5a7UyPCNomQVUhAdOQp9URdwBFC4LUcHCNcm7kFqrKqVho6mXrifDrUhk1voIg6B1Koo5V0gsFwila7o3HJSo2tBWN47+3s9z08viL2RDVDDnyVvOvne4heiYiqM87Ve/TAieWIkOlhpQcTEccd+TYe3W+2qdoldDwJlywoOXhg1NHzVJSyegndwtLZEob9rdu7/HluwI7K55NRe7mhLDu3D12b0tolIFa9m1uha4Z5tMMlH17C2KBq1yrbS7J2nZX79Q0KFGePoOntxZkceL6Bb8H5aYZ9TxIhB2sSKHlfGX9AibbTMRDSUhhJUfOAYly5SLajfg9ZPnPGSDZGaAXCnhiTDn6DxWKJ4XCMmzdvod8fGnnU3RO6s5xdOf+Jx06eURxXRfwbTgZSSGWB0W4mSDiWm2dYzOaatCBZkFM7agm6doYvS4o2UqHLwISB3AT1llwbIZAUsyUT5CBY4uzNovjv4g850zHxTMQZ8jof1kpT8leO8MTmGj6aXcF4GyOpBvjffvE63koRpPOs4Nt4ys9f8t2swIsuQWDf8L3v+n185E/eI9avAbbGVOaM/mYTIM8D5KsStiR10XK5ZH6OdDWjQBA3ArKQk0bVhE9ijuFV9PDnHAnMlhL26V44xuHlh9A6voxG+5IQBGkmEALk5xaz0pbWV1ZAQERepL+SeAXiNLjtV3vDns27wa77SnJ7fUVsJc40I7/g9DZO7j2tBGGVzzSqJDJmNUZc6+CgcxXHnSs4bBwjCkkwpLbAHonTARKbWoBSo4ZtLcQSa8ht0sHFShNUsVp1ZYN1RmBjguF7tPyzkiGhCeRcpOoFr9YLJAnJnrbZhdUY01km1IDJF/++daOZ4lG4ytT2ao8n2Pfsux56DoIntXnRoSJBkDgSA6Hr3SrAWRLmbZ6fFwHYn5r4bp6MXTletD58m0G/F8kDbwhL0DQbQ06AI9/xJYWj394xFMiBQyLE/Kc+xf6NpMtlLQKOtIm8aIWlqeax1taa3D81YAJHllh4pMOkfN2T5HkR4jPsRRanPVFcL3fd+Dms0Hl28vVw4lQ6fRmi2KSRSf26pIxjeESeVna/+2TQ543mN+C/m+gc0QMedy6CHceNZV1ejEG61tN+s2GzBYWj+r0Rbt6+jeFgqBagi+SFDLbE0DZbtSCbzYYmFtabFJPpELP5AhQdarcbqCc1bDImB1NkWa5zpjETdQ6k1uhGUHWfasTRkmklL0p8fJJGkqlX+Ny1l8ywzCaninFrTwx1/2cfbc+XF2QyLbUEtyuP4lPRqzBGFe2ogn/yqy/DG45eyI19/t7zFfjWK/CiShD4oL37938XH/3w+y2Q6Ymxk6B06WodKjnI8jJWZPOK1W19TqsaWF1RF72EehWoJ2XUayVUFd+5kRGyJLGrjFrcwMHFy6gfXUT7+DKanauIaO1MdTKRj0jms75eAKdjQGjbkbGs+nHaBE4WlpvRblO7f/GtTUKmOiWKLTHond3A6d1nMRudydtA6nHsV7K/G8VqVxy2ruC4exWHjUNE1GRwfeB9KpIYz80IPOlVUELKDdpv1l4gUBWppu3dTLXb2FygUwCy0tHN4tt6jfoDjAcDVCNKvNpcPU2ACG1PZkscHh1LKInjmtR44Ma2S4v2o6KdvyYjCiEkb9K079FgtZrBss7oyalgEkXwcsGWgFhF+mAJ9e1yDr7142FB2o7X+vgK7qpmNUewS/+27nj9NIpLDgor6v17eU9K2h9DMczqgqJ9jwv0zhCMX2y8hr2RXS2Xt15mUmfeBmoVKYniZIKNgyrp2msp7HIgj7ZYhS7iH6W5ncsi3xOKxW+Bz+B7335w+IeHzRwhkOieCJjOWdHnTN4zwH83kwNpLm/X8jrondzFar287zkqUCL3Jn7ucs7kYIjbt2+Je+CTogI92Ds+TisQOag36lRFw3g6kDdFkkRo1+uoVSPJj6eLhSVNPNitSRfzuaXDJpMPCpGx9UBkxH43/wbqj1CszJJsU1ct1skds9IHqpvqsy3JsHvXjUuS6FgQRg1JUL+lXMNZ67X4cvN1mAQJjpIQv/Z3HsLfukb5ZH+lvp07+fw15yvwna/AiyZB4EP4jt/5LXz8w++zKszJyLEjy/0jXwdYZmWk+VZuh5stjYj4SNHAxrGtpcKWo8nkINqiVS/JKGlbyqSjYONjFAsKUW800Tg4RP3oEpqHl9FqHSLktEHCiQciDjWNUoXlqkiN1eexQdv3ct8NkdlF4HZMqJ6jgYTqKcCzXE4xImJwdhN3bj+F6egMURmIo0Tjmtk6Q7aeU3AecdJGt3MNV44eRifuIAmox2/+CCRNWYJQxjpYo3rYRl4tY0HUwHE1hATsVVxW9VLrwDayAu0ohKg0HO7IgqZvTwXF09t35NwYJ5YYGKy9xd1b9/DIy34MUa2BMK6jRF8ER1j7Zrchkz75GLi5f0vs7NppHM2PHfLMnFKiH/kz4SkLwup9Fxvs87QW9siGvrorpiMePDi3WT/fMXsWOT/D+tq7Fshu4sLge7UWCA07kpnuAVaM5BS4f+Nh7T7H0AF/HZQE+3TDJT0WXP35mZqkY0BaDFNv/f4RSUsMNCOnU/Ky1Nb+eDBhcwY+Drko3uumH5jM8vsoJMTRYgPUeA9xHp9V/842WwiP2kCWrEgMiYmN80nTNzuxLzNC98iCMgpUS8ByNsZiMZE/gcizz/Ojkd9lil5/iJvP3sBgNNbzcP+kin0m73cmNc1GC612G+v1AqPJiRQn41qktkIcVW1CgOqf1VDPfgls34SIQ7OSztYpcoqE5Uy8mBS4hGydywKaBOJNSjVTmzySCbbkkXdIE9UdOV3J59cXET7RNAKj856QwqpziAUw6LwRn7v0VmwR65q+7T991Tly8J3HufN3fJcr8KJIEMgvePcfvB0fev+7Zb9sTF4Nt8koiYjBIi0hzcrImRwoONBbwSpuZ12ESmmLJNyimaxQr60VfEkTJsQaOIMcVcBhJJGiuNlFVG+h3mqg3uqg3uoioZhRQkGUBoJyDUHJzJMeLFR9gOCX+2pBryFkTwldjgpmVCJMZY88mpzhtHcb905uYTEdoFZh+6OFw84hwloD08UQvekJsm2KZquLw+51XOxeRbvaQlSOhWOoipVV9UYW0KW4ik0zwoqCT0QICjDfCJamSOjJcI7F7io6JTCKMipBjSTnXrveZFJsG/X7GI+HCIONxkh9WTObztE+Pkaj0UEY1WXvLH0JJ4zkofKitSBghcft2hw+QdiTL7YAYmvJBMAcKO0YPTufgbaYnXfCSRbbXDX7wEOwG6m7n939IMJQBM6CzuDdDncS0P49tp4MYPsVtHEuOOduM+/OI0IGYXuGRhpdc0JQOlbXeilIuIa96H5yglHF2KPr2ZtkFnM5TwBkZes1/X3AZkvBVAZNmnhH6C2mL3wV63v7e2unBEAjl5T6N56Dpl7kQ7JCTo+AFVtThlBQIIv3B19nyRSnJUy+WvwYiQf6YdI97owTHuOkUIANBv0zbOEM1L5JckBrcSIHd9woY/5AciCTNndtiHpwqqnRqCtgT6Y9TS3UazW0m3UzOmICt7X7m+PI4vxUY0meE2lcZt7YbGXqqwbYaD0oNU4u02I6QrZY6rUbaaHw6TISqd0LbInaSDGly20zMdEzyT/vTQ/ZM84nuYpe+9V48vLPIA0aOG5V8Wt/+xp++tx46bsMdedv+25W4AeeIHBD+Rf/3z/Fxz/yxxIa8pusIE4AaR5hvqAvuyUKeoBKVCozFbKgxPSihLC0RVxdo50AjZjJgRG6tiQAOe0EStC2uhdQbx9JyCjNNsi2C8S1QHrp7c4hWq1jJQq1ahNB2JBqo2BRR1Ty27pn+1eYPDgp/xI3xiyXODrFlKY0b5r2cdq/g9Ozm1hkI6ESh51LuHzhGrqtI2kIjCcD3Dh5Cv3FiUiVF44fxXH3Cjq1lhAMVVxrk4XmpEHObaibII+YLAEb+cDvCIu7HrfbbCjutF4WQY37UzVgleQqUCY0hIPZmuAo3DrHYjzD6dkdlNYbRNRwCA0aZbUW1uo4PLxo2hIkZhJVCM1fokgOXF/WAtLOzpd/5/iY1tH12N1fdG3NeMqNkvl5cc2UOw6Cw6p9b79IEJwV7q6zvSMveob/87UefHJXxOq94/bXWiiEI8ixT66A7BMvb7olToAFZbO39i6a9lh6Joof7bTzd8RBj0y4J3gfJtfkhhvxVKtDGgb2i9WsJIOVPNiIpSUY9kHFNMXezmAjroYU+R8b37O/EeHgOKR64e6DmBQQEVjlrKKZICyRZysheNVahKiWKLjyftIYpLQJqIRoctJi16tEZtJq9xyvsBwRZce+QZYuMZtMsS2lhjw8J9nbYDabY9gf49atWxgM+shJstnjmlhLhi6Ra6EBDWqi1BtCK6aTEfL1ArVqiG6rLgSB4Z5y1Jx8ivmshTWEcl5NhIYR+eP4JO9XjpRShp1oCtsJs/kYsxkVTcc69vF4JLEjXq+wSt2TBKGIvDV7RjUNZJoXEj5a5zrOnLbrbGEIgVgZWrHe4m7tlfj88VuRl8hx2uI3/8Fj+KkLvM6OkPzd7Pbn7zlfge9wBX5gCYKx7w05+MB7/khByax8jYC23gZI8wDTZRWZSImOx1U20hAV14QgBPR7L6NR26JTz9GobVBhcsB+PhnwRBpojdo6wrWHfgyd4yvyOkgXKcYcKZycyWsgoYriwRGa7S6a7WPU613xAJSwgL1IqxJ9DOQUA03ntutcymYlMv6ZIOQrpIsphqMeznp3cNa/g9HUxIXarSMcH17Fhe5FNBttVRb94Qg37z6Fs+ENVJo1HF66goPuJTSrHcRBgpAIBq2mN0yYcqT80oMG8jJHPb0ssXlFWAwznQUNYaw5Opk5wqG1Fay3vyte+W+c2CjIgqwesxSjXk+yr9QzCCjXKO6DGdFcuHIVtbgjx0mzmHZcDP+xLvAxwBho4GbS3e8y2F2zkmSl7HvaJhIUeE390Ea/Cs6B5vwd6WtvSsIjOQw2PEHdV44EZ9W7JQpmXW1RUFW5qjQz//G1rd96PdLheQdsYhE1sI8yJEefpKW2tVai4Rnt+66HNARTq8HeoL48A6Dj2HAOfhcPuSYGr0ukT20WIliEuo2lwIqT1buSLN8ektWIXQdDXRh0mTwaIsH36ZIomFqLxyc9xYy97MCd1LPAG0u9qNiXp0tB53lKRb+8mJoJoggRJcOZQLpT3J9k8FJgturWa1j71gefHxUEJU3G9HunklguUBWtua0Z21LpIsNwMFJy0OsPxAkokhwSJR2hmAGYHiwNKSSSc7BVIM9X1Cspo8MphiRRIsokgZLsNRqkufYZza5kF08JEO45TA4qZbPLplDpOkOazZEtl5hTq2Q2wXgwlPV5VOV6JLJ1JsepShdWSYnQ4GyNlROoyvOlGym24WReN7VlaDefpvhafgF/UXsdFkEXF9tb/E8/9yjedEl37ne4vZ+//HwFXtgK/EASBEMfN/jt3/x/8MmPfQibFc2NjOCmCYEtuQYB5mmI5Yp+7qyQrYeqKkXOZkY2JCGxEQPtJEc9WoOFLv3Y+TlVfl4lQuPwKq498kocX3wESb0Lzh4v0hmGo74EkxazAVDZonPQxSE5Ca1jJI0DMfMDZfAGbatVwUCZ5WqFIGfENHMZ7iYkLg1GJ/p1cnITw/GZqrFO9wgXHSrAtkItqkrz4Kx/iht3n8K94Q0EcVWkydbBERq1FqpBguomJAsClVIF6+0alW4DizhQJcKAEUahbGO5DmYbq/rRzJEkeGTwpY1EWkDZBQRjoSsMMCFzAjhMKvIFYdxTVV6V0Gxs84xVawnHlx9ClQY0Sp4o3GMCRia+Yz1vXyHy+9S55+fTttZVS6qyy7TUXegYQ18he2IlkzpKKTtYnQhFQZBzbHL2xPmFDJhUXOZf1wI5lAYZC0TtCQHyIrn6DKJoS/lEYw9u9zOqfDWP1whn1u/n++V2KaMsIi0bqegxoIgu5jyHrTY3YiADkb2XCa6Z77ByxDq1pFO9aVb0FijX61xBuRJRqZJJEsfYzC7bixyRkEe/AYmFManyjo1FAkikbeMmWHZtEpqaSTabwdXB/j6Bk5DRhkqeGo7Q/cTKOOO47XYrYi3hfCYeNRIW2VYKqqjU6s4pdaeJ4JMwmaEV6AawrXA0eSX3VHY+lHqHFcynYywX04Izo8TArSXRDqp0jgY2ytjr9QTX7xMXdW87fwwiBxQ7MuRgi+l8hDxfIK5W0G035B9ChIdIANGDaiVBGMaoRvRMMOSHfCGnhWnCXM7zgxLQNEjLsqU0UZh4DPt9LBcLqbbSAbaW1GXQFFYimyIiIrPi/cIjXhu50SkiEgG1xI+gY6qE4/PLi/hw9igyGroFG/zmr74Eb7rCIsGIjec/5yvw17kCf+0JgrbrVY73/NE78CfvfY/+bDry9lByA2YrYZ5WkK7KyNfsa1p1JghbkKRVRpxOSGIiByskVVYknFm2IChIMKojah7h8rWX4fKVl+Hg4IqgdcZzVtbD/imGgxNMJyfqHcathk00HFxCk1MDIS1aqYzGNsIaJUKsy6USBG50TBBMkTDHfDZAb3gXZ8PbGEx6gmTrtQYuHl/H8fFDaLeOJUvMVGexGOFe7zZOzp7GcN7DNtgiSmJ0Di8gYXJAkuSWyUGMsFJH1GigftzBsmTcA6q10XluuZwXsq7pMtOmyXXkSq7TVEGZZlVMbKh06JXghBq4ETsb39ooASGMHmw2MoKazEYWKFT186grqCdtVGhLXYttDItjnhWfEFBq2mx+FTCd+ZOoYmt63HOufSMlyIrKTTO8sj43g6Bj2QfmeMcNlYGQ1VWNWvg6FksMOW7HhIHv577JY2HlndLVcGskRh6XjR96ASK3uTqWuVl32zp4giTf49sbVsmyN85r7wM8+8tMHNZYzBeOMGmIDFEs2mB79r+NqVWVQHFsTmJFEkPayj+DSR3XajydiB8ThZHaWVmWSjI8F2mTEyHm/qf0hEz3SoDFfK7zpyYIvyepJzTadEjJRqZDVm+yMjUpba1ZuWyOnezbO8SDC8hxQd7DPF+O/fH6sSJmMLNxSXPxZCXdoAFahetdQc48h22+arVAbnakSCbw5mVSJCGSKk/VPOSxaA02wGB4xidy71rZ881rs0wXGPRGuH3rjhQSeR8bCuKQJ01tGKrBRKnTbhfJwWIxxzKjuFcZB21W9TUX+Nmi5LEZGZprqRtMEBSTNi8ERhto6hdQFMqUD/kaJgiz6RjD4VDJHJODVqctIbYqHTU5CbUlsdpkyk0wyrhDSuGVgPD686bmdBZFmTI8PmrhX48vYl6q4rge4H//uy/FTxz6CROPc/11hofz7/pRX4G/9gSBu8Xvve238cmPfVijfYYKWFtB4kcbSxDSdYBsw3FGqwqVaTsMWOGqvEWjtkYrJjGRBidkTFu1KqtnegTELbS7F3Fw+DCODq6g0z5CrRYLhUjnC4wHZ+j3bmM66WNbAaJuA50rV9HuXkIj6SAs1VDOgfUyx2aZYrtcYsUEgZLLJBixmlhlmM4nmExPMJz2sMhm2lRb9SNcPn4YB+3L6tHyuBbpGLPFCP3xCXqju8jXc20a5YhtEgrQRAZl0iGxXEejeRGPvfq1CFsNqeUZNO0IZxSNylc6F5r8LJapNm4G9YAe9YJdfZ/bRAMMPbD+PmfrF/Ol1br6jCWSMMR0MsXp6T1NLTDJ4abHXi8FbzrdYyklctPkRsj3kZilGXn1dCsoUfmNglRLc6SjsBSvVxja6Fa2zNCo1zEaDrWxMjiT3EjjISEQlYpVXBsGNavySDZjMsAgmySJKng/806pZ27AZgTE6pfJJsmtVA90NtWgSY4bQdX9YdoKmfq+WwVxoRhUuXNTANa6MFKaaUjYBq9ePN0SeY+pIjflPA+jm3SxrTuTGw1CbrcguY7pR1gO9P45vStKJcl/M4gwMSDkzSSPI7z0zDB+hOEhrHjF59Ao/Raz+VxMe75f1s4kkXIdsgXCinkkCGXjFI9Dlsy4yFpNXmQrT1OhUD5J9LwDwt06LxLsstySmIi8lTIifSenicoK65LVVoEbII5jWVIz6TCSrOM6bFaWIDvicIWTShsgXcywkCGTHZv/4TXlcfX6J7h1855TSNx9XjECShGmzUaKplRIVLKELeazGbJ8iVpUQbtFt8aa9fwdf4I9fx4vEQz+kk5EueIkkC154b0nIybnIsrf19tc9wBRA95fSZxIBySKYqEq9CfhXmVk1L3zdy0p/wz6lhFft0wzfPy0ij8eX8S4FKFT3eIf/dIj+OmrkZfY+FGPU+fn/wNagb/WBIEP6Dvf8XZ86H3/ykyJJODiyVLcZCrqTa83FaQindnf98fLWJGG5S2atRLqtRQxZeiJHHC3YTOAhkwS8qmpP9pqXUKzeQnt1iHqnE5Qdb7FerHAsHdH7m3T5RjlZoTG5WO0L15Gp3mMCDWUFmuksyWywQQbJQcZsnyh5CDbLLEK1pgsxpilY2SrmVCJ0jpEPWyZdsHBRZSCKharBcazMyzzMSaLiV5LOyXlPF422JEb6PEeRB1cuPIy/Ftv+LdlxUxRJu7q5CM0a3SeW4osaNXvChnHr7jxb3OEgu8tCE2nU218Sb2hqleiSBoRtL4oP6+W1NTu4CbLYHH33m2gnJlTY1jVWOl4MseVKw+hQhJXtYq4nujzOJ0RhAEajZZQIM2ie8LdeoPJeKhWUq3GzwqV0HDDnc7nMr3qdrtKbliasT8rGJ7seAc9J3WqMlrlzO+KlJTsTSSw3ST4O1W/mBs0N3uS9yh0Y8HJtRYUqFm5l1CNKvp/9oX5b5q+cMkU71EGOSYAeUYUhp9tAjwi4LEnrTaKtQyILFkiZikC/49BRBLR1G3g56xWCEtmh8zznlGNM8/EsI+qoRIEIRNUDQ0rWObEDSxB4KcSWeB5ZxuiQGWMRiMhSPWkjslkop46WwL5cqlkjGvFp6bbaeszRuOxYHnFKCe6pBbKyngVrOYZnJd5puBHyD6uVZWa0ItAlsjNllj7FBtaZkSdQqfSaYkQpyqY6NPHgMkFP8fzU9iAkX6Ie95lbiRkboOzs7t6FnbDHpZQLZYLWTXfuHET49FMyZz/2SUHpggahZYctOp1IWHzxVgJV1QL0Wk1lHgR3ZlNp0gZ3KcLrbV9aVnJKe9BOjYySSTKVa0yeTDVSLZ+PAeBSEBK5Gqz0X1C3oFGb6UNYpLKfoqF52GjuYbK2ISL16QwDRc+t5/u1fAHd7uYliLUwy1+4+8/hjceOvoM1+yce/ADCo/nX/t9TxB8+CdT951vfzv+7I/fh1Vu1ZNCfzFqZ33j9YY9W/ZQWeVURGRj/1h93DJhxDWSiBMLK5ccOFqUDFH2dM2DCJWIngzHSOIDNJImqtT035ZQYaCkYNFijMlyjEWwQu2og85VcgAuoR7UsZqtMDvpY9kbosQAtFwgzedI10tkyJCWc2Rl0gZXqhKp2Z5PV6iVEnSbXbRaXZTDEharOWb5FOl6hnyTGorpTttXE7Y5Ms0J0Di8jsde+5O4cu1hBzNz1CoTm7rT7ihYEeJkmyHjcTFJEBS/ReyqzDmh1XQpWLnZbOnPCryO6Ma2AZMI/mIwZQFIGPz07J42V1algszX7P9u0D440mYo3gG5IqHB5zwW+l5wg2WLw0bjSOiqIk2XyFnZqhXhBI9KZQVLBjUef9KoYz6jIY/BtzLFcUJD1MXnpszKm/LZ/G5uzAX076p+IgsZGfVEXcgwL5wKLTmwu8yxAphkVStKVMjMN3Eds7XmZs3jJ7GNAYEBRRW3E73hnxn0+HnsY5sXgktWeP4k8BENKZdU+bbaLQVXrqvaIpWK1pX8keF4pKPieRFjZ6+/GtJorI2J4H4mGuZUWiA8mr+39hmha7VVVgzeoaEaTNZ4/4cMVhVV1BqHlWaGI2eSS7IiK3+L0XCEdZ7pc+pxTffIcDRSLz6JDMkSvyI0dIfBjkhOynbJlghSDQF7fA6S52PMczQmp6EvfD/XgF4eeqDLxnmh+FgUBOid3bVnQkJQHuTZuOSgh1u3bmM0nCJnIuemLmwqhnwMg+15rVpybk3c6OFEnAMmpUIOoqoRCsdMDlJNC/Ce4Z7ip5N4fkr2hKyYTwKvi+5dqrJyParkSFnyQPKngj5bBHp2ef8aEsGEg7wRz/XxY7uegK0CRu2NAMQ9/2JSx/t7FzAtVXGQlPAPf+4RvPVq1dFlzpOD8xD9g12B73uCwNOj7Oo7fudt+MxH/lQSqvtKbEZUdj05B8NJSliwqPWjNbVALfXKFlG4BoubaoXkO/bkOFoSAAAgAElEQVRCTenOJIC9JzurQm5ydYTVJsJqHRHbGOsNqmuwsy/t92yTYVZaYB2X0b58jKPrL0ESdbCdrTG8e4LJ7bsoz5ciVRE5WG2XSMsrIQcZ90ZWtKz4FinS3hzbZQnNJEGzVUcpCpBuUuSlFdbbFe2TLClyY3o2z28nXNqEyFBF59Kj+Jm/84viYeTrFULaR2+B4XCEw+MjwZoVJ4vMIKu9WMqRgYINq6bpbGpVd4WVvUH4smIm7OlkZ8lToF/FZEg/iljBjW2FMOS6rzEaD9GI66jUGpgvcrS6rEQJuUZotTpa7+lkgosXLyJl1blmkmHujtzHWSEzYWJ/iJs3yX6chOCmOJlMNZeuloFDDWSru11jPJlIOpuBlAkCEQ8uEoORJh60XqZ9weDDoLjIlrI7Zisk05z5TmDHb9KC+0tQ0JCMbm7Ew+KeUZXmZW7LKJFQ5hx6Vpu1Ar7xHbYiwCkZZLDJM63HimuQZ4iTBs7OzrQuTGz4HqYQSRIL4iZvYTSZotPpKClj9ajqU/c6e/prTJZU86uoQiVCwB96BvD7SFaNaWHeaCBNc5QrZY3X8XiTqIZqjRB3SQjCbEaUikiRze+rB742U63BgKN5mYiCfD3H/Pr9PubTGbrttpI+nivbGqeDPg4OaJkeYzKZaTxY4mW8o0XiNILq4WFXLYnReIQyeSDSASijHNHhkLwYpx5I2WOiLNkSgyGJsCb65TsRJK72+me4eeMuhsOJ2hsFclDA9oaeMQFuN209KAA2mQyV8FEhsck1V3Iww3K+0D1OwqB8UNSGsqSTzw8TLCEr5EuULNmnkyRfTxSEiVFUqyo5YPKghGkDJTJGDiYZla0w45yIK+JaXURfTAGUiJJrVxCBKgX40vIQ/3rxUoevpHjbf/ZqvE7IwU474wcbHs6//Ud9Bb5vCYIFfqsm3vfOd+Djf/J+TSsY7MsN2YKJ+Mji7tgmUSm6rjbqKG87bebsq5KYyGrRgW4ao3PVoRuJUwzR2BdNhdhbNCtWQu/VbYhoE3FoUfD+EimycIWg3cDF6w/h4OIVlNchFvf6OHnyaaRnZxpd3JbXWBEtCIE8pDEUECaEoWOsFjlGZ0NsFiuE5RIarRjlqIJVmciCbTo7C2BX0zpdfDHYtwFqjWP8+E+8GVeuv0QbPzfierOpiphBkypw6n+SHJktZVBjFrHWn+cCMnmgjSxHvLiJ+fVnUOb6ap57tVLFxeC3XCzlUcHPnM7GYmcTul7OZmh220jiBmbLlYyYgjBELUo0dkdSFq/F0dGxYPpFSlSEPQtohpz69txwCal3GonJxZaswmaVxYSF6AKPfzqboUE4P2ALIRMcH0U1BVR+tlnocpKFXAuek7Hs2ccXcsAAHIYaszNjInIOXFPBrbHuD060VMs6/yxjUDbjHgZmCU+pMncyw86GWlMJhPUzg925puw3kwzHxEBSOAETDvbvIU4GeQFMIBjk+B6dSxwJqSHBjgkA2yr8fsL1SjqIZoGtnrrOU9wGVe+891lNc3qAglsrXQN+D1EYJlFsIbE9weRAFXwUKsAxEZG5kqaFTD6bVTyDIeF6Bl2NUzJ5oDQ32wqrNbqtNuKEXh9GxJQ5mtorTLxDlMMIpZASv158y0ZPmWDwvlrMZwpufiSYeiUVciD8aCnRgy1JtmVND7HS5zW1MVS7RzilQFdGeiusSALe00Qo0IPN2tAxkneTGijsRUVDagsktHxPGPxDrInqZCSO2o8mEqo1hJVYkwscuRRhU2RVL6W8VFJBjpKuc8DpEhIzabRkxMlM95FxYpgceL6BlCK1txiHQXtW4HgMnDQpk+vCcckQz0QP4ePbl2O2TXChVcL/+HOP4KevVK3VdZ4f/KjH5RfN+X9PEwTf8S1+36zxe7/1T/HFT33EhFMcWUp65M6Ayf5oI1IeaBcp0axpjOlLqrNTRGTXTuxnZ0Rk2vT+3SZxzD67wGVm7CTubQJUmBhwLEswu00epKUVKo0E9W4Xl65fR7N7iFlvjNtPPImzp54F5ikqtTLK9QCbasnGtJik1GIpLm7yLabDEabjKUiar9Wq2FasCtFkG3uQe4qAgtIdG327Jc+ijFe8/i145KU/hnq9ZYgI1tpgGPD6ozEa7ab86xlIJuOxKh0GNlUzDuKeTicKltxkOQGRNBoKQKzuec7auLYb9arJvxj2z3B4fEGIAw2sOLVw6+azWOe5AsSBkIGNXCrrGmmsYTqboxqSZZ/j+MIxev2+kjv+kIFPx8zhiJr4DObQcbB64qZfTxJVugyYku/lNkoWvrMeTmdzVa7q+ZbK6PXOzJY4YsUWoN2x1gp7yNroK1ZhU56av4gaaHzO30UOqfEgDXvRS/JHUguINbr5UbCGxFOJIBlSIRMd94u9Z0LSbNcwwWM1z+vKNeIXhUwIFnNs87VaDkR5jrqHItwRrmZAIaGSsDOTA5JIjw67rq1jxksiMa43mC2Wao1Uk1j8DgYhrhtJpyJTKhhZz5utAX4uo95sOrM2SgmIREwMRA606QzjnCgB4X1eqUpzgxMQ8g3YZmgm1sZJl2xHcQyQyWAFo/EE24BTK3WkS0u8gloF1aguFVMmLpoootAQyXxs7bC95LRHiIClGXVKjMDpcnatM83OOHLRG5xgs0n1WbwGTKioc/DMMzfR74+cpLG/ovYZ3tuByIYIiUwk1+R0DLQ+TA6SKDSHy80aRKY0vcGgTGIqJwzCRCqpRC1NCrkkLROZQ62WGI96mE8nEj1iEkUUj3wQJkxMJuS7sFkjCKrOPM5aHeQ+8FrwntY9pfV3fhpSV6SoW4BaUMPd1svx5803SS6e4uhv+08ew09eoCDbiyYunB/I+QrYc7staMbf2xXhBv6Bd70dH/3Au1WF38ezcQmB1A00wmXa+r45r+BeyBsTQeADxkrLzZx7vXkp1znTHtdv9jayxkq2HjTVCwN6N8hj3WSFWd2vaYrUbOLiQ9dwdHwZebrGvadv4akvfBGTk1O06jHqBwmCmHoKATbs71arSg4IA7NqzwQlLwXXskIrHnI3mqakwP2jBR8K2EToXriGC9dfieuPvkIiUfxhMBGLf7PBZDpFGNPNMVY1w02IScF0NDSfBxk6RdrwRUpz44VkVBMtUNXrqhZ9NoMNgPl0ipjW1wzQ6RL903vond5DFFIJEKi324I/Cb/KwlojiCWDu7ewCtPN7kswyKFATCAYpBnQNGlA4JSJTm6cA0HzUv2Dif24fjoDGqvKVrOp67OczdVeqMaJ1lPKjUIPDEXSBMBiocQhirhJA3m2p8XvesLWymGiQgXOHFlqhLY4iQS5UwvDrouRIr1zhdc4IMpBpMZQDbZ6NuJL8HdC8F7/nwRCjtMR5mYbgLAzEQNW1KzyF8uljpsQPSt5ogyE2M0FlBM7K8wykj1N0Y8BjcgAkwLyAZho8PxIhuM68rqRJ8F7j9ddiErVOAdMFFXVSrHP5JJJnOXnjsdTHRvvNZ43kQ2O/PJ8eexMENi6yRg0KxXN8bN9wPaKKLAihJqSKZM3XlseB5NA3oP8Hk3RVJjU0SeFTAMLkPyRpDEJngDOevew2qSFYyMRkbNTIgd31erwLpD7O5JPDoiYtYgckCjLCSISElcpYq43z4FVe7ks18Zmq6V1k0+EkJmayIRb1xbh55ueAsc4l8jnIyyojriYu4kKth9WaseYI6UVH0FALYXQ9EEolCYBLDPJkoMmCcEcueXf2V6kvLnjVp3Ej+LfdP8d5OU6jtoB/tdfeBQ/eXHf3fJ7uw+ff9r5CryQFfieJghFBbfe4Hd/+zfwxU9/VMmB4x+pAhOpxwdMpSjmnGb/ZgJHO4KPH83biljGoMdNiBUL4XTr7TllPEnbmpaCEgNp0Jsboye+Cc4UhKwdC5WogfaFC7hw7WFpHZzeuYu/fPzzuPX1b6BbT9C90EXUpMwwBYHIcuZYGbUJIoMZSf7LM9MQcOel5kdRNt2fHKAcYlOOceXhV+GVr3szKhwZ1PiiJQj+vFn5B9VI50fDJFWChGBnCxE8GYTDmiUH1j8lgSzURq/kgNAojZMKxj/7tRVV50yW5ukci+kUy/kYw8EAdbYaNivEzSZ4jKy4qAIX1RtCD1hBsj/N5KPebKjXz+9Tb5eIgARhtqhVYxrgqX/L4EgC3aA/0AZKdjvXiBUYqz2NSJJ1zxG1Wg31OMF4MnZs7wqSFkVtYiV0JGOSROedERlMGWD5vSTnazrDJS2+XmWgIKdCtr0Z4WVrLQjVkYdQSURMwr6qDkVWtJYY/8wKnj+1hJMUNnFj0wacMkh1TEkcSzCHx0lkRFMBHGWsGnrAa8P/42sEtYs/QqJtgMVsLrIhK84gChXEvZeBnQMDDoMMNF44nc51PxCtIHLAoMrHqSrkwJlCSSTLYHMma4TemZT1ewNpZvDGZ7LTrNeRMqlJ6uqbM7E47HQwzzIEEe2Q16gGkSn/UVpaHgsktNoUBJ8zJnS8p8gp4edKIpsjfqzW6Rzi+DW+pUgbZ/JnmODOlmNNLmjET5bNA9y+zeSAxkvWGrlv5FEtEruHyTlga4ztBPogUBo8FoHQJhKioIyDbgftbhdxnMi+XZA/E13HdeK5aITU6akw6Vvlc+SLqZ5n6XYsF2qBsf2iBK9CNIL3tOkcEG1S207eJhQRM7Kr8BWH5hFNM/VE6j8AXwuu4/ONNyLlM1bO8ev/4Svx5svnyMELCWDn7/3+rsD3LEHYjbet8f53/i4+9oF37smm2oy0/7lvbMdVfMZk9+ZBLlg6yI3ZODdFPtQkuHGDNUK+IyY6pECogeMriH/gZG7Vu5TNsQBNa0MEFbQ6R+hevISExK3TM3ztS0/gqa98RXDtpauXkbQTBBErawNUbeyJlYMFOvZwjXDpjtcRJRXshYKYUp46k6UqguYFvPHNP4t69zI2m7Lsk7cbMryNxU0ZW/aY+VfCk4JuyRdIF1jO50puNIceRVYpst3iRrPkcKiNdWf9u8yWCr4iixGRkScDqxuyuDn2Nda6Mnhwtr0acpY7lKZBvdFRBT8fT6y6rddRiWrSPWAflRsmAzM5EvwRI5+vT+emUFeNRJRT4BPIY/Ukkw0iCOyTM/BxRI1V83xupLqk2ZAs9WqZCzFhkkFS2GzB8TvzauD7iOAUhETPgHcVoZfZZhBlvNEsu1iBG4Qe0fFGVopFllSyLcQKkIkPN3uunfWbjYPAGERyJCt3jb1RkCusSmGQwULWyhVjvUuiOOe4aEWKnvw3Adprzr1zzHEtIU6W1FHMqZGKEywq6bwZ8LLlArU6kQfjRxBVULuBTorURqiaYRlbT2T62xSJ2Q0TYSDaM5vP1ELg6cckMjopYbZ7mFyMR2OJC5FouhHSUVfVTIRH36lbONB5UD+CwVMqiiAZ0nRMxH1hVR2Qn2AtCO9dYQpOzko8X2E4pLoop29yrWPvzJKDQX+koF/0idy1NNMq6miEaLIdmNTlKzKjQmKWioho6IfJXncPumi3uhpzNtl2Iok2luqnhkQmlPOoZK2wZSBnBCcPIV+olTUej3V+vG6NehtxrS7SJqFCabXw3mJCYGQfQ1Z4rhIIM9TAEAWObGb4Sn4FnwhfjWwb4qhZxv/xKy/DG47Oewrf3/B2/ukvdAW+JwlC0aXYbvCH//L/xWc/+kHTVddm5dsF9jDc31V0hLI91MCV0kVFLsiXs/IuQHP0yLIAP7rmWgmyTLWEgZWWBoScd73p3wsLt1FIBpk4QevgAhrtA6SzFF//6lfxlS9+WYZRFy4eoXvUEeGPAkX8sSArgXwvWWeKbi4ZkFGPr9gVhLgjcdyJ40wBXvPGv4WLD70c1bjjNnPzkjc4Y60A7SF0kshUITuGNYf8GVilD8D+u5tkED3DKfJxB9Q4qCBT60GbyiADKefyjY2teLjKkC5nOL13InhcTO1qhHanK/4CRwYZXFnt8rjY52dfmaJCbPVElaqc8EQUTDNt3lLkW6+0oRq0bcRCaQdsqGfPa2Jys5w+4DLGUWyywyLYMYDabD61EdgCYPVdrdXUBLApAmfSxc19z8xa19bOTL1nm8u36tyPOmp6huZBnF+nIBGRCXeO3qpb3BjnrUAIXdW4tPg5cliRYx+RrLqTF+b3LmVuZPcB0S0mLzwnk+bm5V0LbWCQYj+ba53TCVAjk2UWuBKRMsVK3ltlqQ3SwIjrR56DT/pYRasPJK4J5wS2miaRiZJrKXBaQpoJaYrxlPoHuRIUTtdIBErVtN1DzUbTZKNXa2kscNSSTqckUxqV2FoKzMYZhPnc6PYyN2UzpiIK4w3N3BMubopEvXjljDPDhspw2NMYLa8FJ2uILt2+fSIEwZK9faEks5XmT0R0rJkIsSEvYDTqI8uZHIRo1GP9P4sL2VLTF0LkZHMD5fNn7rCmSWCooyFHTEQ5AaTSZcuAnipRHQ2GuqZJUpfGRy2uW3uSF0tKr0wo6FhpiZr2ADdhI4SS7UuKhFE2ewV8bnqMP0sfwRIB4noZ//jnH8abr52LIL3Q4HX+/u//CrzgBIEbiZjG+Rr/6vf/BT7+oXdzi1PVbUiBkzDdO5cib/YWsG70wH6zjdUz/2VAIwKZJRPMC2QCpJlqZ07DTc8pz/EjOAuuYC4hEgvjrMS9NjxZ8PV2B0n7AET37949xZNffQKL6QQHrEAOuCmQ3MeEwBzpJHerYMwRJVOzE3eS8OteS2F37Pz3KuJGF6/5ybfi6MpLtWmw+pPMMdg7Z9B3hDWn6c9xSO1XivO2ExupzMhP+uUCksx4nHGQjIdcgsJN0Axg7DMYAPx30lQqS+fon91DStU9IRAhOt0D1JIEK+pEcBPVpk+Bo8hp1Jtpk0AeErJ07RjYDLFQgDM6iC1bcf3tmpKJ72SUzAXHKT9YgsUWLTftignuhGoMuckVqhU6YpySQiPH+XvCr4fNxZOxbhgRZ9FZQWotXZLCYE2+g9aP180BVmYqxamFCrYUzuGFoqOhxiN3Fs1KMKi+x+NUkqpxGcdgsOC7JfTvFBAFXTOQ6GpTGIjfSRIrkQgLVAx4bFEpkaJ6N5NDCWOZ85/m811LTgHbOWFq+oL3het3yx1Qksj2K+daSBgqQFIjUY/3rSElDH7irPBcKCXMYMmMjefl+B4a/JSvsZl/edtt3lv8YCJpQqX2hauE1PkMwpEWuYYSUdrgzu2bQHmlpLTfH+LunXvo9TitcL8Ikn2Ekf+YnLWaJMsmSnYGAya1MwX7VoMjxYmSSSYXRG0Asx7nmpOga8JExtnhMSshIB/HPSN8Lfki5fJWSRVbabyG9UYTjZYZUbEVRcTRpBgs+VQCvj9Fpfam8zbZbJFvVtIv+cL8CO8ZXke2DdBIVviNv/dKvO6Q3J3dnvb93+bPv+F8Bb67FXjBCYIR1TZ4zzt+B5/80/dq1trivCfe7JTv/AiiZyz6hMAHCYvDPvO3wGKz75ZqFOqLvt+vjdN+2UbAjYiVHMeFXGKh+txtyvYJYouzKiiXIoxGY9y+fRszKdLVpLxWrdncsrQD1Nq05EAtEG/j6xMZl6R4bgUTFSIHq3KEh1/+Krz8x1+PctTQrLPIkYRyXYHlRxEV8hzaYsZCGzdfbaY0SsKcZ4JNrZn2gzYk10f15ExLZBxSwE2WAUUWvORikcuRYzTpYzEbWlVVLkugp9HpunMloYvWvUwSnJugqkReF5eguPDOgFkkLW5iQzC7RGT8MbAyY/Cy13p/Ba8S6Fn4HgTg5VdVyrV3V1dx2CeKDjnwSaa1j/hKXmXT6GcSZ/LdOztrY9nfL1JVcGZ0rR1HgOfkjtUVxMWonW+NGf+FwdHEgHbHQtTFi/hIpEIBvkDYigfA0C6/diK2OU8Itq7s2hJ98dLINvumkToFKBvJs1aR9efXKyP9+bXm+lG4SORUijoVJGBT75TQjxvBIxHVkC5niiYugyFR3jBL56z3iGFwf2LgrlPhFOkqf7a0lJBhhdN7t7HZUPBrgd7ZGe7cuaepBUlm+2S4AIJszZgcNJp8VumKmKPfP8VoPJAgFLUO2u2WyMG8pzmRws/i7b5iwaJrysTHFC1FDGW7J+I5MCEwsS/TNyACxlYSVTPZWqpLV0NEUiUHTCqIgTBvsyTLCWeY4BjvhWKXouw3R3C3+NS4jveOrmCyjnGxEeB/+flreMs1k+c+/zlfgR+GFXhBCYI2vs0ab3/bP8NffOyDgufNWOabIAd7czz7yYElFH4iwU8CWIVWBAn3qc78zFXZtrGbCIm9T2pmIiExoFlLw5IYd1Rk2TcacnlMszXOTs8wHI9dj7OGKLRAyGqD1SH7k/xgQs5WNTtSpK/q7B8UKFi1rhEi24T4mZ//u6gfXiTA6loS5o2gTd+pz/nESPwBBYktVluSDo3Y5AVkZE0se2JLDgShin7JSOKEgXyQcwmLG393wW2jkUyNSk6GGI1ObHQtoIxsDZcuX0FO+J6iLoRog1ibIMcrmWxY0LZjV1XthKxsRp2Vle3snmAq9TgFQI6FsdKy+XGiDX4d1bd1nAohO+76FeiJQ1n4d1lsuGTQLIwf+LFY9jwNLNflcn3iXR969/59MSWfGCgZLVl7xMv6Kig4bQXrbe+SCv9pJvth6oxMSPx7d6MtruEh980dMiGkyyUIPpES/CN+i01oMDngD9daaIGTkia6RDlotvRoySwFQwbDyPgbsup2KoS6VaWOZEGewlZk9zOQ0nRJiYp7aPxzp5aESzC826p3kfRrp+NiRc1mkFszwmW6P9liSWcY9E+QZkucnjA5uIPhcOxUHr1fiK2ikkjKgJNzwLZCEkuQaUT79LMTtS7qcYyDg7aSHxKFNUWRkvNhYlbkkpAcyGSdyEiZwmhEDkLel0RKTPmQZMd6EqFStWvNhI6tNupSiCCstoQJPkn4SEkSGS5WPMjzRY6blizS6IrXie2aL0y7+JdnV5GT3Fne4g/+81fg9RRBApE0mrad/5yvwIt/Bb7zBEEVgUHXhA7f986342N//C5sVktnCMSTvr+tsI8cPF9ioODiApzvAe9vPhaLfevBHi3/OV7v3U8RmLiObeBuizWJWteaiGqxpgeyNdAfkKS3VLyOE/bV+bAbCmGbukGG/s+GbthFtfaGDtxxH2j0EuPS9cfw2p/8d4GwZpKsTkaZsZRQsuB5sqldsmHo6C4QFO6CLujq9XsRSCwDj854BMUTPfVllqCx/07KQOAc5BhwpqMxBv17IndZzzbGhQsXTXuBc/CdAwRhzQSeVvQcIFmO6IElRgoaxka1ql1VvhOrKpIE56IoON0lRLo4xtYuztsvpDM1Ulzi+rANw1E7NwZZJI4imboDcIHYJ2zW7PfohuMd+GSOSWZxzA6pcdfW0TVc/N6JbjEJsmDpEh9/rR165MmnfnxV7Q3XujBlTxsFtNE8fw/5a25JrwKqSxJ8YlF8ho0LOAKsRzTsxltRmVOWyfw9xyZLsWViIMGlEsrkJjAxYOtICfLuHKz/bsmzkhzxeQJNgvBe2eVYPvE2q2Pxetxosmd17G9tCspyA3VJLCcd9MxRs2SLk7u3MZmO0BdycFfGS/uKl6ZaaegO71Mm+w0SEht1oSXD0Rn6/TPhfyQqHh0dmCYHlTRnM43GkjxrXAyTw/bnItdEFg1CoIygLD4ODccoz00XWf63lA+JelEfganB7p4tFBDF3+AewPWwfcYIsEzE+HsV66CJr66O8IHhISabGJfaEf7nX7iGN1/mEe1QsRd/aDg/wvMV+A51EAo4WS3SLX7vt34DX/j0R8yVUbHzuW2FIr76x3aXLVigdX1Re4B9K6FIAYrNu3jt3py71zko4H0PiTPLV+FkULyvoMjgDmMaDZUxni0xGpIwxdGvKup1Cik5O1ZHbrTe9x664f68l6GYYlpQRbqp4ed/+T9GpdHBBhGbzHJUZCySyrtLArxbYBHz3Widra3BxeqHCy0wFGE/Wdq/aSlL7KvTXfXOvrZNDDiamSq7+WSK4dkpFvOx1pnf88gjLzHGdQlyVpTjo7OpVYtFlZYjjrGCFfTt9CrU5/WpkpORdY54Ol43FSBderZX3BRLkewpGji0yJlWSWOflfdecmAclF3w2pl77SFNrgXjERcP6Xvot2gluHuvgPz3ruf+v9nn+BraltiPz9qR7I7J5uMZ3Pyom0tLXYLAj7H2lyf4GZriOSFGLnWtGpex+IDr/88BADI3YgAk455JHiWeeV/JcMn5BjBQuYdRT6PsH0WVsKTZ2gQBtvRy0F1CzoVDYBwS4/kG3snQVCz1Yc/ZM4Vs7aE9xt0wgmIYlGXlfHZ6gmGvp1beoD8UqrT/UXa+hpLJUroeSyWR9yaRAyp8EsmjmNaFC0c23cPx1TRFTj0Iql3K7TPHJveKmpacSdzKIYnk32gtvCw7ybmciHGCVDwOak4oqaNWgr/f+XrxR93UlPRFjNNgEstmRlYK2vj/27u6H0nuq3r7u6enZ3pmdmZ29iuxo1gIJbI3CUkMBAmBeDASH1EiQALFioQsJQ+IJ/4KQMobQuIFECIWUiB5QU4MKCIRvEQJ2NEqji2v7bV3d3Y+unv6u6sanXPuraoej+X1W1b0SFHGO93V1b+q+t17zz33nFfLj9t/zq/asLTG5Pwf/vAJ+9S+pqBWsMEq5D5qK/DQCEIkB8yDF2b/ilHG73yTKmQRRD8YcqAnhlUYqjyv+PKObsQ+rwdC5a6YVPgTp0MICuUGyQ2N+q36H/5OwZs1S8s1+gtAVQ6kJujXt1uqJKTDoH0wDw+RxBTOzM8FVUdaqtuV6z9nP//UL1qzvUOKISogKLepsJVjmyDMfI8QFI2NyA2DYqPNkIMsrL37nnJeBHgNvB7kkyloqfLxMOaBbToa2unxsfVPj9haqNeadv3GDYrgzLEpwhwIktTUaVCwxwgcaQdgYvKA2hQjkdEcuSpUVWdC+AAAABgRSURBVFKoWIMLAsg6Z5HLUgGGWzqvcEXE+0l2q+JvCUfpEAgCAVpOjJTy0AG0sNOqe5BzI2KxAnnI+/9Lw7UXP6eB6nhyVbwLAqmKe4PHdYlgoj6ciHBtST8ftrYovYvv5y0F5yhkTZEC+ZQJaQRLvs75C4RiJOYD+2wSPhmEsfaAuVHBCu4mU4fIPkiXQiJgrqVxPxcag0mXoy5pCj+TPPBrCkjPEVsQHBEUwnUuN8ruhWxvYCtPbSjKO88mdvv116x7cmx33r7D6QCMhJ7PM+I7gyi40RYhUZ4gx9btnvL1ICru7+1yAgVPoqy6pzLbIlVDCdpkNuYoKFs8oWpIErP2G0wYRDtEExpyywTxkCZO9OEQqTmeLybsYkfz+Qo0BWOdajPg8WjavfWP2f+sPWXdUtuudhr2l7/1IfvMHu94J9Y+auFhdb7/31fgfRMER/1C5NAqaWLP//1fEzmgShhhbBGCzqfIWbWYZc/OT/A+Mo6N3iBm5OPxLbYgckg6gl6wqYU2xGHVnpDULKujiPLATUGeq0IZsEnewWCCfmafHgII5BtrDWtgnDEgzugoeCASnFxEETCdgCINM9Eb9rGbT9tjTzxJ7gHXogZTKQygBbirvio2HEVwh5/BJWDfIQ8Ey1Xse9+aFEHi+L4zxnFYJ1RqXeT/gNZAOVnY4LRrxxgNmwxpCfzYhz9sk2Rur7xy21789/+2am3DktnCOru7tn/5sl3a6djl/T1uxsgGAeeyRUO3voBq1RaStDJIYOB+YHQwsfFoZv3ByE5PT6n+d3yKjb5v/TOoEw5lo4yEAAJJnXW7dnnfnvmNX7X9/W2hFrw/1C55949D9v4HXTcPcN7+KvJZltCCC45WZOEXCflZspj3lPibCIVqWzCw0QIaI3k5GTH/TH0PkQgVYDWNonZA/Hd8yzzZEV9F/AMlT8lsQL0DTICQFwC1S+hEwLehVuckDdt+Ka4D0lSfwOBYibxPwJOh6BEnL4T2EbFykmyWHGRtOipLCfp3vCFbQuZHSnrxuUGsZXJAnk1i99+5Y+/cecvu3n2HJlZyx/THwJMwjePC7bJm6+QctPhetBWAHODDYW61t7tjTbRPkIgaSIVIu91HYarkDLoT49mIehKLufgua6116kGIkyTVRExDDOHOOhmJvzFLSeClY2eS8O8cUXJPCq4VWpY+mYMEBT4T9QXai3jo6/bm1k17bedzdlZZJ9fhb7/wuD19VZLvq5/VCjyqK/C+CQInvrzyxcP87W/+o3332//MTUtkNDwkmksv/hT3dk00KH+PTR/QJhWWVWNl/X4G5CClFUiB0W8mm77w2CmguJ2wBzBW5UgMAjKFZG29Sd7Babdvg8EZq661Rt3WIFYE45rCyGXwC7JRy4JGP6WS4ZTYuWqf+Oyv2cY2iIiauy5XndTk436qMFOxqpkcCIpGw5cVSrQTnIj2MDcRhy6zpVZfntMW/uaAhzmECB2FyYTqdeMx5HvHdnD5wM5GA3vt1bfsX771b3bSA4wLaWYEvzmVEdG/rkEUJ51aqyn2Nu12I/HygBJaC4gJ1J5YlGWwA2tpoihKZIjqcH5f4o5NEMMadWomQEb7D37vd+yzn7lJ4aj4bstpQCEbuICkeFGCkLdcdOdd9FO8R9FKCSg9a/EU30SCqYJpVJlyx4x2QQTS3JkQXxh6/xDcyQiLhWMGQrJE9iOS5ARHFuKJzUYDG571hONUwQsBI78i0SMkZkAEsnYakg+1l6RcGvg6Z09jqJZr4t2RJZdBoTfeEsluWiSghWQ0Gg7Ot4gWCSSZyxwlTW0yHNitH7+s5ODwgRsb5UiFkopwZaywpQDy8CKdWff0yE67J/z0zuam7e3tUvOAQk81jB3Ks4TiZyD2zuY0AIP6IUSOcA9CRbG9sSGzsUqdSBh4EhBngi8IVBKnk77VFhWrV2C77SOgcyUIkxlks8907bCf4MZFwUEEBMkXuA4zS0vrdnfz4/bTg1+3QW3H9tsV+6svPG6f2PELvcoPHmZbW73mZ3QF3iNBiMpHFY+quYW98K1/su++8A1L6cKGLR8MXxceYdB2FnTh2QhCl1IARWzKsGBDBgFuoZl3kQrJj/d+rycVXr2zHeFERuIQghe4/5FFTKlXHCsnO7H0gfIgeAdWsd5gSCManDfsjqXApt4n47cr9fFzKI7knxEjj+WyzaxqB49/3G5++lfMStBkR3sCjn3qb2q18nlozrjr4DkpDfCnQ8ngcmTY+/vcJKowNSPvORXohU69Ui9agVFBEYI7EJUZDXpUfdzdv8SP+sEPX7YXXvyevXH7Pt0kK+UGeQt4G8iNdKB0dIOQfowc8jbwQCG9as72B/RKDgPugnJCDgavL6YB5hqzZHaQpBS2QULVaFXsua88a5/65JNWxzw+E0lfwQLsnS1LjMO9a518Zl+1rJIS8iHy5GAZjFAAze6nDJDSOKHu1Jy0GEiBpg1co8ITg2zSwSGoYpcekDV0DeTb4KTHjHvhyqHZ2KajZD7/z4QiWdik37PJGP4N6nVD7hvcQrQUqBCI/+FqYyKEIj1kvKj9E9wJ/CuvoauZ8iQxc6T2kBKOnNyrm6sQ2XDv+jhtljO4Oil5EiRjindQXsxpVPS/P/qRvfXmm3b04NA5B4XkAO0HkjRhOqZpBWhwYGcQ5wAjuKltbXVISMSzCsOvjea6NapNIngg0iLxpp35YGD9fo/qh7j/YMG9fekSPTPwfOL+5YjleGQPjo6IbOHZaFQattlqWXMNplrhjTG1wfDMzvo9KoHOgDCE5AWIu+DTlIFYTO1+ZdNeW/+k3W0/ZeNqy3bWava1375hn7sGVdPo8/2M7vyr01qtwEOswHsiCFDNS300ECSf6ahrf/bVP7Z0OqB1MmB7VS+qVOFVj8weTz36dZy1dsFDbI0SCGKE09gcZWkB7QO2BuMd7zOrusgMYWL3V9Bmr00rNnr1wPUa+STA3jnGIgEZJiIj1dewm9pwOLGTM7ghSsGP/W4arKDviIBbohytzF400kSInpyvxJJSy+aVDUsaV+yZz3/RhvOJbTTWrV7Bd8d4FUNO3uN0FMNzA1fKK0Dh5EdoLEyrop+s4CsEKP27ArGOp7YErk9Uz0wTvE8MdAIb4OnhPZsMuhwvOzi4bK1W27r9ob3++m27/cbb9uDwxB4cndjxSZ9eB1AWFGlNHgCgVonToKDJ813M5LMJqBeSu1DfW2DsEpLCVUvrU6usVzmK1l5rW2dj064cHNhaq8aRyp122/b39jmGtn/jirU214kkUHPYE6Cw+L2o5ZJNj/iqRUtKnADnKdCe2NtZZflkFH+W0YViSI9XeQuBPexICBxKZ0vIK3QSEfX+4rmi3QARLHBcJFIlPQO2FoC2RRJHjorzXgonyIQkKdmo32VbqNFoUcoYPBncj5VyQmIs+CIM9UvcluLdRJxO0luU4hafQMuck+yQHFyEZuhIubqh551+K3hrDK8B3wH3HjQcyqm9+tNX7JUfv2yH9+8u5b7BVQhuBRQk2xBBarUtTaZ2dnZqxydHvF7QOFByULcNv5daVLA0m2HU070cJsOJnZ6eWP+kT0Gj7d1d61yC1HKdg8ASD4O89djuHR7a0ckxbaA31tq2tbllna1dqzabNltMbDYZ2Ww0tgeHh9bv9W0yGJCkCyEltCno7WB1my7q9pPFjv2gfN0OF7tEZdYbVfu73//ISj75IYLO6iWPzgpcmCBQW6fA4sas/fD0nn31uWdpFgRSD+sWSKhCu79asybtfUFwWtiCc9ZNVaTzmY1RSbkdL96LjQF9etoyU19A5DOqE4bhEgI2x4ncyCkTJor2tBT1KFYDqVUqMEuGFtUyzo2mKtWajUYz6w6k9Q8LWBwXcqnQ2Cdr3kV+kFA0vFKDkx5HmsqpJZW2nS027dbdMacU/vRPnrOGza2G8wZRinCp4iiU8RQ/pP6nDdlRmAhi54VhBA0oQYhJyiAd8p/FsSAszGMo6NBcyN+JBEvlbUp2dxcTC2cnZHtv7eza7t6edc/61gOCUi6xssWIG1ov8+lMapMgekGimB4TPk1RKvF6U38BynYVEBWRnCFBxORH09aasNBtWqVVt3oLIjTSQYBiJbfndEFDoBncFJsNmTBZnQRRtDNiWkSksnMPTyG4LycHhZbVEklRJDIKSPG+crTFDysJ5FjkuDbLn6m+fyhXilwpxEcqjPF7JCTZ/zt6BRlhIgdwrfRrlctyx1SDBHMuImLCFGrQ6xLFQVKlKhgQuBQJMYEQ94M/BeeSFL+XiByEVqeURUOFEgl+2EnnqFNMIcVFyBEZz95csCkfKeXaUPMBSVBig37Pvv8f37EH9+67BHVR/lvIAT4PvBa4dsJ8Cmtz1ju2k9Mj3jtbW5u2vb1N+3Qkj/CNYJvAc2SgKUhcsadgEql32rP1tSZVUNFWAHmQPA0igQuScY+Oj4ge4JnpdLass9GxdRhOgWeDNYLyIRVGjylBPuv3WQih7dHubNtae92ScsteHm/aD4cdu5N2bOSTDlc26vbnv3ndfvkqnE8fnc1/daarFXi/FTiXIKCiRpDTXc62IySNSzMbnJzYl7/0Jev3Tq1aXlgFY0x1OSvWGmscFWw2KlargwXfskUJNrUIwtAtVxUHnfp6o0pY0UVwXSBJo2F4uEiUQuaPBAHUYycG4WEP6JNVgaPBVVQK2DwpDQyddExVlCiRWinXbTqaWG84IIRIH4dy2SbjqY0msKidZyI8gMORFKBawKaRkvYMQlfLepOa3XqrZ2eldfvoR67bV778eVvMFkQciI54oIalrRKCqOzlXaCetohh+CsrqJBJBrmT9tNmc26A7kbJkUOBwhB5wg+mtKw0Z0BPUg+CTnwjgI3KdTK1B0cYZ+xSm2KjtW7XbnyI2gKHh9i0Z7a5vkmpW2yQMKFJseHShEatgGoJCnhqCaCCYxMolXgUggoAl2RRVW2Jc0cghgFOvWTVaUIWOdEF55wAwQApbG93j5BtFRLUraY1KqnjBqiYhYjED692NuIYkyzLt3PGVyiKKrnkNlAftRhyBrnIi7mWhZKy5YzECfhCDmDRm5ERQcjV65WY5clMVOX45xEEe+ZwBwSTPpAeERTF2VmQt1OE8YV76VxBTBz0ejQMa9bxHFUZvKQSqu9C/QLvMelYTogtJpoUqoJNM0iLuO8k4Y3fkfhisgGiYhnfJtMuyZVPI7nFWrINx7WoZ78z2OOcK/j7DCrK9l/f+7795NYtH9EVuhEkxnAlrTdqttlpM/lBQt3vnpCUiPWBcdTOpR22nCAwBN4AvzO4DVahDwiMwEq1inUHUzvrT2y92bBL2xvUTeC9y7FO8aLwjN9/cN/uH963Zq1ul/av2Ea7YzDIQjETxMlxMrXe4MzevnPHxqcP+Nr1jQO7dOWa1Vptuz1btxffLtnt8bbNS0hQUumcLMy+8Szkk/0+WyUI7xdzVn9/hFZgKUFAoAND+1w9JdLRZGJff/7r7GmjgoVKG7zWQywEkB77n2gTIIMvQXKU26K3FRBg3NzFWwEiG4rc5iC2iGwVtB+c5S+PJcGyzrwOsZeAPEUw1MaP08dGUwWZcLagCyL2zUodCURCBzZUySJfxughEgywwp2Nj0kIBl7AslU77p3ZdFG1WalsO1sdu/nkk6G74tMKseE7kc3L4AzaLvS14bUgMxugAS7wEwgDA2IgKq434BA3iY5U0RM9S4egyIJIVKzhFnTxg3tfOh0RPdi+hGmElr1z7x0bDs4YZJAUVKzK3usMBDcOeac2RyXF2Kf0TW0eOCAKXUAixmmFtMQxxgieeB9IXBTuYSIDM6KZDScJR8fQG0b/F+f42MGBHezvyW8AFshIipymKoZ/PvWhb8UsLOuJa8kiEcvvVLxEUx35vYQkTJxGvwcjeQOowH9XVa1KEwmJkju4R04hS81EDv4LGpuVS6FOR9bQQFJ8pHZRoskRkzjeX0oK4vtEwk0OR+bVgGsNpUn3W8DI6WSk5BOVLS9zrjCq7+1xPp4JXjNpZeA7iDQpPwj6SOC+yIS/SkQlxOER9qALjXtd6xYTQfG7Wjcu1e3IGO9rPnxoWah1iKA8HY/tpZde0oihn6dW3ts/PFepZpJzwntmbuPhgOQ/iBdhxBF7C25EInxBDMVnwE+hDjvyiiXlxCYwykoS22iiBYNRWxwzinhwYTClkdDQqpQk5CSIb4C9AHd2tIdmfK66/a4Nh6dcFSRn4EWk9ba9MWrbnSEcZoT6hITW9U7D/uKZG/b0VW+PPUIb/+pUVyvwMCuQJQjiHOQbsd6cM6Jjk82LvOhNYtPRA7JUi6FyZrIhPkKQp4T7KthxS0ud4e55CTekEhAHVGrafLmpePWdb7gKBggwwSHIt06xy6PfS8iYmzVEgTzo+IhaQK5qD+SqhclCgkO0KfbAETr7hFRFOhCZzTOVAPy1OUpaOHZgwtJeISrAiBSNz8irSUw36CjqK2NDVRIDXgF5B747k3/A4ykIyZQKFY333nlssL2DeOiJBXvGQjXmcBb0KEa1BvIixHQXZKwAE1bZFIFkYuN/wRp5kOUEQ0n2tiSs+XlqWkwVbsK114+UHhGEgZLQdDfrj9N2mYGsYulcplgRbOdBlisESq6nt0i0topgpL3GNfQbVNdE98MskYW0lCk9cPK6l2yOyRIe1StxRw1wmNzDD+vhI6ep7KJ5xV3oKXsAC32TQBuQYJHXB7qdj3Vq/XM/BHEVdA/hfGX85NwcJnWO9MV3JxKV33M0dCIfSPcQ7ym6cuo68ofEWs68ZKcbLQckOWkZLbNoISix0LOpT49kl+/3ezLD2f350LXza1/O11lrqfMD+lbxcWe+vjAxw3uQeRX7GSZvSLc35zORox5ZoUASrQibkQxSjyTMr4r7je972nuAumAaQ8sxY6sU7U8IQOk+1YNfsef/6An79D4SOJxTvn7ZQq5+Wa3AI74CpXSRLkCIYvvaR8hidlc1qbYnbSDxX3mrTeEoNiV3KfOAkAfI86uEisenDZwI6SGAYYldU1RkDKmSqPWiWeN2vpljLpkmPAhKLipIOB4PcsbiVhBlqhIBna16GftIC9l7zj4ahrkDBFds/gwRUbVyvhsoSx70REwUy5vbUcYvcP38ggRw9KHnCAJIPBj8VckECsA9O8ZKGS9k+MNKiggDEq8K7ZeVdPjm6/wLBT+dI5XkPHnAesT0PfX8GWzc3IhB0ZMdJBWsGEE4Q1AXhwDHSRh4XViHCYsnJ2CTIxhRbRGv1dRL6DniOzDVdNfHSHQyDgUDi94X0wP6PCWBESCzIOPZApMOTw5C1lgvzlEwrM9MUgAewJQcsMInYBDERiWi+A4JkttIWNzaOBLknFIa1acSJqwNr1seqzz+BpFRn+N5pYyXXPFSFTZQB1+7jBga31yBlN4A/Fjvr/lzl69dnJNfLwIkHtAciZGGQ57Ka94mpkc8Z4C+BUWa4NqpKQWNKLtDK89bSZW+Dz5IKxPtMKI32aWA94QfO1i4XItwAKVPpSe/kbdEAeLH5+crMDOhYWUQD7YSHaEzfg/6RJGDdzK5ctnxmJQVQyEaPN5CKWi0QOuArbYoTvj9Fnat07Sv/e5j9gu7efvqEY8Dq9NfrcCFK1CaJeki2grKoFV7ZSFwCRb4YKuYb0T5hh1HWE4etInFuGG8BggCKyLf5IQ067UlJDWx9xFejh0oNpR3nysRCZZtXq363ij4XueouhkboLzfsS+hTxrM+vz81c5AKOW+5RiJ1jIX0jkPhyuwKzblCnY+AlkIfPg1hYGOoweRnKHq5vdgRRabvapOvIZ1kyvwEUVB0MuIakom5nAC5PQE3o/vCMMlv+ZUVkxsVkKC4CgJA4I2ZgV5BVgupW/E+Ed2pD34sEkDJCCgaE5GOHKE9zvEGzQ4rnkqedsMqckCWR4sdJ+IBzBHMPcE6aI7c+7tAKIOqHj9MERulvGuDIEIdCHgfAYiF+S8SJuByEV8L47eLp+JbKiLn6bMVddLTxkSUiaBjkwxcAU5NxLAQlA//13leeGJ1AUtGO9kucDTuQzmgoVTuwraIEhG+dDJ7Iw8CIgU6f7z3o8nPgXPkMIx1Rb0XEz1fDbNJH5OQaHx/LjJBecmi3EhXRf9ZLmhq1zyNfTj8DbHuTcxqSj8KImLpNGxvfB1WSxsrVa2v/niR+2XrhY1Xz/Yvrh69WoFHpUV+D9zey+xA8vDbwAAAABJRU5ErkJggg==;" vertex="1" parent="1">
          <mxGeometry x="22.5" y="257" width="154" height="45" as="geometry" />
        </mxCell>
        <mxCell id="vAmcDXehXL0Ibq34O_KT-23" value="" style="shape=parallelogram;perimeter=parallelogramPerimeter;whiteSpace=wrap;html=1;fixedSize=1;strokeWidth=2;opacity=80;rotation=180;size=50;aspect=fixed;strokeColor=#4D4D4D;" vertex="1" parent="1">
          <mxGeometry x="24.5" y="308" width="134" height="36.63" as="geometry" />
        </mxCell>
        <mxCell id="vAmcDXehXL0Ibq34O_KT-25" value="" style="shape=parallelogram;perimeter=parallelogramPerimeter;whiteSpace=wrap;html=1;fixedSize=1;strokeWidth=2;fillColor=none;opacity=80;rotation=180;size=40;aspect=fixed;strokeColor=#4D4D4D;" vertex="1" parent="1">
          <mxGeometry x="42" y="351" width="106" height="28.95" as="geometry" />
        </mxCell>
        <mxCell id="vAmcDXehXL0Ibq34O_KT-26" value="" style="shape=parallelogram;perimeter=parallelogramPerimeter;whiteSpace=wrap;html=1;fixedSize=1;strokeWidth=2;fillColor=none;opacity=80;rotation=180;size=30;aspect=fixed;strokeColor=#4D4D4D;" vertex="1" parent="1">
          <mxGeometry x="54" y="387" width="84" height="22.94" as="geometry" />
        </mxCell>
        <mxCell id="vAmcDXehXL0Ibq34O_KT-27" value="" style="shape=parallelogram;perimeter=parallelogramPerimeter;whiteSpace=wrap;html=1;fixedSize=1;strokeWidth=2;fillColor=none;opacity=80;rotation=180;size=27.5;aspect=fixed;strokeColor=#4D4D4D;" vertex="1" parent="1">
          <mxGeometry x="63.5" y="416" width="66" height="18.04" as="geometry" />
        </mxCell>
        <mxCell id="vAmcDXehXL0Ibq34O_KT-28" value="" style="endArrow=classic;html=1;endSize=1;" edge="1" parent="1">
          <mxGeometry width="50" height="50" relative="1" as="geometry">
            <mxPoint x="99.52" y="302" as="sourcePoint" />
            <mxPoint x="99" y="320" as="targetPoint" />
          </mxGeometry>
        </mxCell>
        <mxCell id="vAmcDXehXL0Ibq34O_KT-29" value="" style="endArrow=classic;html=1;endSize=1;" edge="1" parent="1">
          <mxGeometry width="50" height="50" relative="1" as="geometry">
            <mxPoint x="98.75999999999998" y="344.63" as="sourcePoint" />
            <mxPoint x="98.24" y="362.63" as="targetPoint" />
          </mxGeometry>
        </mxCell>
        <mxCell id="vAmcDXehXL0Ibq34O_KT-30" value="" style="endArrow=classic;html=1;endSize=1;" edge="1" parent="1">
          <mxGeometry width="50" height="50" relative="1" as="geometry">
            <mxPoint x="98.75999999999998" y="381" as="sourcePoint" />
            <mxPoint x="98.24" y="399" as="targetPoint" />
          </mxGeometry>
        </mxCell>
        <mxCell id="vAmcDXehXL0Ibq34O_KT-31" value="" style="endArrow=classic;html=1;endSize=1;" edge="1" parent="1">
          <mxGeometry width="50" height="50" relative="1" as="geometry">
            <mxPoint x="98.75999999999999" y="409.94" as="sourcePoint" />
            <mxPoint x="98.24000000000001" y="427.94" as="targetPoint" />
          </mxGeometry>
        </mxCell>
        <mxCell id="vAmcDXehXL0Ibq34O_KT-32" value="" style="shape=parallelogram;perimeter=parallelogramPerimeter;whiteSpace=wrap;html=1;fixedSize=1;strokeWidth=2;fillColor=none;opacity=80;rotation=180;size=27.5;aspect=fixed;strokeColor=#4D4D4D;" vertex="1" parent="1">
          <mxGeometry x="185.5" y="411" width="66" height="18.04" as="geometry" />
        </mxCell>
        <mxCell id="vAmcDXehXL0Ibq34O_KT-33" value="" style="shape=parallelogram;perimeter=parallelogramPerimeter;whiteSpace=wrap;html=1;fixedSize=1;strokeWidth=2;fillColor=none;opacity=80;rotation=180;size=30;aspect=fixed;strokeColor=#4D4D4D;" vertex="1" parent="1">
          <mxGeometry x="176.5" y="375" width="84" height="22.94" as="geometry" />
        </mxCell>
        <mxCell id="vAmcDXehXL0Ibq34O_KT-34" value="" style="shape=parallelogram;perimeter=parallelogramPerimeter;whiteSpace=wrap;html=1;fixedSize=1;strokeWidth=2;fillColor=none;opacity=80;rotation=180;size=40;aspect=fixed;strokeColor=#4D4D4D;" vertex="1" parent="1">
          <mxGeometry x="167.5" y="334" width="106" height="28.95" as="geometry" />
        </mxCell>
        <mxCell id="vAmcDXehXL0Ibq34O_KT-35" value="" style="shape=parallelogram;perimeter=parallelogramPerimeter;whiteSpace=wrap;html=1;fixedSize=1;strokeWidth=2;opacity=80;rotation=180;size=50;aspect=fixed;strokeColor=#4D4D4D;" vertex="1" parent="1">
          <mxGeometry x="158.5" y="284" width="134" height="36.63" as="geometry" />
        </mxCell>
        <mxCell id="vAmcDXehXL0Ibq34O_KT-37" value="" style="endArrow=none;html=1;strokeColor=#000000;" edge="1" parent="1">
          <mxGeometry width="50" height="50" relative="1" as="geometry">
            <mxPoint x="97" y="450" as="sourcePoint" />
            <mxPoint x="97.39999999999999" y="435.04" as="targetPoint" />
          </mxGeometry>
        </mxCell>
        <mxCell id="vAmcDXehXL0Ibq34O_KT-38" value="" style="endArrow=classic;html=1;strokeColor=#000000;endSize=1;" edge="1" parent="1">
          <mxGeometry width="50" height="50" relative="1" as="geometry">
            <mxPoint x="218" y="420" as="sourcePoint" />
            <mxPoint x="218.32999999999998" y="397.94" as="targetPoint" />
          </mxGeometry>
        </mxCell>
        <mxCell id="vAmcDXehXL0Ibq34O_KT-39" value="" style="endArrow=classic;html=1;strokeColor=#000000;endSize=1;" edge="1" parent="1">
          <mxGeometry width="50" height="50" relative="1" as="geometry">
            <mxPoint x="218.33" y="385" as="sourcePoint" />
            <mxPoint x="218.65999999999994" y="362.94000000000005" as="targetPoint" />
          </mxGeometry>
        </mxCell>
        <mxCell id="vAmcDXehXL0Ibq34O_KT-40" value="" style="endArrow=classic;html=1;strokeColor=#000000;endSize=1;" edge="1" parent="1">
          <mxGeometry width="50" height="50" relative="1" as="geometry">
            <mxPoint x="218.32999999999998" y="345.26" as="sourcePoint" />
            <mxPoint x="218.32999999999998" y="320.63" as="targetPoint" />
          </mxGeometry>
        </mxCell>
        <mxCell id="vAmcDXehXL0Ibq34O_KT-41" value="" style="endArrow=classic;html=1;strokeColor=#000000;endSize=1;startSize=3;exitX=0.268;exitY=0.168;exitDx=0;exitDy=0;exitPerimeter=0;" edge="1" parent="1">
          <mxGeometry width="50" height="50" relative="1" as="geometry">
            <mxPoint x="115.488" y="406.08608000000004" as="sourcePoint" />
            <mxPoint x="218" y="406" as="targetPoint" />
          </mxGeometry>
        </mxCell>
        <mxCell id="vAmcDXehXL0Ibq34O_KT-43" value="" style="endArrow=classic;html=1;strokeColor=#000000;endSize=1;startSize=3;exitX=0.219;exitY=0.374;exitDx=0;exitDy=0;exitPerimeter=0;" edge="1" parent="1" source="vAmcDXehXL0Ibq34O_KT-25">
          <mxGeometry width="50" height="50" relative="1" as="geometry">
            <mxPoint x="130" y="370" as="sourcePoint" />
            <mxPoint x="218.51" y="370" as="targetPoint" />
          </mxGeometry>
        </mxCell>
        <mxCell id="vAmcDXehXL0Ibq34O_KT-44" value="" style="endArrow=classic;html=1;strokeColor=#000000;endSize=1;startSize=3;" edge="1" parent="1">
          <mxGeometry width="50" height="50" relative="1" as="geometry">
            <mxPoint x="130" y="329" as="sourcePoint" />
            <mxPoint x="218.72" y="328.75" as="targetPoint" />
          </mxGeometry>
        </mxCell>
        <mxCell id="vAmcDXehXL0Ibq34O_KT-45" value="&lt;font style=&quot;font-size: 11px&quot; face=&quot;Times New Roman&quot;&gt;P2&lt;/font&gt;" style="text;html=1;resizable=0;autosize=1;align=center;verticalAlign=middle;points=[];fillColor=none;strokeColor=none;rounded=0;opacity=80;" vertex="1" parent="1">
          <mxGeometry x="230" y="288" width="30" height="20" as="geometry" />
        </mxCell>
        <mxCell id="vAmcDXehXL0Ibq34O_KT-46" value="&lt;font style=&quot;font-size: 11px&quot; face=&quot;Times New Roman&quot;&gt;P3&lt;/font&gt;" style="text;html=1;resizable=0;autosize=1;align=center;verticalAlign=middle;points=[];fillColor=none;strokeColor=none;rounded=0;opacity=80;" vertex="1" parent="1">
          <mxGeometry x="228" y="331" width="30" height="20" as="geometry" />
        </mxCell>
        <mxCell id="vAmcDXehXL0Ibq34O_KT-47" value="&lt;font style=&quot;font-size: 11px&quot; face=&quot;Times New Roman&quot;&gt;P4&lt;/font&gt;" style="text;html=1;resizable=0;autosize=1;align=center;verticalAlign=middle;points=[];fillColor=none;strokeColor=none;rounded=0;opacity=80;" vertex="1" parent="1">
          <mxGeometry x="223" y="371" width="30" height="20" as="geometry" />
        </mxCell>
        <mxCell id="vAmcDXehXL0Ibq34O_KT-48" value="&lt;font style=&quot;font-size: 11px&quot; face=&quot;Times New Roman&quot;&gt;P5&lt;/font&gt;" style="text;html=1;resizable=0;autosize=1;align=center;verticalAlign=middle;points=[];fillColor=none;strokeColor=none;rounded=0;opacity=80;" vertex="1" parent="1">
          <mxGeometry x="212.5" y="407.04" width="30" height="20" as="geometry" />
        </mxCell>
        <mxCell id="vAmcDXehXL0Ibq34O_KT-49" value="" style="shape=parallelogram;perimeter=parallelogramPerimeter;whiteSpace=wrap;html=1;fixedSize=1;strokeWidth=2;fillColor=none;opacity=80;rotation=180;size=27.5;aspect=fixed;strokeColor=#4D4D4D;" vertex="1" parent="1">
          <mxGeometry x="368" y="429" width="66" height="18.04" as="geometry" />
        </mxCell>
        <mxCell id="vAmcDXehXL0Ibq34O_KT-50" value="" style="shape=parallelogram;perimeter=parallelogramPerimeter;whiteSpace=wrap;html=1;fixedSize=1;strokeWidth=2;fillColor=none;opacity=80;rotation=180;size=30;aspect=fixed;strokeColor=#4D4D4D;" vertex="1" parent="1">
          <mxGeometry x="359" y="393" width="84" height="22.94" as="geometry" />
        </mxCell>
        <mxCell id="vAmcDXehXL0Ibq34O_KT-51" value="" style="shape=parallelogram;perimeter=parallelogramPerimeter;whiteSpace=wrap;html=1;fixedSize=1;strokeWidth=2;fillColor=none;opacity=80;rotation=180;size=40;aspect=fixed;strokeColor=#4D4D4D;" vertex="1" parent="1">
          <mxGeometry x="350" y="352" width="106" height="28.95" as="geometry" />
        </mxCell>
        <mxCell id="vAmcDXehXL0Ibq34O_KT-52" value="" style="shape=parallelogram;perimeter=parallelogramPerimeter;whiteSpace=wrap;html=1;fixedSize=1;strokeWidth=2;opacity=80;rotation=180;size=50;aspect=fixed;strokeColor=#4D4D4D;" vertex="1" parent="1">
          <mxGeometry x="341" y="302" width="134" height="36.63" as="geometry" />
        </mxCell>
        <mxCell id="vAmcDXehXL0Ibq34O_KT-53" value="" style="endArrow=classic;html=1;strokeColor=#000000;endSize=1;" edge="1" parent="1">
          <mxGeometry width="50" height="50" relative="1" as="geometry">
            <mxPoint x="400.5" y="438" as="sourcePoint" />
            <mxPoint x="400.8299999999999" y="415.94000000000005" as="targetPoint" />
          </mxGeometry>
        </mxCell>
        <mxCell id="vAmcDXehXL0Ibq34O_KT-54" value="" style="endArrow=classic;html=1;strokeColor=#000000;endSize=1;" edge="1" parent="1">
          <mxGeometry width="50" height="50" relative="1" as="geometry">
            <mxPoint x="400.83000000000004" y="403" as="sourcePoint" />
            <mxPoint x="401.15999999999997" y="380.94000000000005" as="targetPoint" />
          </mxGeometry>
        </mxCell>
        <mxCell id="vAmcDXehXL0Ibq34O_KT-55" value="" style="endArrow=classic;html=1;strokeColor=#000000;endSize=1;" edge="1" parent="1">
          <mxGeometry width="50" height="50" relative="1" as="geometry">
            <mxPoint x="400.8299999999999" y="363.26" as="sourcePoint" />
            <mxPoint x="400.8299999999999" y="338.63" as="targetPoint" />
          </mxGeometry>
        </mxCell>
        <mxCell id="vAmcDXehXL0Ibq34O_KT-56" value="&lt;font style=&quot;font-size: 11px&quot; face=&quot;Times New Roman&quot;&gt;N2&lt;/font&gt;" style="text;html=1;resizable=0;autosize=1;align=center;verticalAlign=middle;points=[];fillColor=none;strokeColor=none;rounded=0;opacity=80;" vertex="1" parent="1">
          <mxGeometry x="412.5" y="306" width="30" height="20" as="geometry" />
        </mxCell>
        <mxCell id="vAmcDXehXL0Ibq34O_KT-57" value="&lt;font style=&quot;font-size: 11px&quot; face=&quot;Times New Roman&quot;&gt;N3&lt;/font&gt;" style="text;html=1;resizable=0;autosize=1;align=center;verticalAlign=middle;points=[];fillColor=none;strokeColor=none;rounded=0;opacity=80;" vertex="1" parent="1">
          <mxGeometry x="410.5" y="349" width="30" height="20" as="geometry" />
        </mxCell>
        <mxCell id="vAmcDXehXL0Ibq34O_KT-58" value="&lt;font style=&quot;font-size: 11px&quot; face=&quot;Times New Roman&quot;&gt;N4&lt;/font&gt;" style="text;html=1;resizable=0;autosize=1;align=center;verticalAlign=middle;points=[];fillColor=none;strokeColor=none;rounded=0;opacity=80;" vertex="1" parent="1">
          <mxGeometry x="406.5" y="389" width="30" height="20" as="geometry" />
        </mxCell>
        <mxCell id="vAmcDXehXL0Ibq34O_KT-59" value="&lt;font style=&quot;font-size: 11px&quot; face=&quot;Times New Roman&quot;&gt;N5&lt;/font&gt;" style="text;html=1;resizable=0;autosize=1;align=center;verticalAlign=middle;points=[];fillColor=none;strokeColor=none;rounded=0;opacity=80;" vertex="1" parent="1">
          <mxGeometry x="395" y="425.04" width="30" height="20" as="geometry" />
        </mxCell>
        <mxCell id="vAmcDXehXL0Ibq34O_KT-60" value="" style="endArrow=classic;html=1;strokeColor=#000000;endSize=1;" edge="1" parent="1">
          <mxGeometry width="50" height="50" relative="1" as="geometry">
            <mxPoint x="218" y="450" as="sourcePoint" />
            <mxPoint x="217.65999999999997" y="430.0400000000001" as="targetPoint" />
          </mxGeometry>
        </mxCell>
        <mxCell id="vAmcDXehXL0Ibq34O_KT-61" value="" style="endArrow=none;html=1;strokeColor=#000000;" edge="1" parent="1">
          <mxGeometry width="50" height="50" relative="1" as="geometry">
            <mxPoint x="96.5" y="450.08000000000004" as="sourcePoint" />
            <mxPoint x="218.5" y="450.04" as="targetPoint" />
          </mxGeometry>
        </mxCell>
        <mxCell id="vAmcDXehXL0Ibq34O_KT-62" value="" style="endArrow=classic;html=1;strokeColor=#000000;endSize=1;startSize=3;exitX=0.268;exitY=0.168;exitDx=0;exitDy=0;exitPerimeter=0;" edge="1" parent="1">
          <mxGeometry width="50" height="50" relative="1" as="geometry">
            <mxPoint x="232.99800000000005" y="424.64608000000004" as="sourcePoint" />
            <mxPoint x="400" y="425" as="targetPoint" />
          </mxGeometry>
        </mxCell>
        <mxCell id="vAmcDXehXL0Ibq34O_KT-63" value="" style="endArrow=classic;html=1;strokeColor=#000000;endSize=1;startSize=3;exitX=0.268;exitY=0.168;exitDx=0;exitDy=0;exitPerimeter=0;" edge="1" parent="1">
          <mxGeometry width="50" height="50" relative="1" as="geometry">
            <mxPoint x="243.49800000000005" y="389.08608000000004" as="sourcePoint" />
            <mxPoint x="401" y="389" as="targetPoint" />
          </mxGeometry>
        </mxCell>
        <mxCell id="vAmcDXehXL0Ibq34O_KT-64" value="" style="endArrow=classic;html=1;strokeColor=#000000;endSize=1;startSize=3;exitX=0.268;exitY=0.168;exitDx=0;exitDy=0;exitPerimeter=0;" edge="1" parent="1">
          <mxGeometry width="50" height="50" relative="1" as="geometry">
            <mxPoint x="257.99800000000005" y="346.71608000000003" as="sourcePoint" />
            <mxPoint x="401" y="347" as="targetPoint" />
          </mxGeometry>
        </mxCell>
        <mxCell id="vAmcDXehXL0Ibq34O_KT-66" value="" style="endArrow=none;html=1;strokeColor=#000000;" edge="1" parent="1">
          <mxGeometry width="50" height="50" relative="1" as="geometry">
            <mxPoint x="277.5" y="295.8" as="sourcePoint" />
            <mxPoint x="401" y="296" as="targetPoint" />
          </mxGeometry>
        </mxCell>
        <mxCell id="vAmcDXehXL0Ibq34O_KT-67" value="" style="endArrow=classic;html=1;strokeColor=#000000;endSize=1;" edge="1" parent="1">
          <mxGeometry width="50" height="50" relative="1" as="geometry">
            <mxPoint x="400.8" y="296" as="sourcePoint" />
            <mxPoint x="401" y="320" as="targetPoint" />
          </mxGeometry>
        </mxCell>
        <mxCell id="vAmcDXehXL0Ibq34O_KT-68" value="" style="endArrow=classic;html=1;strokeColor=#000000;entryX=-0.007;entryY=0.314;entryDx=0;entryDy=0;entryPerimeter=0;endSize=1;" edge="1" parent="1" target="vAmcDXehXL0Ibq34O_KT-69">
          <mxGeometry width="50" height="50" relative="1" as="geometry">
            <mxPoint x="455" y="319" as="sourcePoint" />
            <mxPoint x="515" y="342.63" as="targetPoint" />
          </mxGeometry>
        </mxCell>
        <mxCell id="vAmcDXehXL0Ibq34O_KT-69" value="" style="ellipse;whiteSpace=wrap;html=1;aspect=fixed;strokeColor=#4D4D4D;strokeWidth=2;fillColor=#ffffff;opacity=80;" vertex="1" parent="1">
          <mxGeometry x="531" y="362.95" width="10" height="10" as="geometry" />
        </mxCell>
        <mxCell id="vAmcDXehXL0Ibq34O_KT-70" value="" style="endArrow=classic;html=1;strokeColor=#000000;endSize=1;" edge="1" parent="1" source="vAmcDXehXL0Ibq34O_KT-51">
          <mxGeometry width="50" height="50" relative="1" as="geometry">
            <mxPoint x="466.8" y="368" as="sourcePoint" />
            <mxPoint x="531" y="368.1" as="targetPoint" />
          </mxGeometry>
        </mxCell>
        <mxCell id="vAmcDXehXL0Ibq34O_KT-71" value="" style="endArrow=classic;html=1;strokeColor=#000000;entryX=-0.083;entryY=0.838;entryDx=0;entryDy=0;entryPerimeter=0;endSize=1;exitX=0.72;exitY=0.936;exitDx=0;exitDy=0;exitPerimeter=0;" edge="1" parent="1">
          <mxGeometry width="50" height="50" relative="1" as="geometry">
            <mxPoint x="427.1" y="405.7199999999999" as="sourcePoint" />
            <mxPoint x="530.1700000000001" y="369.33000000000004" as="targetPoint" />
          </mxGeometry>
        </mxCell>
        <mxCell id="vAmcDXehXL0Ibq34O_KT-72" value="" style="endArrow=classic;html=1;strokeColor=#000000;endSize=1;exitX=0.959;exitY=0.551;exitDx=0;exitDy=0;exitPerimeter=0;" edge="1" parent="1" source="vAmcDXehXL0Ibq34O_KT-59">
          <mxGeometry width="50" height="50" relative="1" as="geometry">
            <mxPoint x="485" y="349" as="sourcePoint" />
            <mxPoint x="531" y="370" as="targetPoint" />
          </mxGeometry>
        </mxCell>
        <mxCell id="vAmcDXehXL0Ibq34O_KT-78" value="" style="curved=1;endArrow=classic;html=1;dashed=1;strokeColor=#FF0000;strokeWidth=2;exitX=0.387;exitY=-0.036;exitDx=0;exitDy=0;exitPerimeter=0;" edge="1" parent="1" source="vAmcDXehXL0Ibq34O_KT-23">
          <mxGeometry width="50" height="50" relative="1" as="geometry">
            <mxPoint x="90" y="328.04" as="sourcePoint" />
            <mxPoint x="190" y="427" as="targetPoint" />
            <Array as="points">
              <mxPoint x="110" y="392.04" />
              <mxPoint x="150" y="427.04" />
            </Array>
          </mxGeometry>
        </mxCell>
        <mxCell id="vAmcDXehXL0Ibq34O_KT-79" value="" style="curved=1;endArrow=classic;html=1;dashed=1;strokeWidth=2;exitX=0.387;exitY=-0.036;exitDx=0;exitDy=0;exitPerimeter=0;strokeColor=#00CC66;entryX=1;entryY=0;entryDx=0;entryDy=0;" edge="1" parent="1" target="vAmcDXehXL0Ibq34O_KT-49">
          <mxGeometry width="50" height="50" relative="1" as="geometry">
            <mxPoint x="138.00200000000007" y="324.94867999999997" as="sourcePoint" />
            <mxPoint x="221.36" y="406" as="targetPoint" />
            <Array as="points">
              <mxPoint x="181" y="324.95" />
              <mxPoint x="260" y="325" />
              <mxPoint x="350" y="350" />
            </Array>
          </mxGeometry>
        </mxCell>
      </root>
    </mxGraphModel>
  </diagram>
</mxfile>
